<?xml version="1.0" encoding="UTF-8"?>
<!DOCTYPE svg PUBLIC "-//W3C//DTD SVG 1.1//EN" "http://www.w3.org/Graphics/SVG/1.1/DTD/svg11.dtd">
<svg version="1.2" xmlns="http://www.w3.org/2000/svg" xmlns:xlink="http://www.w3.org/1999/xlink" x="0" y="0" width="1519" height="2078" viewBox="0 0 1519 2078">
<style type="text/css"><![CDATA[
text { font:12px Dialog; }
]]></style>
<rect x="-644" y="-485" width="2806" height="3400" style="fill:rgb(243,244,249);stroke:none" />
<clipPath id="clip1"><path d="M14,14 L1505,14 L1505,2064 L14,2064 L14,14 Z" /></clipPath>
<path d="M758.6796875,1990 L758.7304688,1980" style="fill:none;stroke:rgb(128,128,128)" clip-path="url(#clip1)" />
<clipPath id="clip2"><path d="M14,14 L1505,14 L1505,2064 L14,2064 L14,14 Z" /></clipPath>
<path d="M758.7304688,1980 L759,1980 L759,1956" style="fill:none;stroke:rgb(128,128,128)" clip-path="url(#clip2)" />
<clipPath id="clip3"><path d="M511,1988 L1007,1988 L1007,2064 L511,2064 L511,1988 Z" /></clipPath>
<path d="M513,1990 L1004,1990 L1004,2061 L513,2061 Z M513,1990" style="fill:rgb(151,203,255);stroke:none" clip-path="url(#clip3)" />
<clipPath id="clip4"><path d="M511,1988 L1007,1988 L1007,2064 L511,2064 L511,1988 Z" /></clipPath>
<path d="M513,1990 L1004,1990 L1004,2061 L513,2061 Z M513,1990" style="fill:none;stroke:rgb(128,128,128)" clip-path="url(#clip4)" />
<text x="537" y="2022" style="font:18px Ubuntu">TrueCrypt v7.2 2014-05-28</text>
<clipPath id="clip5"><path d="M14,14 L1505,14 L1505,1959 L14,1959 L14,14 Z" /></clipPath>
<path d="M759,1912 L759,1899" style="fill:none;stroke:rgb(128,128,128)" clip-path="url(#clip5)" />
<clipPath id="clip6"><path d="M14,14 L1505,14 L1505,1959 L14,1959 L14,14 Z" /></clipPath>
<path d="M759,1899 L758.5664063,1899 L758.5664063,1890" style="fill:none;stroke:rgb(128,128,128)" clip-path="url(#clip6)" />
<clipPath id="clip7"><path d="M586,1910 L933,1910 L933,1959 L586,1959 L586,1910 Z" /></clipPath>
<path d="M588,1912 L930,1912 L930,1956 L588,1956 Z M588,1912" style="fill:rgb(255,255,255);stroke:none" clip-path="url(#clip7)" />
<clipPath id="clip8"><path d="M586,1910 L933,1910 L933,1959 L586,1959 L586,1910 Z" /></clipPath>
<path d="M588,1912 L930,1912 L930,1956 L588,1956 Z M588,1912" style="fill:none;stroke:rgb(128,128,128)" clip-path="url(#clip8)" />
<text x="596" y="1932" style="font:13px Ubuntu">TrueCrypt v7.1a 2012-02-07</text>
<clipPath id="clip9"><path d="M753,1899 L766,1899 L766,1912 L753,1912 L753,1899 Z" /></clipPath>
<path d="M763.5,1905 C763.5,1902.515625 761.484375,1900.5 759,1900.5 C756.515625,1900.5 754.5,1902.515625 754.5,1905 C754.5,1907.484375 756.515625,1909.5 759,1909.5 C761.484375,1909.5 763.5,1907.484375 763.5,1905 Z M763.5,1905" style="fill:rgb(210,230,255);stroke:none" clip-path="url(#clip9)" />
<clipPath id="clip10"><path d="M753,1899 L766,1899 L766,1912 L753,1912 L753,1899 Z" /></clipPath>
<path d="M763.5,1905 C763.5,1902.515625 761.484375,1900.5 759,1900.5 C756.515625,1900.5 754.5,1902.515625 754.5,1905 C754.5,1907.484375 756.515625,1909.5 759,1909.5 C761.484375,1909.5 763.5,1907.484375 763.5,1905 Z M763.5,1905" style="fill:none;stroke:rgb(180,200,240)" clip-path="url(#clip10)" />
<clipPath id="clip11"><path d="M753,1899 L766,1899 L766,1912 L753,1912 L753,1899 Z" /></clipPath>
<path d="M757,1905 L761,1905" style="fill:none;stroke:rgb(150,160,200)" clip-path="url(#clip11)" />
<clipPath id="clip12"><path d="M14,14 L1505,14 L1505,1893 L14,1893 L14,14 Z" /></clipPath>
<path d="M758.5664063,1863 L758.6328125,1850" style="fill:none;stroke:rgb(128,128,128)" clip-path="url(#clip12)" />
<clipPath id="clip13"><path d="M14,14 L1505,14 L1505,1893 L14,1893 L14,14 Z" /></clipPath>
<path d="M758.6328125,1850 L758.5664063,1850 L758.5664063,1841" style="fill:none;stroke:rgb(128,128,128)" clip-path="url(#clip13)" />
<clipPath id="clip14"><path d="M632,1861 L886,1861 L886,1893 L632,1893 L632,1861 Z" /></clipPath>
<path d="M634,1863 L883,1863 L883,1890 L634,1890 Z M634,1863" style="fill:rgb(240,240,240);stroke:none" clip-path="url(#clip14)" />
<clipPath id="clip15"><path d="M632,1861 L886,1861 L886,1893 L632,1893 L632,1861 Z" /></clipPath>
<path d="M634,1863 L883,1863 L883,1890 L634,1890 Z M634,1863" style="fill:none;stroke:rgb(128,128,128)" clip-path="url(#clip15)" />
<text x="640" y="1875" style="font:10px Ubuntu">TrueCrypt v7.1 2011-09-01</text>
<clipPath id="clip16"><path d="M753,1850 L766,1850 L766,1863 L753,1863 L753,1850 Z" /></clipPath>
<path d="M763.5,1856 C763.5,1853.515625 761.484375,1851.5 759,1851.5 C756.515625,1851.5 754.5,1853.515625 754.5,1856 C754.5,1858.484375 756.515625,1860.5 759,1860.5 C761.484375,1860.5 763.5,1858.484375 763.5,1856 Z M763.5,1856" style="fill:rgb(210,230,255);stroke:none" clip-path="url(#clip16)" />
<clipPath id="clip17"><path d="M753,1850 L766,1850 L766,1863 L753,1863 L753,1850 Z" /></clipPath>
<path d="M763.5,1856 C763.5,1853.515625 761.484375,1851.5 759,1851.5 C756.515625,1851.5 754.5,1853.515625 754.5,1856 C754.5,1858.484375 756.515625,1860.5 759,1860.5 C761.484375,1860.5 763.5,1858.484375 763.5,1856 Z M763.5,1856" style="fill:none;stroke:rgb(180,200,240)" clip-path="url(#clip17)" />
<clipPath id="clip18"><path d="M753,1850 L766,1850 L766,1863 L753,1863 L753,1850 Z" /></clipPath>
<path d="M757,1856 L761,1856" style="fill:none;stroke:rgb(150,160,200)" clip-path="url(#clip18)" />
<clipPath id="clip19"><path d="M14,14 L1505,14 L1505,1844 L14,1844 L14,14 Z" /></clipPath>
<path d="M758.5664063,1814 L758.6328125,1801" style="fill:none;stroke:rgb(128,128,128)" clip-path="url(#clip19)" />
<clipPath id="clip20"><path d="M14,14 L1505,14 L1505,1844 L14,1844 L14,14 Z" /></clipPath>
<path d="M758.6328125,1801 L758.5664063,1801 L758.5664063,1792" style="fill:none;stroke:rgb(128,128,128)" clip-path="url(#clip20)" />
<clipPath id="clip21"><path d="M627,1812 L891,1812 L891,1844 L627,1844 L627,1812 Z" /></clipPath>
<path d="M629,1814 L888,1814 L888,1841 L629,1841 Z M629,1814" style="fill:rgb(240,240,240);stroke:none" clip-path="url(#clip21)" />
<clipPath id="clip22"><path d="M627,1812 L891,1812 L891,1844 L627,1844 L627,1812 Z" /></clipPath>
<path d="M629,1814 L888,1814 L888,1841 L629,1841 Z M629,1814" style="fill:none;stroke:rgb(128,128,128)" clip-path="url(#clip22)" />
<text x="635" y="1826" style="font:10px Ubuntu">TrueCrypt v7.0a 2010-09-06</text>
<clipPath id="clip23"><path d="M753,1801 L766,1801 L766,1814 L753,1814 L753,1801 Z" /></clipPath>
<path d="M763.5,1807 C763.5,1804.515625 761.484375,1802.5 759,1802.5 C756.515625,1802.5 754.5,1804.515625 754.5,1807 C754.5,1809.484375 756.515625,1811.5 759,1811.5 C761.484375,1811.5 763.5,1809.484375 763.5,1807 Z M763.5,1807" style="fill:rgb(210,230,255);stroke:none" clip-path="url(#clip23)" />
<clipPath id="clip24"><path d="M753,1801 L766,1801 L766,1814 L753,1814 L753,1801 Z" /></clipPath>
<path d="M763.5,1807 C763.5,1804.515625 761.484375,1802.5 759,1802.5 C756.515625,1802.5 754.5,1804.515625 754.5,1807 C754.5,1809.484375 756.515625,1811.5 759,1811.5 C761.484375,1811.5 763.5,1809.484375 763.5,1807 Z M763.5,1807" style="fill:none;stroke:rgb(180,200,240)" clip-path="url(#clip24)" />
<clipPath id="clip25"><path d="M753,1801 L766,1801 L766,1814 L753,1814 L753,1801 Z" /></clipPath>
<path d="M757,1807 L761,1807" style="fill:none;stroke:rgb(150,160,200)" clip-path="url(#clip25)" />
<clipPath id="clip26"><path d="M14,14 L1505,14 L1505,1795 L14,1795 L14,14 Z" /></clipPath>
<path d="M758.5664063,1765 L758.6328125,1752" style="fill:none;stroke:rgb(128,128,128)" clip-path="url(#clip26)" />
<clipPath id="clip27"><path d="M14,14 L1505,14 L1505,1795 L14,1795 L14,14 Z" /></clipPath>
<path d="M758.6328125,1752 L758.5664063,1752 L758.5664063,1743" style="fill:none;stroke:rgb(128,128,128)" clip-path="url(#clip27)" />
<clipPath id="clip28"><path d="M632,1763 L886,1763 L886,1795 L632,1795 L632,1763 Z" /></clipPath>
<path d="M634,1765 L883,1765 L883,1792 L634,1792 Z M634,1765" style="fill:rgb(240,240,240);stroke:none" clip-path="url(#clip28)" />
<clipPath id="clip29"><path d="M632,1763 L886,1763 L886,1795 L632,1795 L632,1763 Z" /></clipPath>
<path d="M634,1765 L883,1765 L883,1792 L634,1792 Z M634,1765" style="fill:none;stroke:rgb(128,128,128)" clip-path="url(#clip29)" />
<text x="640" y="1777" style="font:10px Ubuntu">TrueCrypt v7.0 2010-07-19</text>
<clipPath id="clip30"><path d="M753,1752 L766,1752 L766,1765 L753,1765 L753,1752 Z" /></clipPath>
<path d="M763.5,1758 C763.5,1755.515625 761.484375,1753.5 759,1753.5 C756.515625,1753.5 754.5,1755.515625 754.5,1758 C754.5,1760.484375 756.515625,1762.5 759,1762.5 C761.484375,1762.5 763.5,1760.484375 763.5,1758 Z M763.5,1758" style="fill:rgb(210,230,255);stroke:none" clip-path="url(#clip30)" />
<clipPath id="clip31"><path d="M753,1752 L766,1752 L766,1765 L753,1765 L753,1752 Z" /></clipPath>
<path d="M763.5,1758 C763.5,1755.515625 761.484375,1753.5 759,1753.5 C756.515625,1753.5 754.5,1755.515625 754.5,1758 C754.5,1760.484375 756.515625,1762.5 759,1762.5 C761.484375,1762.5 763.5,1760.484375 763.5,1758 Z M763.5,1758" style="fill:none;stroke:rgb(180,200,240)" clip-path="url(#clip31)" />
<clipPath id="clip32"><path d="M753,1752 L766,1752 L766,1765 L753,1765 L753,1752 Z" /></clipPath>
<path d="M757,1758 L761,1758" style="fill:none;stroke:rgb(150,160,200)" clip-path="url(#clip32)" />
<clipPath id="clip33"><path d="M14,14 L1505,14 L1505,1746 L14,1746 L14,14 Z" /></clipPath>
<path d="M758.5664063,1716 L758.6328125,1703" style="fill:none;stroke:rgb(128,128,128)" clip-path="url(#clip33)" />
<clipPath id="clip34"><path d="M14,14 L1505,14 L1505,1746 L14,1746 L14,14 Z" /></clipPath>
<path d="M758.6328125,1703 L758.5664063,1703 L758.5664063,1694" style="fill:none;stroke:rgb(128,128,128)" clip-path="url(#clip34)" />
<clipPath id="clip35"><path d="M627,1714 L891,1714 L891,1746 L627,1746 L627,1714 Z" /></clipPath>
<path d="M629,1716 L888,1716 L888,1743 L629,1743 Z M629,1716" style="fill:rgb(240,240,240);stroke:none" clip-path="url(#clip35)" />
<clipPath id="clip36"><path d="M627,1714 L891,1714 L891,1746 L627,1746 L627,1714 Z" /></clipPath>
<path d="M629,1716 L888,1716 L888,1743 L629,1743 Z M629,1716" style="fill:none;stroke:rgb(128,128,128)" clip-path="url(#clip36)" />
<text x="635" y="1728" style="font:10px Ubuntu">TrueCrypt v6.3a 2009-11-23</text>
<clipPath id="clip37"><path d="M753,1703 L766,1703 L766,1716 L753,1716 L753,1703 Z" /></clipPath>
<path d="M763.5,1709 C763.5,1706.515625 761.484375,1704.5 759,1704.5 C756.515625,1704.5 754.5,1706.515625 754.5,1709 C754.5,1711.484375 756.515625,1713.5 759,1713.5 C761.484375,1713.5 763.5,1711.484375 763.5,1709 Z M763.5,1709" style="fill:rgb(210,230,255);stroke:none" clip-path="url(#clip37)" />
<clipPath id="clip38"><path d="M753,1703 L766,1703 L766,1716 L753,1716 L753,1703 Z" /></clipPath>
<path d="M763.5,1709 C763.5,1706.515625 761.484375,1704.5 759,1704.5 C756.515625,1704.5 754.5,1706.515625 754.5,1709 C754.5,1711.484375 756.515625,1713.5 759,1713.5 C761.484375,1713.5 763.5,1711.484375 763.5,1709 Z M763.5,1709" style="fill:none;stroke:rgb(180,200,240)" clip-path="url(#clip38)" />
<clipPath id="clip39"><path d="M753,1703 L766,1703 L766,1716 L753,1716 L753,1703 Z" /></clipPath>
<path d="M757,1709 L761,1709" style="fill:none;stroke:rgb(150,160,200)" clip-path="url(#clip39)" />
<clipPath id="clip40"><path d="M14,14 L1505,14 L1505,1697 L14,1697 L14,14 Z" /></clipPath>
<path d="M758.5664063,1667 L758.6328125,1654" style="fill:none;stroke:rgb(128,128,128)" clip-path="url(#clip40)" />
<clipPath id="clip41"><path d="M14,14 L1505,14 L1505,1697 L14,1697 L14,14 Z" /></clipPath>
<path d="M758.6328125,1654 L758.5664063,1654 L758.5664063,1645" style="fill:none;stroke:rgb(128,128,128)" clip-path="url(#clip41)" />
<clipPath id="clip42"><path d="M632,1665 L886,1665 L886,1697 L632,1697 L632,1665 Z" /></clipPath>
<path d="M634,1667 L883,1667 L883,1694 L634,1694 Z M634,1667" style="fill:rgb(240,240,240);stroke:none" clip-path="url(#clip42)" />
<clipPath id="clip43"><path d="M632,1665 L886,1665 L886,1697 L632,1697 L632,1665 Z" /></clipPath>
<path d="M634,1667 L883,1667 L883,1694 L634,1694 Z M634,1667" style="fill:none;stroke:rgb(128,128,128)" clip-path="url(#clip43)" />
<text x="640" y="1679" style="font:10px Ubuntu">TrueCrypt v6.3 2009-10-21</text>
<clipPath id="clip44"><path d="M753,1654 L766,1654 L766,1667 L753,1667 L753,1654 Z" /></clipPath>
<path d="M763.5,1660 C763.5,1657.515625 761.484375,1655.5 759,1655.5 C756.515625,1655.5 754.5,1657.515625 754.5,1660 C754.5,1662.484375 756.515625,1664.5 759,1664.5 C761.484375,1664.5 763.5,1662.484375 763.5,1660 Z M763.5,1660" style="fill:rgb(210,230,255);stroke:none" clip-path="url(#clip44)" />
<clipPath id="clip45"><path d="M753,1654 L766,1654 L766,1667 L753,1667 L753,1654 Z" /></clipPath>
<path d="M763.5,1660 C763.5,1657.515625 761.484375,1655.5 759,1655.5 C756.515625,1655.5 754.5,1657.515625 754.5,1660 C754.5,1662.484375 756.515625,1664.5 759,1664.5 C761.484375,1664.5 763.5,1662.484375 763.5,1660 Z M763.5,1660" style="fill:none;stroke:rgb(180,200,240)" clip-path="url(#clip45)" />
<clipPath id="clip46"><path d="M753,1654 L766,1654 L766,1667 L753,1667 L753,1654 Z" /></clipPath>
<path d="M757,1660 L761,1660" style="fill:none;stroke:rgb(150,160,200)" clip-path="url(#clip46)" />
<clipPath id="clip47"><path d="M14,14 L1505,14 L1505,1648 L14,1648 L14,14 Z" /></clipPath>
<path d="M758.5664063,1618 L758.6328125,1605" style="fill:none;stroke:rgb(128,128,128)" clip-path="url(#clip47)" />
<clipPath id="clip48"><path d="M14,14 L1505,14 L1505,1648 L14,1648 L14,14 Z" /></clipPath>
<path d="M758.6328125,1605 L758.5664063,1605 L758.5664063,1596" style="fill:none;stroke:rgb(128,128,128)" clip-path="url(#clip48)" />
<clipPath id="clip49"><path d="M627,1616 L891,1616 L891,1648 L627,1648 L627,1616 Z" /></clipPath>
<path d="M629,1618 L888,1618 L888,1645 L629,1645 Z M629,1618" style="fill:rgb(240,240,240);stroke:none" clip-path="url(#clip49)" />
<clipPath id="clip50"><path d="M627,1616 L891,1616 L891,1648 L627,1648 L627,1616 Z" /></clipPath>
<path d="M629,1618 L888,1618 L888,1645 L629,1645 Z M629,1618" style="fill:none;stroke:rgb(128,128,128)" clip-path="url(#clip50)" />
<text x="635" y="1630" style="font:10px Ubuntu">TrueCrypt v6.2a 2009-06-15</text>
<clipPath id="clip51"><path d="M753,1605 L766,1605 L766,1618 L753,1618 L753,1605 Z" /></clipPath>
<path d="M763.5,1611 C763.5,1608.515625 761.484375,1606.5 759,1606.5 C756.515625,1606.5 754.5,1608.515625 754.5,1611 C754.5,1613.484375 756.515625,1615.5 759,1615.5 C761.484375,1615.5 763.5,1613.484375 763.5,1611 Z M763.5,1611" style="fill:rgb(210,230,255);stroke:none" clip-path="url(#clip51)" />
<clipPath id="clip52"><path d="M753,1605 L766,1605 L766,1618 L753,1618 L753,1605 Z" /></clipPath>
<path d="M763.5,1611 C763.5,1608.515625 761.484375,1606.5 759,1606.5 C756.515625,1606.5 754.5,1608.515625 754.5,1611 C754.5,1613.484375 756.515625,1615.5 759,1615.5 C761.484375,1615.5 763.5,1613.484375 763.5,1611 Z M763.5,1611" style="fill:none;stroke:rgb(180,200,240)" clip-path="url(#clip52)" />
<clipPath id="clip53"><path d="M753,1605 L766,1605 L766,1618 L753,1618 L753,1605 Z" /></clipPath>
<path d="M757,1611 L761,1611" style="fill:none;stroke:rgb(150,160,200)" clip-path="url(#clip53)" />
<clipPath id="clip54"><path d="M14,14 L1505,14 L1505,1599 L14,1599 L14,14 Z" /></clipPath>
<path d="M758.5664063,1569 L758.6328125,1556" style="fill:none;stroke:rgb(128,128,128)" clip-path="url(#clip54)" />
<clipPath id="clip55"><path d="M14,14 L1505,14 L1505,1599 L14,1599 L14,14 Z" /></clipPath>
<path d="M758.6328125,1556 L758.5664063,1556 L758.5664063,1547" style="fill:none;stroke:rgb(128,128,128)" clip-path="url(#clip55)" />
<clipPath id="clip56"><path d="M632,1567 L886,1567 L886,1599 L632,1599 L632,1567 Z" /></clipPath>
<path d="M634,1569 L883,1569 L883,1596 L634,1596 Z M634,1569" style="fill:rgb(240,240,240);stroke:none" clip-path="url(#clip56)" />
<clipPath id="clip57"><path d="M632,1567 L886,1567 L886,1599 L632,1599 L632,1567 Z" /></clipPath>
<path d="M634,1569 L883,1569 L883,1596 L634,1596 Z M634,1569" style="fill:none;stroke:rgb(128,128,128)" clip-path="url(#clip57)" />
<text x="640" y="1581" style="font:10px Ubuntu">TrueCrypt v6.2 2009-05-11</text>
<clipPath id="clip58"><path d="M753,1556 L766,1556 L766,1569 L753,1569 L753,1556 Z" /></clipPath>
<path d="M763.5,1562 C763.5,1559.515625 761.484375,1557.5 759,1557.5 C756.515625,1557.5 754.5,1559.515625 754.5,1562 C754.5,1564.484375 756.515625,1566.5 759,1566.5 C761.484375,1566.5 763.5,1564.484375 763.5,1562 Z M763.5,1562" style="fill:rgb(210,230,255);stroke:none" clip-path="url(#clip58)" />
<clipPath id="clip59"><path d="M753,1556 L766,1556 L766,1569 L753,1569 L753,1556 Z" /></clipPath>
<path d="M763.5,1562 C763.5,1559.515625 761.484375,1557.5 759,1557.5 C756.515625,1557.5 754.5,1559.515625 754.5,1562 C754.5,1564.484375 756.515625,1566.5 759,1566.5 C761.484375,1566.5 763.5,1564.484375 763.5,1562 Z M763.5,1562" style="fill:none;stroke:rgb(180,200,240)" clip-path="url(#clip59)" />
<clipPath id="clip60"><path d="M753,1556 L766,1556 L766,1569 L753,1569 L753,1556 Z" /></clipPath>
<path d="M757,1562 L761,1562" style="fill:none;stroke:rgb(150,160,200)" clip-path="url(#clip60)" />
<clipPath id="clip61"><path d="M14,14 L1505,14 L1505,1550 L14,1550 L14,14 Z" /></clipPath>
<path d="M758.5664063,1520 L758.6328125,1507" style="fill:none;stroke:rgb(128,128,128)" clip-path="url(#clip61)" />
<clipPath id="clip62"><path d="M14,14 L1505,14 L1505,1550 L14,1550 L14,14 Z" /></clipPath>
<path d="M758.6328125,1507 L758.5664063,1507 L758.5664063,1498" style="fill:none;stroke:rgb(128,128,128)" clip-path="url(#clip62)" />
<clipPath id="clip63"><path d="M627,1518 L891,1518 L891,1550 L627,1550 L627,1518 Z" /></clipPath>
<path d="M629,1520 L888,1520 L888,1547 L629,1547 Z M629,1520" style="fill:rgb(240,240,240);stroke:none" clip-path="url(#clip63)" />
<clipPath id="clip64"><path d="M627,1518 L891,1518 L891,1550 L627,1550 L627,1518 Z" /></clipPath>
<path d="M629,1520 L888,1520 L888,1547 L629,1547 Z M629,1520" style="fill:none;stroke:rgb(128,128,128)" clip-path="url(#clip64)" />
<text x="635" y="1532" style="font:10px Ubuntu">TrueCrypt v6.1a 2008-12-01</text>
<clipPath id="clip65"><path d="M753,1507 L766,1507 L766,1520 L753,1520 L753,1507 Z" /></clipPath>
<path d="M763.5,1513 C763.5,1510.515625 761.484375,1508.5 759,1508.5 C756.515625,1508.5 754.5,1510.515625 754.5,1513 C754.5,1515.484375 756.515625,1517.5 759,1517.5 C761.484375,1517.5 763.5,1515.484375 763.5,1513 Z M763.5,1513" style="fill:rgb(210,230,255);stroke:none" clip-path="url(#clip65)" />
<clipPath id="clip66"><path d="M753,1507 L766,1507 L766,1520 L753,1520 L753,1507 Z" /></clipPath>
<path d="M763.5,1513 C763.5,1510.515625 761.484375,1508.5 759,1508.5 C756.515625,1508.5 754.5,1510.515625 754.5,1513 C754.5,1515.484375 756.515625,1517.5 759,1517.5 C761.484375,1517.5 763.5,1515.484375 763.5,1513 Z M763.5,1513" style="fill:none;stroke:rgb(180,200,240)" clip-path="url(#clip66)" />
<clipPath id="clip67"><path d="M753,1507 L766,1507 L766,1520 L753,1520 L753,1507 Z" /></clipPath>
<path d="M757,1513 L761,1513" style="fill:none;stroke:rgb(150,160,200)" clip-path="url(#clip67)" />
<clipPath id="clip68"><path d="M14,14 L1505,14 L1505,1501 L14,1501 L14,14 Z" /></clipPath>
<path d="M758.5664063,1471 L758.6328125,1458" style="fill:none;stroke:rgb(128,128,128)" clip-path="url(#clip68)" />
<clipPath id="clip69"><path d="M14,14 L1505,14 L1505,1501 L14,1501 L14,14 Z" /></clipPath>
<path d="M758.6328125,1458 L758.5664063,1458 L758.5664063,1449" style="fill:none;stroke:rgb(128,128,128)" clip-path="url(#clip69)" />
<clipPath id="clip70"><path d="M632,1469 L886,1469 L886,1501 L632,1501 L632,1469 Z" /></clipPath>
<path d="M634,1471 L883,1471 L883,1498 L634,1498 Z M634,1471" style="fill:rgb(240,240,240);stroke:none" clip-path="url(#clip70)" />
<clipPath id="clip71"><path d="M632,1469 L886,1469 L886,1501 L632,1501 L632,1469 Z" /></clipPath>
<path d="M634,1471 L883,1471 L883,1498 L634,1498 Z M634,1471" style="fill:none;stroke:rgb(128,128,128)" clip-path="url(#clip71)" />
<text x="640" y="1483" style="font:10px Ubuntu">TrueCrypt v6.1 2008-10-31</text>
<clipPath id="clip72"><path d="M753,1458 L766,1458 L766,1471 L753,1471 L753,1458 Z" /></clipPath>
<path d="M763.5,1464 C763.5,1461.515625 761.484375,1459.5 759,1459.5 C756.515625,1459.5 754.5,1461.515625 754.5,1464 C754.5,1466.484375 756.515625,1468.5 759,1468.5 C761.484375,1468.5 763.5,1466.484375 763.5,1464 Z M763.5,1464" style="fill:rgb(210,230,255);stroke:none" clip-path="url(#clip72)" />
<clipPath id="clip73"><path d="M753,1458 L766,1458 L766,1471 L753,1471 L753,1458 Z" /></clipPath>
<path d="M763.5,1464 C763.5,1461.515625 761.484375,1459.5 759,1459.5 C756.515625,1459.5 754.5,1461.515625 754.5,1464 C754.5,1466.484375 756.515625,1468.5 759,1468.5 C761.484375,1468.5 763.5,1466.484375 763.5,1464 Z M763.5,1464" style="fill:none;stroke:rgb(180,200,240)" clip-path="url(#clip73)" />
<clipPath id="clip74"><path d="M753,1458 L766,1458 L766,1471 L753,1471 L753,1458 Z" /></clipPath>
<path d="M757,1464 L761,1464" style="fill:none;stroke:rgb(150,160,200)" clip-path="url(#clip74)" />
<clipPath id="clip75"><path d="M14,14 L1505,14 L1505,1452 L14,1452 L14,14 Z" /></clipPath>
<path d="M758.5664063,1422 L758.6328125,1409" style="fill:none;stroke:rgb(128,128,128)" clip-path="url(#clip75)" />
<clipPath id="clip76"><path d="M14,14 L1505,14 L1505,1452 L14,1452 L14,14 Z" /></clipPath>
<path d="M758.6328125,1409 L758.5664063,1409 L758.5664063,1400" style="fill:none;stroke:rgb(128,128,128)" clip-path="url(#clip76)" />
<clipPath id="clip77"><path d="M627,1420 L891,1420 L891,1452 L627,1452 L627,1420 Z" /></clipPath>
<path d="M629,1422 L888,1422 L888,1449 L629,1449 Z M629,1422" style="fill:rgb(240,240,240);stroke:none" clip-path="url(#clip77)" />
<clipPath id="clip78"><path d="M627,1420 L891,1420 L891,1452 L627,1452 L627,1420 Z" /></clipPath>
<path d="M629,1422 L888,1422 L888,1449 L629,1449 Z M629,1422" style="fill:none;stroke:rgb(128,128,128)" clip-path="url(#clip78)" />
<text x="635" y="1434" style="font:10px Ubuntu">TrueCrypt v6.0a 2008-07-08</text>
<clipPath id="clip79"><path d="M753,1409 L766,1409 L766,1422 L753,1422 L753,1409 Z" /></clipPath>
<path d="M763.5,1415 C763.5,1412.515625 761.484375,1410.5 759,1410.5 C756.515625,1410.5 754.5,1412.515625 754.5,1415 C754.5,1417.484375 756.515625,1419.5 759,1419.5 C761.484375,1419.5 763.5,1417.484375 763.5,1415 Z M763.5,1415" style="fill:rgb(210,230,255);stroke:none" clip-path="url(#clip79)" />
<clipPath id="clip80"><path d="M753,1409 L766,1409 L766,1422 L753,1422 L753,1409 Z" /></clipPath>
<path d="M763.5,1415 C763.5,1412.515625 761.484375,1410.5 759,1410.5 C756.515625,1410.5 754.5,1412.515625 754.5,1415 C754.5,1417.484375 756.515625,1419.5 759,1419.5 C761.484375,1419.5 763.5,1417.484375 763.5,1415 Z M763.5,1415" style="fill:none;stroke:rgb(180,200,240)" clip-path="url(#clip80)" />
<clipPath id="clip81"><path d="M753,1409 L766,1409 L766,1422 L753,1422 L753,1409 Z" /></clipPath>
<path d="M757,1415 L761,1415" style="fill:none;stroke:rgb(150,160,200)" clip-path="url(#clip81)" />
<clipPath id="clip82"><path d="M14,14 L1505,14 L1505,1403 L14,1403 L14,14 Z" /></clipPath>
<path d="M758.5664063,1373 L758.6328125,1360" style="fill:none;stroke:rgb(128,128,128)" clip-path="url(#clip82)" />
<clipPath id="clip83"><path d="M14,14 L1505,14 L1505,1403 L14,1403 L14,14 Z" /></clipPath>
<path d="M758.6328125,1360 L758.5664063,1360 L758.5664063,1351" style="fill:none;stroke:rgb(128,128,128)" clip-path="url(#clip83)" />
<clipPath id="clip84"><path d="M632,1371 L886,1371 L886,1403 L632,1403 L632,1371 Z" /></clipPath>
<path d="M634,1373 L883,1373 L883,1400 L634,1400 Z M634,1373" style="fill:rgb(240,240,240);stroke:none" clip-path="url(#clip84)" />
<clipPath id="clip85"><path d="M632,1371 L886,1371 L886,1403 L632,1403 L632,1371 Z" /></clipPath>
<path d="M634,1373 L883,1373 L883,1400 L634,1400 Z M634,1373" style="fill:none;stroke:rgb(128,128,128)" clip-path="url(#clip85)" />
<text x="640" y="1385" style="font:10px Ubuntu">TrueCrypt v6.0 2008-07-04</text>
<clipPath id="clip86"><path d="M753,1360 L766,1360 L766,1373 L753,1373 L753,1360 Z" /></clipPath>
<path d="M763.5,1366 C763.5,1363.515625 761.484375,1361.5 759,1361.5 C756.515625,1361.5 754.5,1363.515625 754.5,1366 C754.5,1368.484375 756.515625,1370.5 759,1370.5 C761.484375,1370.5 763.5,1368.484375 763.5,1366 Z M763.5,1366" style="fill:rgb(210,230,255);stroke:none" clip-path="url(#clip86)" />
<clipPath id="clip87"><path d="M753,1360 L766,1360 L766,1373 L753,1373 L753,1360 Z" /></clipPath>
<path d="M763.5,1366 C763.5,1363.515625 761.484375,1361.5 759,1361.5 C756.515625,1361.5 754.5,1363.515625 754.5,1366 C754.5,1368.484375 756.515625,1370.5 759,1370.5 C761.484375,1370.5 763.5,1368.484375 763.5,1366 Z M763.5,1366" style="fill:none;stroke:rgb(180,200,240)" clip-path="url(#clip87)" />
<clipPath id="clip88"><path d="M753,1360 L766,1360 L766,1373 L753,1373 L753,1360 Z" /></clipPath>
<path d="M757,1366 L761,1366" style="fill:none;stroke:rgb(150,160,200)" clip-path="url(#clip88)" />
<clipPath id="clip89"><path d="M14,14 L1505,14 L1505,1354 L14,1354 L14,14 Z" /></clipPath>
<path d="M758.5664063,1324 L758.6328125,1311" style="fill:none;stroke:rgb(128,128,128)" clip-path="url(#clip89)" />
<clipPath id="clip90"><path d="M14,14 L1505,14 L1505,1354 L14,1354 L14,14 Z" /></clipPath>
<path d="M758.6328125,1311 L758.5664063,1311 L758.5664063,1302" style="fill:none;stroke:rgb(128,128,128)" clip-path="url(#clip90)" />
<clipPath id="clip91"><path d="M627,1322 L891,1322 L891,1354 L627,1354 L627,1322 Z" /></clipPath>
<path d="M629,1324 L888,1324 L888,1351 L629,1351 Z M629,1324" style="fill:rgb(240,240,240);stroke:none" clip-path="url(#clip91)" />
<clipPath id="clip92"><path d="M627,1322 L891,1322 L891,1354 L627,1354 L627,1322 Z" /></clipPath>
<path d="M629,1324 L888,1324 L888,1351 L629,1351 Z M629,1324" style="fill:none;stroke:rgb(128,128,128)" clip-path="url(#clip92)" />
<text x="635" y="1336" style="font:10px Ubuntu">TrueCrypt v5.1a 2008-03-16</text>
<clipPath id="clip93"><path d="M753,1311 L766,1311 L766,1324 L753,1324 L753,1311 Z" /></clipPath>
<path d="M763.5,1317 C763.5,1314.515625 761.484375,1312.5 759,1312.5 C756.515625,1312.5 754.5,1314.515625 754.5,1317 C754.5,1319.484375 756.515625,1321.5 759,1321.5 C761.484375,1321.5 763.5,1319.484375 763.5,1317 Z M763.5,1317" style="fill:rgb(210,230,255);stroke:none" clip-path="url(#clip93)" />
<clipPath id="clip94"><path d="M753,1311 L766,1311 L766,1324 L753,1324 L753,1311 Z" /></clipPath>
<path d="M763.5,1317 C763.5,1314.515625 761.484375,1312.5 759,1312.5 C756.515625,1312.5 754.5,1314.515625 754.5,1317 C754.5,1319.484375 756.515625,1321.5 759,1321.5 C761.484375,1321.5 763.5,1319.484375 763.5,1317 Z M763.5,1317" style="fill:none;stroke:rgb(180,200,240)" clip-path="url(#clip94)" />
<clipPath id="clip95"><path d="M753,1311 L766,1311 L766,1324 L753,1324 L753,1311 Z" /></clipPath>
<path d="M757,1317 L761,1317" style="fill:none;stroke:rgb(150,160,200)" clip-path="url(#clip95)" />
<clipPath id="clip96"><path d="M14,14 L1505,14 L1505,1305 L14,1305 L14,14 Z" /></clipPath>
<path d="M758.5664063,1275 L758.6328125,1262" style="fill:none;stroke:rgb(128,128,128)" clip-path="url(#clip96)" />
<clipPath id="clip97"><path d="M14,14 L1505,14 L1505,1305 L14,1305 L14,14 Z" /></clipPath>
<path d="M758.6328125,1262 L758.5664063,1262 L758.5664063,1253" style="fill:none;stroke:rgb(128,128,128)" clip-path="url(#clip97)" />
<clipPath id="clip98"><path d="M632,1273 L886,1273 L886,1305 L632,1305 L632,1273 Z" /></clipPath>
<path d="M634,1275 L883,1275 L883,1302 L634,1302 Z M634,1275" style="fill:rgb(240,240,240);stroke:none" clip-path="url(#clip98)" />
<clipPath id="clip99"><path d="M632,1273 L886,1273 L886,1305 L632,1305 L632,1273 Z" /></clipPath>
<path d="M634,1275 L883,1275 L883,1302 L634,1302 Z M634,1275" style="fill:none;stroke:rgb(128,128,128)" clip-path="url(#clip99)" />
<text x="640" y="1287" style="font:10px Ubuntu">TrueCrypt v5.1 2008-03-10</text>
<clipPath id="clip100"><path d="M753,1262 L766,1262 L766,1275 L753,1275 L753,1262 Z" /></clipPath>
<path d="M763.5,1268 C763.5,1265.515625 761.484375,1263.5 759,1263.5 C756.515625,1263.5 754.5,1265.515625 754.5,1268 C754.5,1270.484375 756.515625,1272.5 759,1272.5 C761.484375,1272.5 763.5,1270.484375 763.5,1268 Z M763.5,1268" style="fill:rgb(210,230,255);stroke:none" clip-path="url(#clip100)" />
<clipPath id="clip101"><path d="M753,1262 L766,1262 L766,1275 L753,1275 L753,1262 Z" /></clipPath>
<path d="M763.5,1268 C763.5,1265.515625 761.484375,1263.5 759,1263.5 C756.515625,1263.5 754.5,1265.515625 754.5,1268 C754.5,1270.484375 756.515625,1272.5 759,1272.5 C761.484375,1272.5 763.5,1270.484375 763.5,1268 Z M763.5,1268" style="fill:none;stroke:rgb(180,200,240)" clip-path="url(#clip101)" />
<clipPath id="clip102"><path d="M753,1262 L766,1262 L766,1275 L753,1275 L753,1262 Z" /></clipPath>
<path d="M757,1268 L761,1268" style="fill:none;stroke:rgb(150,160,200)" clip-path="url(#clip102)" />
<clipPath id="clip103"><path d="M14,14 L1505,14 L1505,1256 L14,1256 L14,14 Z" /></clipPath>
<path d="M758.5664063,1226 L758.6328125,1213" style="fill:none;stroke:rgb(128,128,128)" clip-path="url(#clip103)" />
<clipPath id="clip104"><path d="M14,14 L1505,14 L1505,1256 L14,1256 L14,14 Z" /></clipPath>
<path d="M758.6328125,1213 L758.5664063,1213 L758.5664063,1204" style="fill:none;stroke:rgb(128,128,128)" clip-path="url(#clip104)" />
<clipPath id="clip105"><path d="M627,1224 L891,1224 L891,1256 L627,1256 L627,1224 Z" /></clipPath>
<path d="M629,1226 L888,1226 L888,1253 L629,1253 Z M629,1226" style="fill:rgb(240,240,240);stroke:none" clip-path="url(#clip105)" />
<clipPath id="clip106"><path d="M627,1224 L891,1224 L891,1256 L627,1256 L627,1224 Z" /></clipPath>
<path d="M629,1226 L888,1226 L888,1253 L629,1253 Z M629,1226" style="fill:none;stroke:rgb(128,128,128)" clip-path="url(#clip106)" />
<text x="635" y="1238" style="font:10px Ubuntu">TrueCrypt v5.0a 2008-02-12</text>
<clipPath id="clip107"><path d="M753,1213 L766,1213 L766,1226 L753,1226 L753,1213 Z" /></clipPath>
<path d="M763.5,1219 C763.5,1216.515625 761.484375,1214.5 759,1214.5 C756.515625,1214.5 754.5,1216.515625 754.5,1219 C754.5,1221.484375 756.515625,1223.5 759,1223.5 C761.484375,1223.5 763.5,1221.484375 763.5,1219 Z M763.5,1219" style="fill:rgb(210,230,255);stroke:none" clip-path="url(#clip107)" />
<clipPath id="clip108"><path d="M753,1213 L766,1213 L766,1226 L753,1226 L753,1213 Z" /></clipPath>
<path d="M763.5,1219 C763.5,1216.515625 761.484375,1214.5 759,1214.5 C756.515625,1214.5 754.5,1216.515625 754.5,1219 C754.5,1221.484375 756.515625,1223.5 759,1223.5 C761.484375,1223.5 763.5,1221.484375 763.5,1219 Z M763.5,1219" style="fill:none;stroke:rgb(180,200,240)" clip-path="url(#clip108)" />
<clipPath id="clip109"><path d="M753,1213 L766,1213 L766,1226 L753,1226 L753,1213 Z" /></clipPath>
<path d="M757,1219 L761,1219" style="fill:none;stroke:rgb(150,160,200)" clip-path="url(#clip109)" />
<clipPath id="clip110"><path d="M14,14 L1505,14 L1505,1207 L14,1207 L14,14 Z" /></clipPath>
<path d="M758.5664063,1177 L758.6328125,1164" style="fill:none;stroke:rgb(128,128,128)" clip-path="url(#clip110)" />
<clipPath id="clip111"><path d="M14,14 L1505,14 L1505,1207 L14,1207 L14,14 Z" /></clipPath>
<path d="M758.6328125,1164 L758.5664063,1164 L758.5664063,1155" style="fill:none;stroke:rgb(128,128,128)" clip-path="url(#clip111)" />
<clipPath id="clip112"><path d="M632,1175 L886,1175 L886,1207 L632,1207 L632,1175 Z" /></clipPath>
<path d="M634,1177 L883,1177 L883,1204 L634,1204 Z M634,1177" style="fill:rgb(240,240,240);stroke:none" clip-path="url(#clip112)" />
<clipPath id="clip113"><path d="M632,1175 L886,1175 L886,1207 L632,1207 L632,1175 Z" /></clipPath>
<path d="M634,1177 L883,1177 L883,1204 L634,1204 Z M634,1177" style="fill:none;stroke:rgb(128,128,128)" clip-path="url(#clip113)" />
<text x="640" y="1189" style="font:10px Ubuntu">TrueCrypt v5.0 2008-02-05</text>
<clipPath id="clip114"><path d="M753,1164 L766,1164 L766,1177 L753,1177 L753,1164 Z" /></clipPath>
<path d="M763.5,1170 C763.5,1167.515625 761.484375,1165.5 759,1165.5 C756.515625,1165.5 754.5,1167.515625 754.5,1170 C754.5,1172.484375 756.515625,1174.5 759,1174.5 C761.484375,1174.5 763.5,1172.484375 763.5,1170 Z M763.5,1170" style="fill:rgb(210,230,255);stroke:none" clip-path="url(#clip114)" />
<clipPath id="clip115"><path d="M753,1164 L766,1164 L766,1177 L753,1177 L753,1164 Z" /></clipPath>
<path d="M763.5,1170 C763.5,1167.515625 761.484375,1165.5 759,1165.5 C756.515625,1165.5 754.5,1167.515625 754.5,1170 C754.5,1172.484375 756.515625,1174.5 759,1174.5 C761.484375,1174.5 763.5,1172.484375 763.5,1170 Z M763.5,1170" style="fill:none;stroke:rgb(180,200,240)" clip-path="url(#clip115)" />
<clipPath id="clip116"><path d="M753,1164 L766,1164 L766,1177 L753,1177 L753,1164 Z" /></clipPath>
<path d="M757,1170 L761,1170" style="fill:none;stroke:rgb(150,160,200)" clip-path="url(#clip116)" />
<clipPath id="clip117"><path d="M14,14 L1505,14 L1505,1158 L14,1158 L14,14 Z" /></clipPath>
<path d="M758.5664063,1128 L758.6328125,1115" style="fill:none;stroke:rgb(128,128,128)" clip-path="url(#clip117)" />
<clipPath id="clip118"><path d="M14,14 L1505,14 L1505,1158 L14,1158 L14,14 Z" /></clipPath>
<path d="M758.6328125,1115 L758.5664063,1115 L758.5664063,1106" style="fill:none;stroke:rgb(128,128,128)" clip-path="url(#clip118)" />
<clipPath id="clip119"><path d="M627,1126 L891,1126 L891,1158 L627,1158 L627,1126 Z" /></clipPath>
<path d="M629,1128 L888,1128 L888,1155 L629,1155 Z M629,1128" style="fill:rgb(240,240,240);stroke:none" clip-path="url(#clip119)" />
<clipPath id="clip120"><path d="M627,1126 L891,1126 L891,1158 L627,1158 L627,1126 Z" /></clipPath>
<path d="M629,1128 L888,1128 L888,1155 L629,1155 Z M629,1128" style="fill:none;stroke:rgb(128,128,128)" clip-path="url(#clip120)" />
<text x="635" y="1140" style="font:10px Ubuntu">TrueCrypt v4.3a 2007-05-03</text>
<clipPath id="clip121"><path d="M753,1115 L766,1115 L766,1128 L753,1128 L753,1115 Z" /></clipPath>
<path d="M763.5,1121 C763.5,1118.515625 761.484375,1116.5 759,1116.5 C756.515625,1116.5 754.5,1118.515625 754.5,1121 C754.5,1123.484375 756.515625,1125.5 759,1125.5 C761.484375,1125.5 763.5,1123.484375 763.5,1121 Z M763.5,1121" style="fill:rgb(210,230,255);stroke:none" clip-path="url(#clip121)" />
<clipPath id="clip122"><path d="M753,1115 L766,1115 L766,1128 L753,1128 L753,1115 Z" /></clipPath>
<path d="M763.5,1121 C763.5,1118.515625 761.484375,1116.5 759,1116.5 C756.515625,1116.5 754.5,1118.515625 754.5,1121 C754.5,1123.484375 756.515625,1125.5 759,1125.5 C761.484375,1125.5 763.5,1123.484375 763.5,1121 Z M763.5,1121" style="fill:none;stroke:rgb(180,200,240)" clip-path="url(#clip122)" />
<clipPath id="clip123"><path d="M753,1115 L766,1115 L766,1128 L753,1128 L753,1115 Z" /></clipPath>
<path d="M757,1121 L761,1121" style="fill:none;stroke:rgb(150,160,200)" clip-path="url(#clip123)" />
<clipPath id="clip124"><path d="M14,14 L1505,14 L1505,1109 L14,1109 L14,14 Z" /></clipPath>
<path d="M758.5664063,1079 L758.6328125,1066" style="fill:none;stroke:rgb(128,128,128)" clip-path="url(#clip124)" />
<clipPath id="clip125"><path d="M14,14 L1505,14 L1505,1109 L14,1109 L14,14 Z" /></clipPath>
<path d="M758.6328125,1066 L758.5664063,1066 L758.5664063,1057" style="fill:none;stroke:rgb(128,128,128)" clip-path="url(#clip125)" />
<clipPath id="clip126"><path d="M632,1077 L886,1077 L886,1109 L632,1109 L632,1077 Z" /></clipPath>
<path d="M634,1079 L883,1079 L883,1106 L634,1106 Z M634,1079" style="fill:rgb(240,240,240);stroke:none" clip-path="url(#clip126)" />
<clipPath id="clip127"><path d="M632,1077 L886,1077 L886,1109 L632,1109 L632,1077 Z" /></clipPath>
<path d="M634,1079 L883,1079 L883,1106 L634,1106 Z M634,1079" style="fill:none;stroke:rgb(128,128,128)" clip-path="url(#clip127)" />
<text x="640" y="1091" style="font:10px Ubuntu">TrueCrypt v4.3 2007-03-19</text>
<clipPath id="clip128"><path d="M753,1066 L766,1066 L766,1079 L753,1079 L753,1066 Z" /></clipPath>
<path d="M763.5,1072 C763.5,1069.515625 761.484375,1067.5 759,1067.5 C756.515625,1067.5 754.5,1069.515625 754.5,1072 C754.5,1074.484375 756.515625,1076.5 759,1076.5 C761.484375,1076.5 763.5,1074.484375 763.5,1072 Z M763.5,1072" style="fill:rgb(210,230,255);stroke:none" clip-path="url(#clip128)" />
<clipPath id="clip129"><path d="M753,1066 L766,1066 L766,1079 L753,1079 L753,1066 Z" /></clipPath>
<path d="M763.5,1072 C763.5,1069.515625 761.484375,1067.5 759,1067.5 C756.515625,1067.5 754.5,1069.515625 754.5,1072 C754.5,1074.484375 756.515625,1076.5 759,1076.5 C761.484375,1076.5 763.5,1074.484375 763.5,1072 Z M763.5,1072" style="fill:none;stroke:rgb(180,200,240)" clip-path="url(#clip129)" />
<clipPath id="clip130"><path d="M753,1066 L766,1066 L766,1079 L753,1079 L753,1066 Z" /></clipPath>
<path d="M757,1072 L761,1072" style="fill:none;stroke:rgb(150,160,200)" clip-path="url(#clip130)" />
<clipPath id="clip131"><path d="M14,14 L1505,14 L1505,1060 L14,1060 L14,14 Z" /></clipPath>
<path d="M758.5664063,1030 L758.6328125,1017" style="fill:none;stroke:rgb(128,128,128)" clip-path="url(#clip131)" />
<clipPath id="clip132"><path d="M14,14 L1505,14 L1505,1060 L14,1060 L14,14 Z" /></clipPath>
<path d="M758.6328125,1017 L758.5664063,1017 L758.5664063,1008" style="fill:none;stroke:rgb(128,128,128)" clip-path="url(#clip132)" />
<clipPath id="clip133"><path d="M627,1028 L891,1028 L891,1060 L627,1060 L627,1028 Z" /></clipPath>
<path d="M629,1030 L888,1030 L888,1057 L629,1057 Z M629,1030" style="fill:rgb(240,240,240);stroke:none" clip-path="url(#clip133)" />
<clipPath id="clip134"><path d="M627,1028 L891,1028 L891,1060 L627,1060 L627,1028 Z" /></clipPath>
<path d="M629,1030 L888,1030 L888,1057 L629,1057 Z M629,1030" style="fill:none;stroke:rgb(128,128,128)" clip-path="url(#clip134)" />
<text x="635" y="1042" style="font:10px Ubuntu">TrueCrypt v4.2a 2006-07-03</text>
<clipPath id="clip135"><path d="M753,1017 L766,1017 L766,1030 L753,1030 L753,1017 Z" /></clipPath>
<path d="M763.5,1023 C763.5,1020.515625 761.484375,1018.5 759,1018.5 C756.515625,1018.5 754.5,1020.515625 754.5,1023 C754.5,1025.484375 756.515625,1027.5 759,1027.5 C761.484375,1027.5 763.5,1025.484375 763.5,1023 Z M763.5,1023" style="fill:rgb(210,230,255);stroke:none" clip-path="url(#clip135)" />
<clipPath id="clip136"><path d="M753,1017 L766,1017 L766,1030 L753,1030 L753,1017 Z" /></clipPath>
<path d="M763.5,1023 C763.5,1020.515625 761.484375,1018.5 759,1018.5 C756.515625,1018.5 754.5,1020.515625 754.5,1023 C754.5,1025.484375 756.515625,1027.5 759,1027.5 C761.484375,1027.5 763.5,1025.484375 763.5,1023 Z M763.5,1023" style="fill:none;stroke:rgb(180,200,240)" clip-path="url(#clip136)" />
<clipPath id="clip137"><path d="M753,1017 L766,1017 L766,1030 L753,1030 L753,1017 Z" /></clipPath>
<path d="M757,1023 L761,1023" style="fill:none;stroke:rgb(150,160,200)" clip-path="url(#clip137)" />
<clipPath id="clip138"><path d="M14,14 L1505,14 L1505,1011 L14,1011 L14,14 Z" /></clipPath>
<path d="M758.5664063,981 L758.6328125,968" style="fill:none;stroke:rgb(128,128,128)" clip-path="url(#clip138)" />
<clipPath id="clip139"><path d="M14,14 L1505,14 L1505,1011 L14,1011 L14,14 Z" /></clipPath>
<path d="M758.6328125,968 L758.5664063,968 L758.5664063,959" style="fill:none;stroke:rgb(128,128,128)" clip-path="url(#clip139)" />
<clipPath id="clip140"><path d="M632,979 L886,979 L886,1011 L632,1011 L632,979 Z" /></clipPath>
<path d="M634,981 L883,981 L883,1008 L634,1008 Z M634,981" style="fill:rgb(240,240,240);stroke:none" clip-path="url(#clip140)" />
<clipPath id="clip141"><path d="M632,979 L886,979 L886,1011 L632,1011 L632,979 Z" /></clipPath>
<path d="M634,981 L883,981 L883,1008 L634,1008 Z M634,981" style="fill:none;stroke:rgb(128,128,128)" clip-path="url(#clip141)" />
<text x="640" y="993" style="font:10px Ubuntu">TrueCrypt v4.2 2006-04-17</text>
<clipPath id="clip142"><path d="M753,968 L766,968 L766,981 L753,981 L753,968 Z" /></clipPath>
<path d="M763.5,974 C763.5,971.515625 761.484375,969.5 759,969.5 C756.515625,969.5 754.5,971.515625 754.5,974 C754.5,976.484375 756.515625,978.5 759,978.5 C761.484375,978.5 763.5,976.484375 763.5,974 Z M763.5,974" style="fill:rgb(210,230,255);stroke:none" clip-path="url(#clip142)" />
<clipPath id="clip143"><path d="M753,968 L766,968 L766,981 L753,981 L753,968 Z" /></clipPath>
<path d="M763.5,974 C763.5,971.515625 761.484375,969.5 759,969.5 C756.515625,969.5 754.5,971.515625 754.5,974 C754.5,976.484375 756.515625,978.5 759,978.5 C761.484375,978.5 763.5,976.484375 763.5,974 Z M763.5,974" style="fill:none;stroke:rgb(180,200,240)" clip-path="url(#clip143)" />
<clipPath id="clip144"><path d="M753,968 L766,968 L766,981 L753,981 L753,968 Z" /></clipPath>
<path d="M757,974 L761,974" style="fill:none;stroke:rgb(150,160,200)" clip-path="url(#clip144)" />
<clipPath id="clip145"><path d="M14,14 L1505,14 L1505,962 L14,962 L14,14 Z" /></clipPath>
<path d="M758.5664063,932 L758.6328125,919" style="fill:none;stroke:rgb(128,128,128)" clip-path="url(#clip145)" />
<clipPath id="clip146"><path d="M14,14 L1505,14 L1505,962 L14,962 L14,14 Z" /></clipPath>
<path d="M758.6328125,919 L758.5664063,919 L758.5664063,910" style="fill:none;stroke:rgb(128,128,128)" clip-path="url(#clip146)" />
<clipPath id="clip147"><path d="M632,930 L886,930 L886,962 L632,962 L632,930 Z" /></clipPath>
<path d="M634,932 L883,932 L883,959 L634,959 Z M634,932" style="fill:rgb(240,240,240);stroke:none" clip-path="url(#clip147)" />
<clipPath id="clip148"><path d="M632,930 L886,930 L886,962 L632,962 L632,930 Z" /></clipPath>
<path d="M634,932 L883,932 L883,959 L634,959 Z M634,932" style="fill:none;stroke:rgb(128,128,128)" clip-path="url(#clip148)" />
<text x="640" y="944" style="font:10px Ubuntu">TrueCrypt v4.1 2005-11-25</text>
<clipPath id="clip149"><path d="M753,919 L766,919 L766,932 L753,932 L753,919 Z" /></clipPath>
<path d="M763.5,925 C763.5,922.515625 761.484375,920.5 759,920.5 C756.515625,920.5 754.5,922.515625 754.5,925 C754.5,927.484375 756.515625,929.5 759,929.5 C761.484375,929.5 763.5,927.484375 763.5,925 Z M763.5,925" style="fill:rgb(210,230,255);stroke:none" clip-path="url(#clip149)" />
<clipPath id="clip150"><path d="M753,919 L766,919 L766,932 L753,932 L753,919 Z" /></clipPath>
<path d="M763.5,925 C763.5,922.515625 761.484375,920.5 759,920.5 C756.515625,920.5 754.5,922.515625 754.5,925 C754.5,927.484375 756.515625,929.5 759,929.5 C761.484375,929.5 763.5,927.484375 763.5,925 Z M763.5,925" style="fill:none;stroke:rgb(180,200,240)" clip-path="url(#clip150)" />
<clipPath id="clip151"><path d="M753,919 L766,919 L766,932 L753,932 L753,919 Z" /></clipPath>
<path d="M757,925 L761,925" style="fill:none;stroke:rgb(150,160,200)" clip-path="url(#clip151)" />
<clipPath id="clip152"><path d="M14,14 L1505,14 L1505,913 L14,913 L14,14 Z" /></clipPath>
<path d="M758.5664063,883 L758.6328125,870" style="fill:none;stroke:rgb(128,128,128)" clip-path="url(#clip152)" />
<clipPath id="clip153"><path d="M14,14 L1505,14 L1505,913 L14,913 L14,14 Z" /></clipPath>
<path d="M758.6328125,870 L758.5664063,870 L758.5664063,861" style="fill:none;stroke:rgb(128,128,128)" clip-path="url(#clip153)" />
<clipPath id="clip154"><path d="M632,881 L886,881 L886,913 L632,913 L632,881 Z" /></clipPath>
<path d="M634,883 L883,883 L883,910 L634,910 Z M634,883" style="fill:rgb(240,240,240);stroke:none" clip-path="url(#clip154)" />
<clipPath id="clip155"><path d="M632,881 L886,881 L886,913 L632,913 L632,881 Z" /></clipPath>
<path d="M634,883 L883,883 L883,910 L634,910 Z M634,883" style="fill:none;stroke:rgb(128,128,128)" clip-path="url(#clip155)" />
<text x="640" y="895" style="font:10px Ubuntu">TrueCrypt v4.0 2005-11-01</text>
<clipPath id="clip156"><path d="M753,870 L766,870 L766,883 L753,883 L753,870 Z" /></clipPath>
<path d="M763.5,876 C763.5,873.515625 761.484375,871.5 759,871.5 C756.515625,871.5 754.5,873.515625 754.5,876 C754.5,878.484375 756.515625,880.5 759,880.5 C761.484375,880.5 763.5,878.484375 763.5,876 Z M763.5,876" style="fill:rgb(210,230,255);stroke:none" clip-path="url(#clip156)" />
<clipPath id="clip157"><path d="M753,870 L766,870 L766,883 L753,883 L753,870 Z" /></clipPath>
<path d="M763.5,876 C763.5,873.515625 761.484375,871.5 759,871.5 C756.515625,871.5 754.5,873.515625 754.5,876 C754.5,878.484375 756.515625,880.5 759,880.5 C761.484375,880.5 763.5,878.484375 763.5,876 Z M763.5,876" style="fill:none;stroke:rgb(180,200,240)" clip-path="url(#clip157)" />
<clipPath id="clip158"><path d="M753,870 L766,870 L766,883 L753,883 L753,870 Z" /></clipPath>
<path d="M757,876 L761,876" style="fill:none;stroke:rgb(150,160,200)" clip-path="url(#clip158)" />
<clipPath id="clip159"><path d="M14,14 L1505,14 L1505,864 L14,864 L14,14 Z" /></clipPath>
<path d="M758.5664063,834 L758.6328125,821" style="fill:none;stroke:rgb(128,128,128)" clip-path="url(#clip159)" />
<clipPath id="clip160"><path d="M14,14 L1505,14 L1505,864 L14,864 L14,14 Z" /></clipPath>
<path d="M758.6328125,821 L758.5664063,821 L758.5664063,812" style="fill:none;stroke:rgb(128,128,128)" clip-path="url(#clip160)" />
<clipPath id="clip161"><path d="M627,832 L891,832 L891,864 L627,864 L627,832 Z" /></clipPath>
<path d="M629,834 L888,834 L888,861 L629,861 Z M629,834" style="fill:rgb(240,240,240);stroke:none" clip-path="url(#clip161)" />
<clipPath id="clip162"><path d="M627,832 L891,832 L891,864 L627,864 L627,832 Z" /></clipPath>
<path d="M629,834 L888,834 L888,861 L629,861 Z M629,834" style="fill:none;stroke:rgb(128,128,128)" clip-path="url(#clip162)" />
<text x="635" y="846" style="font:10px Ubuntu">TrueCrypt v3.1a 2005-02-07</text>
<clipPath id="clip163"><path d="M753,821 L766,821 L766,834 L753,834 L753,821 Z" /></clipPath>
<path d="M763.5,827 C763.5,824.515625 761.484375,822.5 759,822.5 C756.515625,822.5 754.5,824.515625 754.5,827 C754.5,829.484375 756.515625,831.5 759,831.5 C761.484375,831.5 763.5,829.484375 763.5,827 Z M763.5,827" style="fill:rgb(210,230,255);stroke:none" clip-path="url(#clip163)" />
<clipPath id="clip164"><path d="M753,821 L766,821 L766,834 L753,834 L753,821 Z" /></clipPath>
<path d="M763.5,827 C763.5,824.515625 761.484375,822.5 759,822.5 C756.515625,822.5 754.5,824.515625 754.5,827 C754.5,829.484375 756.515625,831.5 759,831.5 C761.484375,831.5 763.5,829.484375 763.5,827 Z M763.5,827" style="fill:none;stroke:rgb(180,200,240)" clip-path="url(#clip164)" />
<clipPath id="clip165"><path d="M753,821 L766,821 L766,834 L753,834 L753,821 Z" /></clipPath>
<path d="M757,827 L761,827" style="fill:none;stroke:rgb(150,160,200)" clip-path="url(#clip165)" />
<clipPath id="clip166"><path d="M14,14 L1505,14 L1505,815 L14,815 L14,14 Z" /></clipPath>
<path d="M758.5664063,785 L758.6328125,772" style="fill:none;stroke:rgb(128,128,128)" clip-path="url(#clip166)" />
<clipPath id="clip167"><path d="M14,14 L1505,14 L1505,815 L14,815 L14,14 Z" /></clipPath>
<path d="M758.6328125,772 L758.5664063,772 L758.5664063,763" style="fill:none;stroke:rgb(128,128,128)" clip-path="url(#clip167)" />
<clipPath id="clip168"><path d="M632,783 L886,783 L886,815 L632,815 L632,783 Z" /></clipPath>
<path d="M634,785 L883,785 L883,812 L634,812 Z M634,785" style="fill:rgb(240,240,240);stroke:none" clip-path="url(#clip168)" />
<clipPath id="clip169"><path d="M632,783 L886,783 L886,815 L632,815 L632,783 Z" /></clipPath>
<path d="M634,785 L883,785 L883,812 L634,812 Z M634,785" style="fill:none;stroke:rgb(128,128,128)" clip-path="url(#clip169)" />
<text x="640" y="797" style="font:10px Ubuntu">TrueCrypt v3.1 2005-01-22</text>
<clipPath id="clip170"><path d="M753,772 L766,772 L766,785 L753,785 L753,772 Z" /></clipPath>
<path d="M763.5,778 C763.5,775.515625 761.484375,773.5 759,773.5 C756.515625,773.5 754.5,775.515625 754.5,778 C754.5,780.484375 756.515625,782.5 759,782.5 C761.484375,782.5 763.5,780.484375 763.5,778 Z M763.5,778" style="fill:rgb(210,230,255);stroke:none" clip-path="url(#clip170)" />
<clipPath id="clip171"><path d="M753,772 L766,772 L766,785 L753,785 L753,772 Z" /></clipPath>
<path d="M763.5,778 C763.5,775.515625 761.484375,773.5 759,773.5 C756.515625,773.5 754.5,775.515625 754.5,778 C754.5,780.484375 756.515625,782.5 759,782.5 C761.484375,782.5 763.5,780.484375 763.5,778 Z M763.5,778" style="fill:none;stroke:rgb(180,200,240)" clip-path="url(#clip171)" />
<clipPath id="clip172"><path d="M753,772 L766,772 L766,785 L753,785 L753,772 Z" /></clipPath>
<path d="M757,778 L761,778" style="fill:none;stroke:rgb(150,160,200)" clip-path="url(#clip172)" />
<clipPath id="clip173"><path d="M14,14 L1505,14 L1505,766 L14,766 L14,14 Z" /></clipPath>
<path d="M758.5664063,736 L758.6328125,723" style="fill:none;stroke:rgb(128,128,128)" clip-path="url(#clip173)" />
<clipPath id="clip174"><path d="M14,14 L1505,14 L1505,766 L14,766 L14,14 Z" /></clipPath>
<path d="M758.6328125,723 L746.5664063,723 L746.5664063,714" style="fill:none;stroke:rgb(128,128,128)" clip-path="url(#clip174)" />
<clipPath id="clip175"><path d="M627,734 L891,734 L891,766 L627,766 L627,734 Z" /></clipPath>
<path d="M629,736 L888,736 L888,763 L629,763 Z M629,736" style="fill:rgb(240,240,240);stroke:none" clip-path="url(#clip175)" />
<clipPath id="clip176"><path d="M627,734 L891,734 L891,766 L627,766 L627,734 Z" /></clipPath>
<path d="M629,736 L888,736 L888,763 L629,763 Z M629,736" style="fill:none;stroke:rgb(128,128,128)" clip-path="url(#clip176)" />
<text x="635" y="748" style="font:10px Ubuntu">TrueCrypt v3.0a 2004-12-11</text>
<clipPath id="clip177"><path d="M753,723 L766,723 L766,736 L753,736 L753,723 Z" /></clipPath>
<path d="M763.5,729 C763.5,726.515625 761.484375,724.5 759,724.5 C756.515625,724.5 754.5,726.515625 754.5,729 C754.5,731.484375 756.515625,733.5 759,733.5 C761.484375,733.5 763.5,731.484375 763.5,729 Z M763.5,729" style="fill:rgb(210,230,255);stroke:none" clip-path="url(#clip177)" />
<clipPath id="clip178"><path d="M753,723 L766,723 L766,736 L753,736 L753,723 Z" /></clipPath>
<path d="M763.5,729 C763.5,726.515625 761.484375,724.5 759,724.5 C756.515625,724.5 754.5,726.515625 754.5,729 C754.5,731.484375 756.515625,733.5 759,733.5 C761.484375,733.5 763.5,731.484375 763.5,729 Z M763.5,729" style="fill:none;stroke:rgb(180,200,240)" clip-path="url(#clip178)" />
<clipPath id="clip179"><path d="M753,723 L766,723 L766,736 L753,736 L753,723 Z" /></clipPath>
<path d="M757,729 L761,729" style="fill:none;stroke:rgb(150,160,200)" clip-path="url(#clip179)" />
<clipPath id="clip180"><path d="M14,14 L1505,14 L1505,717 L14,717 L14,14 Z" /></clipPath>
<path d="M746.5664063,687 L746.6328125,674" style="fill:none;stroke:rgb(128,128,128)" clip-path="url(#clip180)" />
<clipPath id="clip181"><path d="M14,14 L1505,14 L1505,717 L14,717 L14,14 Z" /></clipPath>
<path d="M746.6328125,674 L530.5664063,674 L530.5664063,665" style="fill:none;stroke:rgb(128,128,128)" clip-path="url(#clip181)" />
<clipPath id="clip182"><path d="M14,14 L1505,14 L1505,717 L14,717 L14,14 Z" /></clipPath>
<path d="M746.6328125,674 L1169,674 L1169,635" style="fill:none;stroke:rgb(128,128,128)" clip-path="url(#clip182)" />
<clipPath id="clip183"><path d="M14,14 L1505,14 L1505,717 L14,717 L14,14 Z" /></clipPath>
<path d="M746.6328125,674 L1385,674 L1385,635" style="fill:none;stroke:rgb(128,128,128)" clip-path="url(#clip183)" />
<clipPath id="clip184"><path d="M1344,553 L1505,553 L1505,585 L1344,585 L1344,553 Z" /></clipPath>
<path d="M1055,569 C1055,564.5820313 1058.5820313,561 1063,561 L1493,561 C1497.4179688,561 1501,564.5820313 1501,569 L1501,636 C1501,640.4179688 1497.4179688,644 1493,644 L1063,644 C1058.5820313,644 1055,640.4179688 1055,636 Z M1055,569" style="fill:rgb(255,255,255);stroke:none" clip-path="url(#clip184)" />
<clipPath id="clip185"><path d="M1047,583 L1505,583 L1505,648 L1047,648 L1047,583 Z" /></clipPath>
<path d="M1055,569 C1055,564.5820313 1058.5820313,561 1063,561 L1493,561 C1497.4179688,561 1501,564.5820313 1501,569 L1501,636 C1501,640.4179688 1497.4179688,644 1493,644 L1063,644 C1058.5820313,644 1055,640.4179688 1055,636 Z M1055,569" style="fill:rgb(255,255,255);stroke:none" clip-path="url(#clip185)" />
<clipPath id="clip186"><path d="M1344,553 L1505,553 L1505,585 L1344,585 L1344,553 Z" /></clipPath>
<path d="M1055,569 C1055,564.5820313 1058.5820313,561 1063,561 L1493,561 C1497.4179688,561 1501,564.5820313 1501,569 L1501,636 C1501,640.4179688 1497.4179688,644 1493,644 L1063,644 C1058.5820313,644 1055,640.4179688 1055,636 Z M1055,569" style="fill:none;stroke:rgb(175,175,175);stroke-width:3;stroke-dasharray:18,9;stroke-dashoffset:0" clip-path="url(#clip186)" />
<clipPath id="clip187"><path d="M1047,583 L1505,583 L1505,648 L1047,648 L1047,583 Z" /></clipPath>
<path d="M1055,569 C1055,564.5820313 1058.5820313,561 1063,561 L1493,561 C1497.4179688,561 1501,564.5820313 1501,569 L1501,636 C1501,640.4179688 1497.4179688,644 1493,644 L1063,644 C1058.5820313,644 1055,640.4179688 1055,636 Z M1055,569" style="fill:none;stroke:rgb(175,175,175);stroke-width:3;stroke-dasharray:18,9;stroke-dashoffset:0" clip-path="url(#clip187)" />
<clipPath id="clip188"><path d="M1047,553 L1346,553 L1346,585 L1047,585 L1047,553 Z" /></clipPath>
<path d="M1051,557 L1342,557 L1342,581 L1051,581 Z M1051,557" style="fill:rgb(255,255,255);stroke:none" clip-path="url(#clip188)" />
<text x="1052" y="567" style="font:9px Ubuntu">AES competition round 2 algorithms</text>
<clipPath id="clip189"><path d="M1047,553 L1346,553 L1346,585 L1047,585 L1047,553 Z" /></clipPath>
<rect x="1049" y="555" width="294" height="27" style="fill:none;stroke:rgb(175,175,175);stroke-width:3" clip-path="url(#clip189)" />
<clipPath id="clip190"><path d="M620,685 L874,685 L874,717 L620,717 L620,685 Z" /></clipPath>
<path d="M622,687 L871,687 L871,714 L622,714 Z M622,687" style="fill:rgb(240,240,240);stroke:none" clip-path="url(#clip190)" />
<clipPath id="clip191"><path d="M620,685 L874,685 L874,717 L620,717 L620,685 Z" /></clipPath>
<path d="M622,687 L871,687 L871,714 L622,714 Z M622,687" style="fill:none;stroke:rgb(128,128,128)" clip-path="url(#clip191)" />
<text x="628" y="699" style="font:10px Ubuntu">TrueCrypt v3.0 2004-12-10</text>
<clipPath id="clip192"><path d="M741,674 L754,674 L754,687 L741,687 L741,674 Z" /></clipPath>
<path d="M751.5,680 C751.5,677.515625 749.484375,675.5 747,675.5 C744.515625,675.5 742.5,677.515625 742.5,680 C742.5,682.484375 744.515625,684.5 747,684.5 C749.484375,684.5 751.5,682.484375 751.5,680 Z M751.5,680" style="fill:rgb(210,230,255);stroke:none" clip-path="url(#clip192)" />
<clipPath id="clip193"><path d="M741,674 L754,674 L754,687 L741,687 L741,674 Z" /></clipPath>
<path d="M751.5,680 C751.5,677.515625 749.484375,675.5 747,675.5 C744.515625,675.5 742.5,677.515625 742.5,680 C742.5,682.484375 744.515625,684.5 747,684.5 C749.484375,684.5 751.5,682.484375 751.5,680 Z M751.5,680" style="fill:none;stroke:rgb(180,200,240)" clip-path="url(#clip193)" />
<clipPath id="clip194"><path d="M741,674 L754,674 L754,687 L741,687 L741,674 Z" /></clipPath>
<path d="M745,680 L749,680" style="fill:none;stroke:rgb(150,160,200)" clip-path="url(#clip194)" />
<clipPath id="clip195"><path d="M14,14 L1048,14 L1048,668 L14,668 L14,14 Z" /></clipPath>
<path d="M530.5664063,638 L530.6328125,625" style="fill:none;stroke:rgb(128,128,128)" clip-path="url(#clip195)" />
<clipPath id="clip196"><path d="M14,14 L1048,14 L1048,668 L14,668 L14,14 Z" /></clipPath>
<path d="M530.6328125,625 L530.5664063,625 L530.5664063,616" style="fill:none;stroke:rgb(128,128,128)" clip-path="url(#clip196)" />
<clipPath id="clip197"><path d="M399,636 L663,636 L663,668 L399,668 L399,636 Z" /></clipPath>
<path d="M401,638 L660,638 L660,665 L401,665 Z M401,638" style="fill:rgb(240,240,240);stroke:none" clip-path="url(#clip197)" />
<clipPath id="clip198"><path d="M399,636 L663,636 L663,668 L399,668 L399,636 Z" /></clipPath>
<path d="M401,638 L660,638 L660,665 L401,665 Z M401,638" style="fill:none;stroke:rgb(128,128,128)" clip-path="url(#clip198)" />
<text x="407" y="650" style="font:10px Ubuntu">TrueCrypt v2.1a 2004-10-01</text>
<clipPath id="clip199"><path d="M525,625 L538,625 L538,638 L525,638 L525,625 Z" /></clipPath>
<path d="M535.5,631 C535.5,628.515625 533.484375,626.5 531,626.5 C528.515625,626.5 526.5,628.515625 526.5,631 C526.5,633.484375 528.515625,635.5 531,635.5 C533.484375,635.5 535.5,633.484375 535.5,631 Z M535.5,631" style="fill:rgb(210,230,255);stroke:none" clip-path="url(#clip199)" />
<clipPath id="clip200"><path d="M525,625 L538,625 L538,638 L525,638 L525,625 Z" /></clipPath>
<path d="M535.5,631 C535.5,628.515625 533.484375,626.5 531,626.5 C528.515625,626.5 526.5,628.515625 526.5,631 C526.5,633.484375 528.515625,635.5 531,635.5 C533.484375,635.5 535.5,633.484375 535.5,631 Z M535.5,631" style="fill:none;stroke:rgb(180,200,240)" clip-path="url(#clip200)" />
<clipPath id="clip201"><path d="M525,625 L538,625 L538,638 L525,638 L525,625 Z" /></clipPath>
<path d="M529,631 L533,631" style="fill:none;stroke:rgb(150,160,200)" clip-path="url(#clip201)" />
<clipPath id="clip202"><path d="M14,14 L1048,14 L1048,619 L14,619 L14,14 Z" /></clipPath>
<path d="M530.5664063,589 L530.6328125,576" style="fill:none;stroke:rgb(128,128,128)" clip-path="url(#clip202)" />
<clipPath id="clip203"><path d="M14,14 L1048,14 L1048,619 L14,619 L14,14 Z" /></clipPath>
<path d="M530.6328125,576 L530.5664063,576 L530.5664063,567" style="fill:none;stroke:rgb(128,128,128)" clip-path="url(#clip203)" />
<clipPath id="clip204"><path d="M404,587 L658,587 L658,619 L404,619 L404,587 Z" /></clipPath>
<path d="M406,589 L655,589 L655,616 L406,616 Z M406,589" style="fill:rgb(240,240,240);stroke:none" clip-path="url(#clip204)" />
<clipPath id="clip205"><path d="M404,587 L658,587 L658,619 L404,619 L404,587 Z" /></clipPath>
<path d="M406,589 L655,589 L655,616 L406,616 Z M406,589" style="fill:none;stroke:rgb(128,128,128)" clip-path="url(#clip205)" />
<text x="412" y="601" style="font:10px Ubuntu">TrueCrypt v2.1 2004-06-21</text>
<clipPath id="clip206"><path d="M525,576 L538,576 L538,589 L525,589 L525,576 Z" /></clipPath>
<path d="M535.5,582 C535.5,579.515625 533.484375,577.5 531,577.5 C528.515625,577.5 526.5,579.515625 526.5,582 C526.5,584.484375 528.515625,586.5 531,586.5 C533.484375,586.5 535.5,584.484375 535.5,582 Z M535.5,582" style="fill:rgb(210,230,255);stroke:none" clip-path="url(#clip206)" />
<clipPath id="clip207"><path d="M525,576 L538,576 L538,589 L525,589 L525,576 Z" /></clipPath>
<path d="M535.5,582 C535.5,579.515625 533.484375,577.5 531,577.5 C528.515625,577.5 526.5,579.515625 526.5,582 C526.5,584.484375 528.515625,586.5 531,586.5 C533.484375,586.5 535.5,584.484375 535.5,582 Z M535.5,582" style="fill:none;stroke:rgb(180,200,240)" clip-path="url(#clip207)" />
<clipPath id="clip208"><path d="M525,576 L538,576 L538,589 L525,589 L525,576 Z" /></clipPath>
<path d="M529,582 L533,582" style="fill:none;stroke:rgb(150,160,200)" clip-path="url(#clip208)" />
<clipPath id="clip209"><path d="M14,14 L1048,14 L1048,570 L14,570 L14,14 Z" /></clipPath>
<path d="M530.5664063,540 L530.6328125,527" style="fill:none;stroke:rgb(128,128,128)" clip-path="url(#clip209)" />
<clipPath id="clip210"><path d="M14,14 L1048,14 L1048,570 L14,570 L14,14 Z" /></clipPath>
<path d="M530.6328125,527 L393.5664063,527 L393.5664063,518" style="fill:none;stroke:rgb(128,128,128)" clip-path="url(#clip210)" />
<clipPath id="clip211"><path d="M14,14 L1048,14 L1048,570 L14,570 L14,14 Z" /></clipPath>
<path d="M530.6328125,527 L910.625,527 L910.625,518" style="fill:none;stroke:rgb(128,128,128)" clip-path="url(#clip211)" />
<clipPath id="clip212"><path d="M404,538 L658,538 L658,570 L404,570 L404,538 Z" /></clipPath>
<path d="M406,540 L655,540 L655,567 L406,567 Z M406,540" style="fill:rgb(240,240,240);stroke:none" clip-path="url(#clip212)" />
<clipPath id="clip213"><path d="M404,538 L658,538 L658,570 L404,570 L404,538 Z" /></clipPath>
<path d="M406,540 L655,540 L655,567 L406,567 Z M406,540" style="fill:none;stroke:rgb(128,128,128)" clip-path="url(#clip213)" />
<text x="412" y="552" style="font:10px Ubuntu">TrueCrypt v2.0 2004-06-07</text>
<clipPath id="clip214"><path d="M525,527 L538,527 L538,540 L525,540 L525,527 Z" /></clipPath>
<path d="M535.5,533 C535.5,530.515625 533.484375,528.5 531,528.5 C528.515625,528.5 526.5,530.515625 526.5,533 C526.5,535.484375 528.515625,537.5 531,537.5 C533.484375,537.5 535.5,535.484375 535.5,533 Z M535.5,533" style="fill:rgb(210,230,255);stroke:none" clip-path="url(#clip214)" />
<clipPath id="clip215"><path d="M525,527 L538,527 L538,540 L525,540 L525,527 Z" /></clipPath>
<path d="M535.5,533 C535.5,530.515625 533.484375,528.5 531,528.5 C528.515625,528.5 526.5,530.515625 526.5,533 C526.5,535.484375 528.515625,537.5 531,537.5 C533.484375,537.5 535.5,535.484375 535.5,533 Z M535.5,533" style="fill:none;stroke:rgb(180,200,240)" clip-path="url(#clip215)" />
<clipPath id="clip216"><path d="M525,527 L538,527 L538,540 L525,540 L525,527 Z" /></clipPath>
<path d="M529,533 L533,533" style="fill:none;stroke:rgb(150,160,200)" clip-path="url(#clip216)" />
<clipPath id="clip217"><path d="M14,14 L775,14 L775,521 L14,521 L14,14 Z" /></clipPath>
<path d="M393.5664063,491 L393.6328125,478" style="fill:none;stroke:rgb(128,128,128)" clip-path="url(#clip217)" />
<clipPath id="clip218"><path d="M14,14 L775,14 L775,521 L14,521 L14,14 Z" /></clipPath>
<path d="M393.6328125,478 L393.5664063,478 L393.5664063,469" style="fill:none;stroke:rgb(128,128,128)" clip-path="url(#clip218)" />
<clipPath id="clip219"><path d="M262,489 L526,489 L526,521 L262,521 L262,489 Z" /></clipPath>
<path d="M264,491 L523,491 L523,518 L264,518 Z M264,491" style="fill:rgb(240,240,240);stroke:none" clip-path="url(#clip219)" />
<clipPath id="clip220"><path d="M262,489 L526,489 L526,521 L262,521 L262,489 Z" /></clipPath>
<path d="M264,491 L523,491 L523,518 L264,518 Z M264,491" style="fill:none;stroke:rgb(128,128,128)" clip-path="url(#clip220)" />
<text x="270" y="503" style="font:10px Ubuntu">TrueCrypt v1.0a 2004-02-03</text>
<clipPath id="clip221"><path d="M388,478 L401,478 L401,491 L388,491 L388,478 Z" /></clipPath>
<path d="M398.5,484 C398.5,481.515625 396.484375,479.5 394,479.5 C391.515625,479.5 389.5,481.515625 389.5,484 C389.5,486.484375 391.515625,488.5 394,488.5 C396.484375,488.5 398.5,486.484375 398.5,484 Z M398.5,484" style="fill:rgb(210,230,255);stroke:none" clip-path="url(#clip221)" />
<clipPath id="clip222"><path d="M388,478 L401,478 L401,491 L388,491 L388,478 Z" /></clipPath>
<path d="M398.5,484 C398.5,481.515625 396.484375,479.5 394,479.5 C391.515625,479.5 389.5,481.515625 389.5,484 C389.5,486.484375 391.515625,488.5 394,488.5 C396.484375,488.5 398.5,486.484375 398.5,484 Z M398.5,484" style="fill:none;stroke:rgb(180,200,240)" clip-path="url(#clip222)" />
<clipPath id="clip223"><path d="M388,478 L401,478 L401,491 L388,491 L388,478 Z" /></clipPath>
<path d="M392,484 L396,484" style="fill:none;stroke:rgb(150,160,200)" clip-path="url(#clip223)" />
<clipPath id="clip224"><path d="M14,14 L775,14 L775,472 L14,472 L14,14 Z" /></clipPath>
<path d="M393.5664063,442 L393.6328125,429" style="fill:none;stroke:rgb(128,128,128)" clip-path="url(#clip224)" />
<clipPath id="clip225"><path d="M14,14 L775,14 L775,472 L14,472 L14,14 Z" /></clipPath>
<path d="M393.6328125,429 L394,429 L394,420" style="fill:none;stroke:rgb(128,128,128)" clip-path="url(#clip225)" />
<clipPath id="clip226"><path d="M267,440 L521,440 L521,472 L267,472 L267,440 Z" /></clipPath>
<path d="M269,442 L518,442 L518,469 L269,469 Z M269,442" style="fill:rgb(240,240,240);stroke:none" clip-path="url(#clip226)" />
<clipPath id="clip227"><path d="M267,440 L521,440 L521,472 L267,472 L267,440 Z" /></clipPath>
<path d="M269,442 L518,442 L518,469 L269,469 Z M269,442" style="fill:none;stroke:rgb(128,128,128)" clip-path="url(#clip227)" />
<text x="275" y="454" style="font:10px Ubuntu">TrueCrypt v1.0 2004-02-02</text>
<clipPath id="clip228"><path d="M388,429 L401,429 L401,442 L388,442 L388,429 Z" /></clipPath>
<path d="M398.5,435 C398.5,432.515625 396.484375,430.5 394,430.5 C391.515625,430.5 389.5,432.515625 389.5,435 C389.5,437.484375 391.515625,439.5 394,439.5 C396.484375,439.5 398.5,437.484375 398.5,435 Z M398.5,435" style="fill:rgb(210,230,255);stroke:none" clip-path="url(#clip228)" />
<clipPath id="clip229"><path d="M388,429 L401,429 L401,442 L388,442 L388,429 Z" /></clipPath>
<path d="M398.5,435 C398.5,432.515625 396.484375,430.5 394,430.5 C391.515625,430.5 389.5,432.515625 389.5,435 C389.5,437.484375 391.515625,439.5 394,439.5 C396.484375,439.5 398.5,437.484375 398.5,435 Z M398.5,435" style="fill:none;stroke:rgb(180,200,240)" clip-path="url(#clip229)" />
<clipPath id="clip230"><path d="M388,429 L401,429 L401,442 L388,442 L388,429 Z" /></clipPath>
<path d="M392,435 L396,435" style="fill:none;stroke:rgb(150,160,200)" clip-path="url(#clip230)" />
<clipPath id="clip231"><path d="M14,14 L775,14 L775,423 L14,423 L14,14 Z" /></clipPath>
<path d="M394,393 L394,380" style="fill:none;stroke:rgb(128,128,128)" clip-path="url(#clip231)" />
<clipPath id="clip232"><path d="M14,14 L775,14 L775,423 L14,423 L14,14 Z" /></clipPath>
<path d="M394,380 L394,371" style="fill:none;stroke:rgb(128,128,128)" clip-path="url(#clip232)" />
<clipPath id="clip233"><path d="M279,391 L510,391 L510,423 L279,423 L279,391 Z" /></clipPath>
<path d="M281,393 L507,393 L507,420 L281,420 Z M281,393" style="fill:rgb(240,240,240);stroke:none" clip-path="url(#clip233)" />
<clipPath id="clip234"><path d="M279,391 L510,391 L510,423 L279,423 L279,391 Z" /></clipPath>
<path d="M281,393 L507,393 L507,420 L281,420 Z M281,393" style="fill:none;stroke:rgb(128,128,128)" clip-path="url(#clip234)" />
<text x="287" y="405" style="font:10px Ubuntu">E4M v2.0.2a 2000-11-18</text>
<clipPath id="clip235"><path d="M388,380 L401,380 L401,393 L388,393 L388,380 Z" /></clipPath>
<path d="M398.5,386 C398.5,383.515625 396.484375,381.5 394,381.5 C391.515625,381.5 389.5,383.515625 389.5,386 C389.5,388.484375 391.515625,390.5 394,390.5 C396.484375,390.5 398.5,388.484375 398.5,386 Z M398.5,386" style="fill:rgb(210,230,255);stroke:none" clip-path="url(#clip235)" />
<clipPath id="clip236"><path d="M388,380 L401,380 L401,393 L388,393 L388,380 Z" /></clipPath>
<path d="M398.5,386 C398.5,383.515625 396.484375,381.5 394,381.5 C391.515625,381.5 389.5,383.515625 389.5,386 C389.5,388.484375 391.515625,390.5 394,390.5 C396.484375,390.5 398.5,388.484375 398.5,386 Z M398.5,386" style="fill:none;stroke:rgb(180,200,240)" clip-path="url(#clip236)" />
<clipPath id="clip237"><path d="M388,380 L401,380 L401,393 L388,393 L388,380 Z" /></clipPath>
<path d="M392,386 L396,386" style="fill:none;stroke:rgb(150,160,200)" clip-path="url(#clip237)" />
<clipPath id="clip238"><path d="M14,14 L775,14 L775,374 L14,374 L14,14 Z" /></clipPath>
<path d="M394,344 L394,331" style="fill:none;stroke:rgb(128,128,128)" clip-path="url(#clip238)" />
<clipPath id="clip239"><path d="M14,14 L775,14 L775,374 L14,374 L14,14 Z" /></clipPath>
<path d="M394,331 L394,322" style="fill:none;stroke:rgb(128,128,128)" clip-path="url(#clip239)" />
<clipPath id="clip240"><path d="M284,342 L505,342 L505,374 L284,374 L284,342 Z" /></clipPath>
<path d="M286,344 L502,344 L502,371 L286,371 Z M286,344" style="fill:rgb(240,240,240);stroke:none" clip-path="url(#clip240)" />
<clipPath id="clip241"><path d="M284,342 L505,342 L505,374 L284,374 L284,342 Z" /></clipPath>
<path d="M286,344 L502,344 L502,371 L286,371 Z M286,344" style="fill:none;stroke:rgb(128,128,128)" clip-path="url(#clip241)" />
<text x="292" y="356" style="font:10px Ubuntu">E4M v2.0.2 2000-03-26</text>
<clipPath id="clip242"><path d="M388,331 L401,331 L401,344 L388,344 L388,331 Z" /></clipPath>
<path d="M398.5,337 C398.5,334.515625 396.484375,332.5 394,332.5 C391.515625,332.5 389.5,334.515625 389.5,337 C389.5,339.484375 391.515625,341.5 394,341.5 C396.484375,341.5 398.5,339.484375 398.5,337 Z M398.5,337" style="fill:rgb(210,230,255);stroke:none" clip-path="url(#clip242)" />
<clipPath id="clip243"><path d="M388,331 L401,331 L401,344 L388,344 L388,331 Z" /></clipPath>
<path d="M398.5,337 C398.5,334.515625 396.484375,332.5 394,332.5 C391.515625,332.5 389.5,334.515625 389.5,337 C389.5,339.484375 391.515625,341.5 394,341.5 C396.484375,341.5 398.5,339.484375 398.5,337 Z M398.5,337" style="fill:none;stroke:rgb(180,200,240)" clip-path="url(#clip243)" />
<clipPath id="clip244"><path d="M388,331 L401,331 L401,344 L388,344 L388,331 Z" /></clipPath>
<path d="M392,337 L396,337" style="fill:none;stroke:rgb(150,160,200)" clip-path="url(#clip244)" />
<clipPath id="clip245"><path d="M14,14 L775,14 L775,325 L14,325 L14,14 Z" /></clipPath>
<path d="M394,295 L394,282" style="fill:none;stroke:rgb(128,128,128)" clip-path="url(#clip245)" />
<clipPath id="clip246"><path d="M14,14 L775,14 L775,325 L14,325 L14,14 Z" /></clipPath>
<path d="M394,282 L394,273" style="fill:none;stroke:rgb(128,128,128)" clip-path="url(#clip246)" />
<clipPath id="clip247"><path d="M284,293 L505,293 L505,325 L284,325 L284,293 Z" /></clipPath>
<path d="M286,295 L502,295 L502,322 L286,322 Z M286,295" style="fill:rgb(240,240,240);stroke:none" clip-path="url(#clip247)" />
<clipPath id="clip248"><path d="M284,293 L505,293 L505,325 L284,325 L284,293 Z" /></clipPath>
<path d="M286,295 L502,295 L502,322 L286,322 Z M286,295" style="fill:none;stroke:rgb(128,128,128)" clip-path="url(#clip248)" />
<text x="292" y="307" style="font:10px Ubuntu">E4M v2.0.1 1999-09-19</text>
<clipPath id="clip249"><path d="M388,282 L401,282 L401,295 L388,295 L388,282 Z" /></clipPath>
<path d="M398.5,288 C398.5,285.515625 396.484375,283.5 394,283.5 C391.515625,283.5 389.5,285.515625 389.5,288 C389.5,290.484375 391.515625,292.5 394,292.5 C396.484375,292.5 398.5,290.484375 398.5,288 Z M398.5,288" style="fill:rgb(210,230,255);stroke:none" clip-path="url(#clip249)" />
<clipPath id="clip250"><path d="M388,282 L401,282 L401,295 L388,295 L388,282 Z" /></clipPath>
<path d="M398.5,288 C398.5,285.515625 396.484375,283.5 394,283.5 C391.515625,283.5 389.5,285.515625 389.5,288 C389.5,290.484375 391.515625,292.5 394,292.5 C396.484375,292.5 398.5,290.484375 398.5,288 Z M398.5,288" style="fill:none;stroke:rgb(180,200,240)" clip-path="url(#clip250)" />
<clipPath id="clip251"><path d="M388,282 L401,282 L401,295 L388,295 L388,282 Z" /></clipPath>
<path d="M392,288 L396,288" style="fill:none;stroke:rgb(150,160,200)" clip-path="url(#clip251)" />
<clipPath id="clip252"><path d="M14,14 L775,14 L775,276 L14,276 L14,14 Z" /></clipPath>
<path d="M394,246 L394,233" style="fill:none;stroke:rgb(128,128,128)" clip-path="url(#clip252)" />
<clipPath id="clip253"><path d="M14,14 L775,14 L775,276 L14,276 L14,14 Z" /></clipPath>
<path d="M394,233 L394,224" style="fill:none;stroke:rgb(128,128,128)" clip-path="url(#clip253)" />
<clipPath id="clip254"><path d="M284,244 L505,244 L505,276 L284,276 L284,244 Z" /></clipPath>
<path d="M286,246 L502,246 L502,273 L286,273 Z M286,246" style="fill:rgb(240,240,240);stroke:none" clip-path="url(#clip254)" />
<clipPath id="clip255"><path d="M284,244 L505,244 L505,276 L284,276 L284,244 Z" /></clipPath>
<path d="M286,246 L502,246 L502,273 L286,273 Z M286,246" style="fill:none;stroke:rgb(128,128,128)" clip-path="url(#clip255)" />
<text x="292" y="258" style="font:10px Ubuntu">E4M v2.0.0 1999-06-19</text>
<clipPath id="clip256"><path d="M388,233 L401,233 L401,246 L388,246 L388,233 Z" /></clipPath>
<path d="M398.5,239 C398.5,236.515625 396.484375,234.5 394,234.5 C391.515625,234.5 389.5,236.515625 389.5,239 C389.5,241.484375 391.515625,243.5 394,243.5 C396.484375,243.5 398.5,241.484375 398.5,239 Z M398.5,239" style="fill:rgb(210,230,255);stroke:none" clip-path="url(#clip256)" />
<clipPath id="clip257"><path d="M388,233 L401,233 L401,246 L388,246 L388,233 Z" /></clipPath>
<path d="M398.5,239 C398.5,236.515625 396.484375,234.5 394,234.5 C391.515625,234.5 389.5,236.515625 389.5,239 C389.5,241.484375 391.515625,243.5 394,243.5 C396.484375,243.5 398.5,241.484375 398.5,239 Z M398.5,239" style="fill:none;stroke:rgb(180,200,240)" clip-path="url(#clip257)" />
<clipPath id="clip258"><path d="M388,233 L401,233 L401,246 L388,246 L388,233 Z" /></clipPath>
<path d="M392,239 L396,239" style="fill:none;stroke:rgb(150,160,200)" clip-path="url(#clip258)" />
<clipPath id="clip259"><path d="M14,14 L775,14 L775,227 L14,227 L14,14 Z" /></clipPath>
<path d="M394,197 L394,184" style="fill:none;stroke:rgb(128,128,128)" clip-path="url(#clip259)" />
<clipPath id="clip260"><path d="M14,14 L775,14 L775,227 L14,227 L14,14 Z" /></clipPath>
<path d="M394,184 L382,184 L382,175" style="fill:none;stroke:rgb(128,128,128)" clip-path="url(#clip260)" />
<clipPath id="clip261"><path d="M284,195 L505,195 L505,227 L284,227 L284,195 Z" /></clipPath>
<path d="M286,197 L502,197 L502,224 L286,224 Z M286,197" style="fill:rgb(240,240,240);stroke:none" clip-path="url(#clip261)" />
<clipPath id="clip262"><path d="M284,195 L505,195 L505,227 L284,227 L284,195 Z" /></clipPath>
<path d="M286,197 L502,197 L502,224 L286,224 Z M286,197" style="fill:none;stroke:rgb(128,128,128)" clip-path="url(#clip262)" />
<text x="292" y="209" style="font:10px Ubuntu">E4M v1.3.6 1999-03-06</text>
<clipPath id="clip263"><path d="M388,184 L401,184 L401,197 L388,197 L388,184 Z" /></clipPath>
<path d="M398.5,190 C398.5,187.515625 396.484375,185.5 394,185.5 C391.515625,185.5 389.5,187.515625 389.5,190 C389.5,192.484375 391.515625,194.5 394,194.5 C396.484375,194.5 398.5,192.484375 398.5,190 Z M398.5,190" style="fill:rgb(210,230,255);stroke:none" clip-path="url(#clip263)" />
<clipPath id="clip264"><path d="M388,184 L401,184 L401,197 L388,197 L388,184 Z" /></clipPath>
<path d="M398.5,190 C398.5,187.515625 396.484375,185.5 394,185.5 C391.515625,185.5 389.5,187.515625 389.5,190 C389.5,192.484375 391.515625,194.5 394,194.5 C396.484375,194.5 398.5,192.484375 398.5,190 Z M398.5,190" style="fill:none;stroke:rgb(180,200,240)" clip-path="url(#clip264)" />
<clipPath id="clip265"><path d="M388,184 L401,184 L401,197 L388,197 L388,184 Z" /></clipPath>
<path d="M392,190 L396,190" style="fill:none;stroke:rgb(150,160,200)" clip-path="url(#clip265)" />
<clipPath id="clip266"><path d="M14,14 L775,14 L775,178 L14,178 L14,14 Z" /></clipPath>
<path d="M382,148 L382,135" style="fill:none;stroke:rgb(128,128,128)" clip-path="url(#clip266)" />
<clipPath id="clip267"><path d="M14,14 L775,14 L775,178 L14,178 L14,14 Z" /></clipPath>
<path d="M382,135 L102,135 L102,96" style="fill:none;stroke:rgb(128,128,128)" clip-path="url(#clip267)" />
<clipPath id="clip268"><path d="M14,14 L775,14 L775,178 L14,178 L14,14 Z" /></clipPath>
<path d="M382,135 L239.625,135 L239.625,96" style="fill:none;stroke:rgb(128,128,128)" clip-path="url(#clip268)" />
<clipPath id="clip269"><path d="M14,14 L775,14 L775,178 L14,178 L14,14 Z" /></clipPath>
<path d="M382,135 L372,135 L372,96" style="fill:none;stroke:rgb(128,128,128)" clip-path="url(#clip269)" />
<clipPath id="clip270"><path d="M14,14 L775,14 L775,178 L14,178 L14,14 Z" /></clipPath>
<path d="M382,135 L612,135 L612,126" style="fill:none;stroke:rgb(128,128,128)" clip-path="url(#clip270)" />
<clipPath id="clip271"><path d="M80,14 L451,14 L451,46 L80,46 L80,14 Z" /></clipPath>
<path d="M22,30 C22,25.5820313 25.5820313,22 30,22 L439,22 C443.4179688,22 447,25.5820313 447,30 L447,97 C447,101.4179688 443.4179688,105 439,105 L30,105 C25.5820313,105 22,101.4179688 22,97 Z M22,30" style="fill:rgb(255,255,255);stroke:none" clip-path="url(#clip271)" />
<clipPath id="clip272"><path d="M14,44 L451,44 L451,109 L14,109 L14,44 Z" /></clipPath>
<path d="M22,30 C22,25.5820313 25.5820313,22 30,22 L439,22 C443.4179688,22 447,25.5820313 447,30 L447,97 C447,101.4179688 443.4179688,105 439,105 L30,105 C25.5820313,105 22,101.4179688 22,97 Z M22,30" style="fill:rgb(255,255,255);stroke:none" clip-path="url(#clip272)" />
<clipPath id="clip273"><path d="M80,14 L451,14 L451,46 L80,46 L80,14 Z" /></clipPath>
<path d="M22,30 C22,25.5820313 25.5820313,22 30,22 L439,22 C443.4179688,22 447,25.5820313 447,30 L447,97 C447,101.4179688 443.4179688,105 439,105 L30,105 C25.5820313,105 22,101.4179688 22,97 Z M22,30" style="fill:none;stroke:rgb(175,175,175);stroke-width:3;stroke-dasharray:18,9;stroke-dashoffset:0" clip-path="url(#clip273)" />
<clipPath id="clip274"><path d="M14,44 L451,44 L451,109 L14,109 L14,44 Z" /></clipPath>
<path d="M22,30 C22,25.5820313 25.5820313,22 30,22 L439,22 C443.4179688,22 447,25.5820313 447,30 L447,97 C447,101.4179688 443.4179688,105 439,105 L30,105 C25.5820313,105 22,101.4179688 22,97 Z M22,30" style="fill:none;stroke:rgb(175,175,175);stroke-width:3;stroke-dasharray:18,9;stroke-dashoffset:0" clip-path="url(#clip274)" />
<clipPath id="clip275"><path d="M14,14 L82,14 L82,46 L14,46 L14,14 Z" /></clipPath>
<path d="M18,18 L78,18 L78,42 L18,42 Z M18,18" style="fill:rgb(255,255,255);stroke:none" clip-path="url(#clip275)" />
<text x="20" y="28" style="font:9px Ubuntu">SSLeay</text>
<clipPath id="clip276"><path d="M14,14 L82,14 L82,46 L14,46 L14,14 Z" /></clipPath>
<rect x="16" y="16" width="63" height="27" style="fill:none;stroke:rgb(175,175,175);stroke-width:3" clip-path="url(#clip276)" />
<clipPath id="clip277"><path d="M272,146 L493,146 L493,178 L272,178 L272,146 Z" /></clipPath>
<path d="M274,148 L490,148 L490,175 L274,175 Z M274,148" style="fill:rgb(240,240,240);stroke:none" clip-path="url(#clip277)" />
<clipPath id="clip278"><path d="M272,146 L493,146 L493,178 L272,178 L272,146 Z" /></clipPath>
<path d="M274,148 L490,148 L490,175 L274,175 Z M274,148" style="fill:none;stroke:rgb(128,128,128)" clip-path="url(#clip278)" />
<text x="280" y="160" style="font:10px Ubuntu">E4M v1.0.0 1998-12-18</text>
<clipPath id="clip279"><path d="M376,135 L389,135 L389,148 L376,148 L376,135 Z" /></clipPath>
<path d="M386.5,141 C386.5,138.515625 384.484375,136.5 382,136.5 C379.515625,136.5 377.5,138.515625 377.5,141 C377.5,143.484375 379.515625,145.5 382,145.5 C384.484375,145.5 386.5,143.484375 386.5,141 Z M386.5,141" style="fill:rgb(210,230,255);stroke:none" clip-path="url(#clip279)" />
<clipPath id="clip280"><path d="M376,135 L389,135 L389,148 L376,148 L376,135 Z" /></clipPath>
<path d="M386.5,141 C386.5,138.515625 384.484375,136.5 382,136.5 C379.515625,136.5 377.5,138.515625 377.5,141 C377.5,143.484375 379.515625,145.5 382,145.5 C384.484375,145.5 386.5,143.484375 386.5,141 Z M386.5,141" style="fill:none;stroke:rgb(180,200,240)" clip-path="url(#clip280)" />
<clipPath id="clip281"><path d="M376,135 L389,135 L389,148 L376,148 L376,135 Z" /></clipPath>
<path d="M380,141 L384,141" style="fill:none;stroke:rgb(150,160,200)" clip-path="url(#clip281)" />
<clipPath id="clip282"><path d="M29,44 L176,44 L176,99 L29,99 L29,44 Z" /></clipPath>
<path d="M31,46 L173,46 L173,96 L31,96 Z M31,46" style="fill:rgb(240,240,240);stroke:none" clip-path="url(#clip282)" />
<clipPath id="clip283"><path d="M29,44 L176,44 L176,99 L29,99 L29,44 Z" /></clipPath>
<path d="M31,46 L173,46 L173,96 L31,96 Z M31,46" style="fill:none;stroke:rgb(128,128,128)" clip-path="url(#clip283)" />
<text x="37" y="58" style="font:10px Ubuntu">libcast v0.8.2b</text>
<text x="37" y="81" style="font:10px Ubuntu">1998-01-08</text>
<clipPath id="clip284"><path d="M175,44 L305,44 L305,99 L175,99 L175,44 Z" /></clipPath>
<path d="M177,46 L302,46 L302,96 L177,96 Z M177,46" style="fill:rgb(240,240,240);stroke:none" clip-path="url(#clip284)" />
<clipPath id="clip285"><path d="M175,44 L305,44 L305,99 L175,99 L175,44 Z" /></clipPath>
<path d="M177,46 L302,46 L302,96 L177,96 Z M177,46" style="fill:none;stroke:rgb(128,128,128)" clip-path="url(#clip285)" />
<text x="183" y="58" style="font:10px Ubuntu">libbf v0.8.2b</text>
<text x="183" y="81" style="font:10px Ubuntu">1998-01-08</text>
<clipPath id="clip286"><path d="M304,44 L441,44 L441,99 L304,99 L304,44 Z" /></clipPath>
<path d="M306,46 L438,46 L438,96 L306,96 Z M306,46" style="fill:rgb(240,240,240);stroke:none" clip-path="url(#clip286)" />
<clipPath id="clip287"><path d="M304,44 L441,44 L441,99 L304,99 L304,44 Z" /></clipPath>
<path d="M306,46 L438,46 L438,96 L306,96 Z M306,46" style="fill:none;stroke:rgb(128,128,128)" clip-path="url(#clip287)" />
<text x="312" y="58" style="font:10px Ubuntu">liddes v4.04b</text>
<text x="312" y="81" style="font:10px Ubuntu">1998-01-08</text>
<clipPath id="clip288"><path d="M450,51 L775,51 L775,129 L450,129 L450,51 Z" /></clipPath>
<path d="M452,53 L772,53 L772,126 L452,126 Z M452,53" style="fill:rgb(240,240,240);stroke:none" clip-path="url(#clip288)" />
<clipPath id="clip289"><path d="M450,51 L775,51 L775,129 L450,129 L450,51 Z" /></clipPath>
<path d="M452,53 L772,53 L772,126 L452,126 Z M452,53" style="fill:none;stroke:rgb(128,128,128)" clip-path="url(#clip289)" />
<text x="458" y="65" style="font:10px Ubuntu">cryptlib v2.00</text>
<text x="458" y="88" style="font:10px Ubuntu">1996-10-12</text>
<text x="458" y="111" style="font:10px Ubuntu">./lib_rand.c -&gt; common/random.c</text>
<clipPath id="clip290"><path d="M774,466 L1048,466 L1048,521 L774,521 L774,466 Z" /></clipPath>
<path d="M776,468 L1045,468 L1045,518 L776,518 Z M776,468" style="fill:rgb(240,240,240);stroke:none" clip-path="url(#clip290)" />
<clipPath id="clip291"><path d="M774,466 L1048,466 L1048,521 L774,521 L774,466 Z" /></clipPath>
<path d="M776,468 L1045,468 L1045,518 L776,518 Z M776,468" style="fill:none;stroke:rgb(128,128,128)" clip-path="url(#clip291)" />
<text x="781" y="480" style="font:10px Ubuntu">AES (Rijndael) by B Gladman</text>
<text x="781" y="503" style="font:10px Ubuntu">2004-02-09</text>
<clipPath id="clip292"><path d="M1062,583 L1277,583 L1277,638 L1062,638 L1062,583 Z" /></clipPath>
<path d="M1064,585 L1274,585 L1274,635 L1064,635 Z M1064,585" style="fill:rgb(240,240,240);stroke:none" clip-path="url(#clip292)" />
<clipPath id="clip293"><path d="M1062,583 L1277,583 L1277,638 L1062,638 L1062,583 Z" /></clipPath>
<path d="M1064,585 L1274,585 L1274,635 L1064,635 Z M1064,585" style="fill:none;stroke:rgb(128,128,128)" clip-path="url(#clip293)" />
<text x="1069" y="597" style="font:10px Ubuntu">Twofish by B Gladman</text>
<text x="1069" y="620" style="font:10px Ubuntu">2004-01-27</text>
<clipPath id="clip294"><path d="M1276,583 L1495,583 L1495,638 L1276,638 L1276,583 Z" /></clipPath>
<path d="M1278,585 L1492,585 L1492,635 L1278,635 Z M1278,585" style="fill:rgb(240,240,240);stroke:none" clip-path="url(#clip294)" />
<clipPath id="clip295"><path d="M1276,583 L1495,583 L1495,638 L1276,638 L1276,583 Z" /></clipPath>
<path d="M1278,585 L1492,585 L1492,635 L1278,635 Z M1278,585" style="fill:none;stroke:rgb(128,128,128)" clip-path="url(#clip295)" />
<text x="1283" y="597" style="font:10px Ubuntu">Serpent by B Gladman</text>
<text x="1283" y="620" style="font:10px Ubuntu">2000-01-25</text>
</svg>
