<?xml version="1.0" encoding="UTF-8"?>
<!DOCTYPE svg PUBLIC "-//W3C//DTD SVG 1.1//EN" "http://www.w3.org/Graphics/SVG/1.1/DTD/svg11.dtd">
<svg version="1.2" xmlns="http://www.w3.org/2000/svg" xmlns:xlink="http://www.w3.org/1999/xlink" x="0" y="0" width="1195" height="2078" viewBox="0 0 1195 2078">
<style type="text/css"><![CDATA[
text { font:12px Dialog; }
]]></style>
<rect x="-806" y="-485" width="2806" height="3400" style="fill:rgb(243,244,249);stroke:none" />
<clipPath id="clip1"><path d="M14,14 L1181,14 L1181,2064 L14,2064 L14,14 Z" /></clipPath>
<path d="M596.6796875,1990 L596.7304688,1980" style="fill:none;stroke:rgb(128,128,128)" clip-path="url(#clip1)" />
<clipPath id="clip2"><path d="M14,14 L1181,14 L1181,2064 L14,2064 L14,14 Z" /></clipPath>
<path d="M596.7304688,1980 L597,1980 L597,1956" style="fill:none;stroke:rgb(128,128,128)" clip-path="url(#clip2)" />
<clipPath id="clip3"><path d="M349,1988 L845,1988 L845,2064 L349,2064 L349,1988 Z" /></clipPath>
<path d="M351,1990 L842,1990 L842,2061 L351,2061 Z M351,1990" style="fill:rgb(151,203,255);stroke:none" clip-path="url(#clip3)" />
<clipPath id="clip4"><path d="M349,1988 L845,1988 L845,2064 L349,2064 L349,1988 Z" /></clipPath>
<path d="M351,1990 L842,1990 L842,2061 L351,2061 Z M351,1990" style="fill:none;stroke:rgb(128,128,128)" clip-path="url(#clip4)" />
<text x="375" y="2022" style="font:18px Ubuntu">TrueCrypt v7.2 2014-05-28</text>
<clipPath id="clip5"><path d="M14,14 L1181,14 L1181,1959 L14,1959 L14,14 Z" /></clipPath>
<path d="M597,1912 L597,1899" style="fill:none;stroke:rgb(128,128,128)" clip-path="url(#clip5)" />
<clipPath id="clip6"><path d="M14,14 L1181,14 L1181,1959 L14,1959 L14,14 Z" /></clipPath>
<path d="M597,1899 L596.5664063,1899 L596.5664063,1890" style="fill:none;stroke:rgb(128,128,128)" clip-path="url(#clip6)" />
<clipPath id="clip7"><path d="M424,1910 L771,1910 L771,1959 L424,1959 L424,1910 Z" /></clipPath>
<path d="M426,1912 L768,1912 L768,1956 L426,1956 Z M426,1912" style="fill:rgb(255,255,255);stroke:none" clip-path="url(#clip7)" />
<clipPath id="clip8"><path d="M424,1910 L771,1910 L771,1959 L424,1959 L424,1910 Z" /></clipPath>
<path d="M426,1912 L768,1912 L768,1956 L426,1956 Z M426,1912" style="fill:none;stroke:rgb(128,128,128)" clip-path="url(#clip8)" />
<text x="434" y="1932" style="font:13px Ubuntu">TrueCrypt v7.1a 2012-02-07</text>
<clipPath id="clip9"><path d="M591,1899 L604,1899 L604,1912 L591,1912 L591,1899 Z" /></clipPath>
<path d="M601.5,1905 C601.5,1902.515625 599.484375,1900.5 597,1900.5 C594.515625,1900.5 592.5,1902.515625 592.5,1905 C592.5,1907.484375 594.515625,1909.5 597,1909.5 C599.484375,1909.5 601.5,1907.484375 601.5,1905 Z M601.5,1905" style="fill:rgb(210,230,255);stroke:none" clip-path="url(#clip9)" />
<clipPath id="clip10"><path d="M591,1899 L604,1899 L604,1912 L591,1912 L591,1899 Z" /></clipPath>
<path d="M601.5,1905 C601.5,1902.515625 599.484375,1900.5 597,1900.5 C594.515625,1900.5 592.5,1902.515625 592.5,1905 C592.5,1907.484375 594.515625,1909.5 597,1909.5 C599.484375,1909.5 601.5,1907.484375 601.5,1905 Z M601.5,1905" style="fill:none;stroke:rgb(180,200,240)" clip-path="url(#clip10)" />
<clipPath id="clip11"><path d="M591,1899 L604,1899 L604,1912 L591,1912 L591,1899 Z" /></clipPath>
<path d="M595,1905 L599,1905" style="fill:none;stroke:rgb(150,160,200)" clip-path="url(#clip11)" />
<clipPath id="clip12"><path d="M14,14 L1181,14 L1181,1893 L14,1893 L14,14 Z" /></clipPath>
<path d="M596.5664063,1863 L596.6328125,1850" style="fill:none;stroke:rgb(128,128,128)" clip-path="url(#clip12)" />
<clipPath id="clip13"><path d="M14,14 L1181,14 L1181,1893 L14,1893 L14,14 Z" /></clipPath>
<path d="M596.6328125,1850 L596.5664063,1850 L596.5664063,1841" style="fill:none;stroke:rgb(128,128,128)" clip-path="url(#clip13)" />
<clipPath id="clip14"><path d="M470,1861 L724,1861 L724,1893 L470,1893 L470,1861 Z" /></clipPath>
<path d="M472,1863 L721,1863 L721,1890 L472,1890 Z M472,1863" style="fill:rgb(240,240,240);stroke:none" clip-path="url(#clip14)" />
<clipPath id="clip15"><path d="M470,1861 L724,1861 L724,1893 L470,1893 L470,1861 Z" /></clipPath>
<path d="M472,1863 L721,1863 L721,1890 L472,1890 Z M472,1863" style="fill:none;stroke:rgb(128,128,128)" clip-path="url(#clip15)" />
<text x="478" y="1875" style="font:10px Ubuntu">TrueCrypt v7.1 2011-09-01</text>
<clipPath id="clip16"><path d="M591,1850 L604,1850 L604,1863 L591,1863 L591,1850 Z" /></clipPath>
<path d="M601.5,1856 C601.5,1853.515625 599.484375,1851.5 597,1851.5 C594.515625,1851.5 592.5,1853.515625 592.5,1856 C592.5,1858.484375 594.515625,1860.5 597,1860.5 C599.484375,1860.5 601.5,1858.484375 601.5,1856 Z M601.5,1856" style="fill:rgb(210,230,255);stroke:none" clip-path="url(#clip16)" />
<clipPath id="clip17"><path d="M591,1850 L604,1850 L604,1863 L591,1863 L591,1850 Z" /></clipPath>
<path d="M601.5,1856 C601.5,1853.515625 599.484375,1851.5 597,1851.5 C594.515625,1851.5 592.5,1853.515625 592.5,1856 C592.5,1858.484375 594.515625,1860.5 597,1860.5 C599.484375,1860.5 601.5,1858.484375 601.5,1856 Z M601.5,1856" style="fill:none;stroke:rgb(180,200,240)" clip-path="url(#clip17)" />
<clipPath id="clip18"><path d="M591,1850 L604,1850 L604,1863 L591,1863 L591,1850 Z" /></clipPath>
<path d="M595,1856 L599,1856" style="fill:none;stroke:rgb(150,160,200)" clip-path="url(#clip18)" />
<clipPath id="clip19"><path d="M14,14 L1181,14 L1181,1844 L14,1844 L14,14 Z" /></clipPath>
<path d="M596.5664063,1814 L596.6328125,1801" style="fill:none;stroke:rgb(128,128,128)" clip-path="url(#clip19)" />
<clipPath id="clip20"><path d="M14,14 L1181,14 L1181,1844 L14,1844 L14,14 Z" /></clipPath>
<path d="M596.6328125,1801 L596.5664063,1801 L596.5664063,1792" style="fill:none;stroke:rgb(128,128,128)" clip-path="url(#clip20)" />
<clipPath id="clip21"><path d="M465,1812 L729,1812 L729,1844 L465,1844 L465,1812 Z" /></clipPath>
<path d="M467,1814 L726,1814 L726,1841 L467,1841 Z M467,1814" style="fill:rgb(240,240,240);stroke:none" clip-path="url(#clip21)" />
<clipPath id="clip22"><path d="M465,1812 L729,1812 L729,1844 L465,1844 L465,1812 Z" /></clipPath>
<path d="M467,1814 L726,1814 L726,1841 L467,1841 Z M467,1814" style="fill:none;stroke:rgb(128,128,128)" clip-path="url(#clip22)" />
<text x="473" y="1826" style="font:10px Ubuntu">TrueCrypt v7.0a 2010-09-06</text>
<clipPath id="clip23"><path d="M591,1801 L604,1801 L604,1814 L591,1814 L591,1801 Z" /></clipPath>
<path d="M601.5,1807 C601.5,1804.515625 599.484375,1802.5 597,1802.5 C594.515625,1802.5 592.5,1804.515625 592.5,1807 C592.5,1809.484375 594.515625,1811.5 597,1811.5 C599.484375,1811.5 601.5,1809.484375 601.5,1807 Z M601.5,1807" style="fill:rgb(210,230,255);stroke:none" clip-path="url(#clip23)" />
<clipPath id="clip24"><path d="M591,1801 L604,1801 L604,1814 L591,1814 L591,1801 Z" /></clipPath>
<path d="M601.5,1807 C601.5,1804.515625 599.484375,1802.5 597,1802.5 C594.515625,1802.5 592.5,1804.515625 592.5,1807 C592.5,1809.484375 594.515625,1811.5 597,1811.5 C599.484375,1811.5 601.5,1809.484375 601.5,1807 Z M601.5,1807" style="fill:none;stroke:rgb(180,200,240)" clip-path="url(#clip24)" />
<clipPath id="clip25"><path d="M591,1801 L604,1801 L604,1814 L591,1814 L591,1801 Z" /></clipPath>
<path d="M595,1807 L599,1807" style="fill:none;stroke:rgb(150,160,200)" clip-path="url(#clip25)" />
<clipPath id="clip26"><path d="M14,14 L1181,14 L1181,1795 L14,1795 L14,14 Z" /></clipPath>
<path d="M596.5664063,1765 L596.6328125,1752" style="fill:none;stroke:rgb(128,128,128)" clip-path="url(#clip26)" />
<clipPath id="clip27"><path d="M14,14 L1181,14 L1181,1795 L14,1795 L14,14 Z" /></clipPath>
<path d="M596.6328125,1752 L596.5664063,1752 L596.5664063,1743" style="fill:none;stroke:rgb(128,128,128)" clip-path="url(#clip27)" />
<clipPath id="clip28"><path d="M470,1763 L724,1763 L724,1795 L470,1795 L470,1763 Z" /></clipPath>
<path d="M472,1765 L721,1765 L721,1792 L472,1792 Z M472,1765" style="fill:rgb(240,240,240);stroke:none" clip-path="url(#clip28)" />
<clipPath id="clip29"><path d="M470,1763 L724,1763 L724,1795 L470,1795 L470,1763 Z" /></clipPath>
<path d="M472,1765 L721,1765 L721,1792 L472,1792 Z M472,1765" style="fill:none;stroke:rgb(128,128,128)" clip-path="url(#clip29)" />
<text x="478" y="1777" style="font:10px Ubuntu">TrueCrypt v7.0 2010-07-19</text>
<clipPath id="clip30"><path d="M591,1752 L604,1752 L604,1765 L591,1765 L591,1752 Z" /></clipPath>
<path d="M601.5,1758 C601.5,1755.515625 599.484375,1753.5 597,1753.5 C594.515625,1753.5 592.5,1755.515625 592.5,1758 C592.5,1760.484375 594.515625,1762.5 597,1762.5 C599.484375,1762.5 601.5,1760.484375 601.5,1758 Z M601.5,1758" style="fill:rgb(210,230,255);stroke:none" clip-path="url(#clip30)" />
<clipPath id="clip31"><path d="M591,1752 L604,1752 L604,1765 L591,1765 L591,1752 Z" /></clipPath>
<path d="M601.5,1758 C601.5,1755.515625 599.484375,1753.5 597,1753.5 C594.515625,1753.5 592.5,1755.515625 592.5,1758 C592.5,1760.484375 594.515625,1762.5 597,1762.5 C599.484375,1762.5 601.5,1760.484375 601.5,1758 Z M601.5,1758" style="fill:none;stroke:rgb(180,200,240)" clip-path="url(#clip31)" />
<clipPath id="clip32"><path d="M591,1752 L604,1752 L604,1765 L591,1765 L591,1752 Z" /></clipPath>
<path d="M595,1758 L599,1758" style="fill:none;stroke:rgb(150,160,200)" clip-path="url(#clip32)" />
<clipPath id="clip33"><path d="M14,14 L1181,14 L1181,1746 L14,1746 L14,14 Z" /></clipPath>
<path d="M596.5664063,1716 L596.6328125,1703" style="fill:none;stroke:rgb(128,128,128)" clip-path="url(#clip33)" />
<clipPath id="clip34"><path d="M14,14 L1181,14 L1181,1746 L14,1746 L14,14 Z" /></clipPath>
<path d="M596.6328125,1703 L596.5664063,1703 L596.5664063,1694" style="fill:none;stroke:rgb(128,128,128)" clip-path="url(#clip34)" />
<clipPath id="clip35"><path d="M465,1714 L729,1714 L729,1746 L465,1746 L465,1714 Z" /></clipPath>
<path d="M467,1716 L726,1716 L726,1743 L467,1743 Z M467,1716" style="fill:rgb(240,240,240);stroke:none" clip-path="url(#clip35)" />
<clipPath id="clip36"><path d="M465,1714 L729,1714 L729,1746 L465,1746 L465,1714 Z" /></clipPath>
<path d="M467,1716 L726,1716 L726,1743 L467,1743 Z M467,1716" style="fill:none;stroke:rgb(128,128,128)" clip-path="url(#clip36)" />
<text x="473" y="1728" style="font:10px Ubuntu">TrueCrypt v6.3a 2009-11-23</text>
<clipPath id="clip37"><path d="M591,1703 L604,1703 L604,1716 L591,1716 L591,1703 Z" /></clipPath>
<path d="M601.5,1709 C601.5,1706.515625 599.484375,1704.5 597,1704.5 C594.515625,1704.5 592.5,1706.515625 592.5,1709 C592.5,1711.484375 594.515625,1713.5 597,1713.5 C599.484375,1713.5 601.5,1711.484375 601.5,1709 Z M601.5,1709" style="fill:rgb(210,230,255);stroke:none" clip-path="url(#clip37)" />
<clipPath id="clip38"><path d="M591,1703 L604,1703 L604,1716 L591,1716 L591,1703 Z" /></clipPath>
<path d="M601.5,1709 C601.5,1706.515625 599.484375,1704.5 597,1704.5 C594.515625,1704.5 592.5,1706.515625 592.5,1709 C592.5,1711.484375 594.515625,1713.5 597,1713.5 C599.484375,1713.5 601.5,1711.484375 601.5,1709 Z M601.5,1709" style="fill:none;stroke:rgb(180,200,240)" clip-path="url(#clip38)" />
<clipPath id="clip39"><path d="M591,1703 L604,1703 L604,1716 L591,1716 L591,1703 Z" /></clipPath>
<path d="M595,1709 L599,1709" style="fill:none;stroke:rgb(150,160,200)" clip-path="url(#clip39)" />
<clipPath id="clip40"><path d="M14,14 L1181,14 L1181,1697 L14,1697 L14,14 Z" /></clipPath>
<path d="M596.5664063,1667 L596.6328125,1654" style="fill:none;stroke:rgb(128,128,128)" clip-path="url(#clip40)" />
<clipPath id="clip41"><path d="M14,14 L1181,14 L1181,1697 L14,1697 L14,14 Z" /></clipPath>
<path d="M596.6328125,1654 L596.5664063,1654 L596.5664063,1645" style="fill:none;stroke:rgb(128,128,128)" clip-path="url(#clip41)" />
<clipPath id="clip42"><path d="M470,1665 L724,1665 L724,1697 L470,1697 L470,1665 Z" /></clipPath>
<path d="M472,1667 L721,1667 L721,1694 L472,1694 Z M472,1667" style="fill:rgb(240,240,240);stroke:none" clip-path="url(#clip42)" />
<clipPath id="clip43"><path d="M470,1665 L724,1665 L724,1697 L470,1697 L470,1665 Z" /></clipPath>
<path d="M472,1667 L721,1667 L721,1694 L472,1694 Z M472,1667" style="fill:none;stroke:rgb(128,128,128)" clip-path="url(#clip43)" />
<text x="478" y="1679" style="font:10px Ubuntu">TrueCrypt v6.3 2009-10-21</text>
<clipPath id="clip44"><path d="M591,1654 L604,1654 L604,1667 L591,1667 L591,1654 Z" /></clipPath>
<path d="M601.5,1660 C601.5,1657.515625 599.484375,1655.5 597,1655.5 C594.515625,1655.5 592.5,1657.515625 592.5,1660 C592.5,1662.484375 594.515625,1664.5 597,1664.5 C599.484375,1664.5 601.5,1662.484375 601.5,1660 Z M601.5,1660" style="fill:rgb(210,230,255);stroke:none" clip-path="url(#clip44)" />
<clipPath id="clip45"><path d="M591,1654 L604,1654 L604,1667 L591,1667 L591,1654 Z" /></clipPath>
<path d="M601.5,1660 C601.5,1657.515625 599.484375,1655.5 597,1655.5 C594.515625,1655.5 592.5,1657.515625 592.5,1660 C592.5,1662.484375 594.515625,1664.5 597,1664.5 C599.484375,1664.5 601.5,1662.484375 601.5,1660 Z M601.5,1660" style="fill:none;stroke:rgb(180,200,240)" clip-path="url(#clip45)" />
<clipPath id="clip46"><path d="M591,1654 L604,1654 L604,1667 L591,1667 L591,1654 Z" /></clipPath>
<path d="M595,1660 L599,1660" style="fill:none;stroke:rgb(150,160,200)" clip-path="url(#clip46)" />
<clipPath id="clip47"><path d="M14,14 L1181,14 L1181,1648 L14,1648 L14,14 Z" /></clipPath>
<path d="M596.5664063,1618 L596.6328125,1605" style="fill:none;stroke:rgb(128,128,128)" clip-path="url(#clip47)" />
<clipPath id="clip48"><path d="M14,14 L1181,14 L1181,1648 L14,1648 L14,14 Z" /></clipPath>
<path d="M596.6328125,1605 L596.5664063,1605 L596.5664063,1596" style="fill:none;stroke:rgb(128,128,128)" clip-path="url(#clip48)" />
<clipPath id="clip49"><path d="M465,1616 L729,1616 L729,1648 L465,1648 L465,1616 Z" /></clipPath>
<path d="M467,1618 L726,1618 L726,1645 L467,1645 Z M467,1618" style="fill:rgb(240,240,240);stroke:none" clip-path="url(#clip49)" />
<clipPath id="clip50"><path d="M465,1616 L729,1616 L729,1648 L465,1648 L465,1616 Z" /></clipPath>
<path d="M467,1618 L726,1618 L726,1645 L467,1645 Z M467,1618" style="fill:none;stroke:rgb(128,128,128)" clip-path="url(#clip50)" />
<text x="473" y="1630" style="font:10px Ubuntu">TrueCrypt v6.2a 2009-06-15</text>
<clipPath id="clip51"><path d="M591,1605 L604,1605 L604,1618 L591,1618 L591,1605 Z" /></clipPath>
<path d="M601.5,1611 C601.5,1608.515625 599.484375,1606.5 597,1606.5 C594.515625,1606.5 592.5,1608.515625 592.5,1611 C592.5,1613.484375 594.515625,1615.5 597,1615.5 C599.484375,1615.5 601.5,1613.484375 601.5,1611 Z M601.5,1611" style="fill:rgb(210,230,255);stroke:none" clip-path="url(#clip51)" />
<clipPath id="clip52"><path d="M591,1605 L604,1605 L604,1618 L591,1618 L591,1605 Z" /></clipPath>
<path d="M601.5,1611 C601.5,1608.515625 599.484375,1606.5 597,1606.5 C594.515625,1606.5 592.5,1608.515625 592.5,1611 C592.5,1613.484375 594.515625,1615.5 597,1615.5 C599.484375,1615.5 601.5,1613.484375 601.5,1611 Z M601.5,1611" style="fill:none;stroke:rgb(180,200,240)" clip-path="url(#clip52)" />
<clipPath id="clip53"><path d="M591,1605 L604,1605 L604,1618 L591,1618 L591,1605 Z" /></clipPath>
<path d="M595,1611 L599,1611" style="fill:none;stroke:rgb(150,160,200)" clip-path="url(#clip53)" />
<clipPath id="clip54"><path d="M14,14 L1181,14 L1181,1599 L14,1599 L14,14 Z" /></clipPath>
<path d="M596.5664063,1569 L596.6328125,1556" style="fill:none;stroke:rgb(128,128,128)" clip-path="url(#clip54)" />
<clipPath id="clip55"><path d="M14,14 L1181,14 L1181,1599 L14,1599 L14,14 Z" /></clipPath>
<path d="M596.6328125,1556 L596.5664063,1556 L596.5664063,1547" style="fill:none;stroke:rgb(128,128,128)" clip-path="url(#clip55)" />
<clipPath id="clip56"><path d="M470,1567 L724,1567 L724,1599 L470,1599 L470,1567 Z" /></clipPath>
<path d="M472,1569 L721,1569 L721,1596 L472,1596 Z M472,1569" style="fill:rgb(240,240,240);stroke:none" clip-path="url(#clip56)" />
<clipPath id="clip57"><path d="M470,1567 L724,1567 L724,1599 L470,1599 L470,1567 Z" /></clipPath>
<path d="M472,1569 L721,1569 L721,1596 L472,1596 Z M472,1569" style="fill:none;stroke:rgb(128,128,128)" clip-path="url(#clip57)" />
<text x="478" y="1581" style="font:10px Ubuntu">TrueCrypt v6.2 2009-05-11</text>
<clipPath id="clip58"><path d="M591,1556 L604,1556 L604,1569 L591,1569 L591,1556 Z" /></clipPath>
<path d="M601.5,1562 C601.5,1559.515625 599.484375,1557.5 597,1557.5 C594.515625,1557.5 592.5,1559.515625 592.5,1562 C592.5,1564.484375 594.515625,1566.5 597,1566.5 C599.484375,1566.5 601.5,1564.484375 601.5,1562 Z M601.5,1562" style="fill:rgb(210,230,255);stroke:none" clip-path="url(#clip58)" />
<clipPath id="clip59"><path d="M591,1556 L604,1556 L604,1569 L591,1569 L591,1556 Z" /></clipPath>
<path d="M601.5,1562 C601.5,1559.515625 599.484375,1557.5 597,1557.5 C594.515625,1557.5 592.5,1559.515625 592.5,1562 C592.5,1564.484375 594.515625,1566.5 597,1566.5 C599.484375,1566.5 601.5,1564.484375 601.5,1562 Z M601.5,1562" style="fill:none;stroke:rgb(180,200,240)" clip-path="url(#clip59)" />
<clipPath id="clip60"><path d="M591,1556 L604,1556 L604,1569 L591,1569 L591,1556 Z" /></clipPath>
<path d="M595,1562 L599,1562" style="fill:none;stroke:rgb(150,160,200)" clip-path="url(#clip60)" />
<clipPath id="clip61"><path d="M14,14 L1181,14 L1181,1550 L14,1550 L14,14 Z" /></clipPath>
<path d="M596.5664063,1520 L596.6328125,1507" style="fill:none;stroke:rgb(128,128,128)" clip-path="url(#clip61)" />
<clipPath id="clip62"><path d="M14,14 L1181,14 L1181,1550 L14,1550 L14,14 Z" /></clipPath>
<path d="M596.6328125,1507 L596.5664063,1507 L596.5664063,1498" style="fill:none;stroke:rgb(128,128,128)" clip-path="url(#clip62)" />
<clipPath id="clip63"><path d="M465,1518 L729,1518 L729,1550 L465,1550 L465,1518 Z" /></clipPath>
<path d="M467,1520 L726,1520 L726,1547 L467,1547 Z M467,1520" style="fill:rgb(240,240,240);stroke:none" clip-path="url(#clip63)" />
<clipPath id="clip64"><path d="M465,1518 L729,1518 L729,1550 L465,1550 L465,1518 Z" /></clipPath>
<path d="M467,1520 L726,1520 L726,1547 L467,1547 Z M467,1520" style="fill:none;stroke:rgb(128,128,128)" clip-path="url(#clip64)" />
<text x="473" y="1532" style="font:10px Ubuntu">TrueCrypt v6.1a 2008-12-01</text>
<clipPath id="clip65"><path d="M591,1507 L604,1507 L604,1520 L591,1520 L591,1507 Z" /></clipPath>
<path d="M601.5,1513 C601.5,1510.515625 599.484375,1508.5 597,1508.5 C594.515625,1508.5 592.5,1510.515625 592.5,1513 C592.5,1515.484375 594.515625,1517.5 597,1517.5 C599.484375,1517.5 601.5,1515.484375 601.5,1513 Z M601.5,1513" style="fill:rgb(210,230,255);stroke:none" clip-path="url(#clip65)" />
<clipPath id="clip66"><path d="M591,1507 L604,1507 L604,1520 L591,1520 L591,1507 Z" /></clipPath>
<path d="M601.5,1513 C601.5,1510.515625 599.484375,1508.5 597,1508.5 C594.515625,1508.5 592.5,1510.515625 592.5,1513 C592.5,1515.484375 594.515625,1517.5 597,1517.5 C599.484375,1517.5 601.5,1515.484375 601.5,1513 Z M601.5,1513" style="fill:none;stroke:rgb(180,200,240)" clip-path="url(#clip66)" />
<clipPath id="clip67"><path d="M591,1507 L604,1507 L604,1520 L591,1520 L591,1507 Z" /></clipPath>
<path d="M595,1513 L599,1513" style="fill:none;stroke:rgb(150,160,200)" clip-path="url(#clip67)" />
<clipPath id="clip68"><path d="M14,14 L1181,14 L1181,1501 L14,1501 L14,14 Z" /></clipPath>
<path d="M596.5664063,1471 L596.6328125,1458" style="fill:none;stroke:rgb(128,128,128)" clip-path="url(#clip68)" />
<clipPath id="clip69"><path d="M14,14 L1181,14 L1181,1501 L14,1501 L14,14 Z" /></clipPath>
<path d="M596.6328125,1458 L596.5664063,1458 L596.5664063,1449" style="fill:none;stroke:rgb(128,128,128)" clip-path="url(#clip69)" />
<clipPath id="clip70"><path d="M470,1469 L724,1469 L724,1501 L470,1501 L470,1469 Z" /></clipPath>
<path d="M472,1471 L721,1471 L721,1498 L472,1498 Z M472,1471" style="fill:rgb(240,240,240);stroke:none" clip-path="url(#clip70)" />
<clipPath id="clip71"><path d="M470,1469 L724,1469 L724,1501 L470,1501 L470,1469 Z" /></clipPath>
<path d="M472,1471 L721,1471 L721,1498 L472,1498 Z M472,1471" style="fill:none;stroke:rgb(128,128,128)" clip-path="url(#clip71)" />
<text x="478" y="1483" style="font:10px Ubuntu">TrueCrypt v6.1 2008-10-31</text>
<clipPath id="clip72"><path d="M591,1458 L604,1458 L604,1471 L591,1471 L591,1458 Z" /></clipPath>
<path d="M601.5,1464 C601.5,1461.515625 599.484375,1459.5 597,1459.5 C594.515625,1459.5 592.5,1461.515625 592.5,1464 C592.5,1466.484375 594.515625,1468.5 597,1468.5 C599.484375,1468.5 601.5,1466.484375 601.5,1464 Z M601.5,1464" style="fill:rgb(210,230,255);stroke:none" clip-path="url(#clip72)" />
<clipPath id="clip73"><path d="M591,1458 L604,1458 L604,1471 L591,1471 L591,1458 Z" /></clipPath>
<path d="M601.5,1464 C601.5,1461.515625 599.484375,1459.5 597,1459.5 C594.515625,1459.5 592.5,1461.515625 592.5,1464 C592.5,1466.484375 594.515625,1468.5 597,1468.5 C599.484375,1468.5 601.5,1466.484375 601.5,1464 Z M601.5,1464" style="fill:none;stroke:rgb(180,200,240)" clip-path="url(#clip73)" />
<clipPath id="clip74"><path d="M591,1458 L604,1458 L604,1471 L591,1471 L591,1458 Z" /></clipPath>
<path d="M595,1464 L599,1464" style="fill:none;stroke:rgb(150,160,200)" clip-path="url(#clip74)" />
<clipPath id="clip75"><path d="M14,14 L1181,14 L1181,1452 L14,1452 L14,14 Z" /></clipPath>
<path d="M596.5664063,1422 L596.6328125,1409" style="fill:none;stroke:rgb(128,128,128)" clip-path="url(#clip75)" />
<clipPath id="clip76"><path d="M14,14 L1181,14 L1181,1452 L14,1452 L14,14 Z" /></clipPath>
<path d="M596.6328125,1409 L596.5664063,1409 L596.5664063,1400" style="fill:none;stroke:rgb(128,128,128)" clip-path="url(#clip76)" />
<clipPath id="clip77"><path d="M465,1420 L729,1420 L729,1452 L465,1452 L465,1420 Z" /></clipPath>
<path d="M467,1422 L726,1422 L726,1449 L467,1449 Z M467,1422" style="fill:rgb(240,240,240);stroke:none" clip-path="url(#clip77)" />
<clipPath id="clip78"><path d="M465,1420 L729,1420 L729,1452 L465,1452 L465,1420 Z" /></clipPath>
<path d="M467,1422 L726,1422 L726,1449 L467,1449 Z M467,1422" style="fill:none;stroke:rgb(128,128,128)" clip-path="url(#clip78)" />
<text x="473" y="1434" style="font:10px Ubuntu">TrueCrypt v6.0a 2008-07-08</text>
<clipPath id="clip79"><path d="M591,1409 L604,1409 L604,1422 L591,1422 L591,1409 Z" /></clipPath>
<path d="M601.5,1415 C601.5,1412.515625 599.484375,1410.5 597,1410.5 C594.515625,1410.5 592.5,1412.515625 592.5,1415 C592.5,1417.484375 594.515625,1419.5 597,1419.5 C599.484375,1419.5 601.5,1417.484375 601.5,1415 Z M601.5,1415" style="fill:rgb(210,230,255);stroke:none" clip-path="url(#clip79)" />
<clipPath id="clip80"><path d="M591,1409 L604,1409 L604,1422 L591,1422 L591,1409 Z" /></clipPath>
<path d="M601.5,1415 C601.5,1412.515625 599.484375,1410.5 597,1410.5 C594.515625,1410.5 592.5,1412.515625 592.5,1415 C592.5,1417.484375 594.515625,1419.5 597,1419.5 C599.484375,1419.5 601.5,1417.484375 601.5,1415 Z M601.5,1415" style="fill:none;stroke:rgb(180,200,240)" clip-path="url(#clip80)" />
<clipPath id="clip81"><path d="M591,1409 L604,1409 L604,1422 L591,1422 L591,1409 Z" /></clipPath>
<path d="M595,1415 L599,1415" style="fill:none;stroke:rgb(150,160,200)" clip-path="url(#clip81)" />
<clipPath id="clip82"><path d="M14,14 L1181,14 L1181,1403 L14,1403 L14,14 Z" /></clipPath>
<path d="M596.5664063,1373 L596.6328125,1360" style="fill:none;stroke:rgb(128,128,128)" clip-path="url(#clip82)" />
<clipPath id="clip83"><path d="M14,14 L1181,14 L1181,1403 L14,1403 L14,14 Z" /></clipPath>
<path d="M596.6328125,1360 L596.5664063,1360 L596.5664063,1351" style="fill:none;stroke:rgb(128,128,128)" clip-path="url(#clip83)" />
<clipPath id="clip84"><path d="M470,1371 L724,1371 L724,1403 L470,1403 L470,1371 Z" /></clipPath>
<path d="M472,1373 L721,1373 L721,1400 L472,1400 Z M472,1373" style="fill:rgb(240,240,240);stroke:none" clip-path="url(#clip84)" />
<clipPath id="clip85"><path d="M470,1371 L724,1371 L724,1403 L470,1403 L470,1371 Z" /></clipPath>
<path d="M472,1373 L721,1373 L721,1400 L472,1400 Z M472,1373" style="fill:none;stroke:rgb(128,128,128)" clip-path="url(#clip85)" />
<text x="478" y="1385" style="font:10px Ubuntu">TrueCrypt v6.0 2008-07-04</text>
<clipPath id="clip86"><path d="M591,1360 L604,1360 L604,1373 L591,1373 L591,1360 Z" /></clipPath>
<path d="M601.5,1366 C601.5,1363.515625 599.484375,1361.5 597,1361.5 C594.515625,1361.5 592.5,1363.515625 592.5,1366 C592.5,1368.484375 594.515625,1370.5 597,1370.5 C599.484375,1370.5 601.5,1368.484375 601.5,1366 Z M601.5,1366" style="fill:rgb(210,230,255);stroke:none" clip-path="url(#clip86)" />
<clipPath id="clip87"><path d="M591,1360 L604,1360 L604,1373 L591,1373 L591,1360 Z" /></clipPath>
<path d="M601.5,1366 C601.5,1363.515625 599.484375,1361.5 597,1361.5 C594.515625,1361.5 592.5,1363.515625 592.5,1366 C592.5,1368.484375 594.515625,1370.5 597,1370.5 C599.484375,1370.5 601.5,1368.484375 601.5,1366 Z M601.5,1366" style="fill:none;stroke:rgb(180,200,240)" clip-path="url(#clip87)" />
<clipPath id="clip88"><path d="M591,1360 L604,1360 L604,1373 L591,1373 L591,1360 Z" /></clipPath>
<path d="M595,1366 L599,1366" style="fill:none;stroke:rgb(150,160,200)" clip-path="url(#clip88)" />
<clipPath id="clip89"><path d="M14,14 L1181,14 L1181,1354 L14,1354 L14,14 Z" /></clipPath>
<path d="M596.5664063,1324 L596.6328125,1311" style="fill:none;stroke:rgb(128,128,128)" clip-path="url(#clip89)" />
<clipPath id="clip90"><path d="M14,14 L1181,14 L1181,1354 L14,1354 L14,14 Z" /></clipPath>
<path d="M596.6328125,1311 L596.5664063,1311 L596.5664063,1302" style="fill:none;stroke:rgb(128,128,128)" clip-path="url(#clip90)" />
<clipPath id="clip91"><path d="M465,1322 L729,1322 L729,1354 L465,1354 L465,1322 Z" /></clipPath>
<path d="M467,1324 L726,1324 L726,1351 L467,1351 Z M467,1324" style="fill:rgb(240,240,240);stroke:none" clip-path="url(#clip91)" />
<clipPath id="clip92"><path d="M465,1322 L729,1322 L729,1354 L465,1354 L465,1322 Z" /></clipPath>
<path d="M467,1324 L726,1324 L726,1351 L467,1351 Z M467,1324" style="fill:none;stroke:rgb(128,128,128)" clip-path="url(#clip92)" />
<text x="473" y="1336" style="font:10px Ubuntu">TrueCrypt v5.1a 2008-03-16</text>
<clipPath id="clip93"><path d="M591,1311 L604,1311 L604,1324 L591,1324 L591,1311 Z" /></clipPath>
<path d="M601.5,1317 C601.5,1314.515625 599.484375,1312.5 597,1312.5 C594.515625,1312.5 592.5,1314.515625 592.5,1317 C592.5,1319.484375 594.515625,1321.5 597,1321.5 C599.484375,1321.5 601.5,1319.484375 601.5,1317 Z M601.5,1317" style="fill:rgb(210,230,255);stroke:none" clip-path="url(#clip93)" />
<clipPath id="clip94"><path d="M591,1311 L604,1311 L604,1324 L591,1324 L591,1311 Z" /></clipPath>
<path d="M601.5,1317 C601.5,1314.515625 599.484375,1312.5 597,1312.5 C594.515625,1312.5 592.5,1314.515625 592.5,1317 C592.5,1319.484375 594.515625,1321.5 597,1321.5 C599.484375,1321.5 601.5,1319.484375 601.5,1317 Z M601.5,1317" style="fill:none;stroke:rgb(180,200,240)" clip-path="url(#clip94)" />
<clipPath id="clip95"><path d="M591,1311 L604,1311 L604,1324 L591,1324 L591,1311 Z" /></clipPath>
<path d="M595,1317 L599,1317" style="fill:none;stroke:rgb(150,160,200)" clip-path="url(#clip95)" />
<clipPath id="clip96"><path d="M14,14 L1181,14 L1181,1305 L14,1305 L14,14 Z" /></clipPath>
<path d="M596.5664063,1275 L596.6328125,1262" style="fill:none;stroke:rgb(128,128,128)" clip-path="url(#clip96)" />
<clipPath id="clip97"><path d="M14,14 L1181,14 L1181,1305 L14,1305 L14,14 Z" /></clipPath>
<path d="M596.6328125,1262 L596.5664063,1262 L596.5664063,1253" style="fill:none;stroke:rgb(128,128,128)" clip-path="url(#clip97)" />
<clipPath id="clip98"><path d="M470,1273 L724,1273 L724,1305 L470,1305 L470,1273 Z" /></clipPath>
<path d="M472,1275 L721,1275 L721,1302 L472,1302 Z M472,1275" style="fill:rgb(240,240,240);stroke:none" clip-path="url(#clip98)" />
<clipPath id="clip99"><path d="M470,1273 L724,1273 L724,1305 L470,1305 L470,1273 Z" /></clipPath>
<path d="M472,1275 L721,1275 L721,1302 L472,1302 Z M472,1275" style="fill:none;stroke:rgb(128,128,128)" clip-path="url(#clip99)" />
<text x="478" y="1287" style="font:10px Ubuntu">TrueCrypt v5.1 2008-03-10</text>
<clipPath id="clip100"><path d="M591,1262 L604,1262 L604,1275 L591,1275 L591,1262 Z" /></clipPath>
<path d="M601.5,1268 C601.5,1265.515625 599.484375,1263.5 597,1263.5 C594.515625,1263.5 592.5,1265.515625 592.5,1268 C592.5,1270.484375 594.515625,1272.5 597,1272.5 C599.484375,1272.5 601.5,1270.484375 601.5,1268 Z M601.5,1268" style="fill:rgb(210,230,255);stroke:none" clip-path="url(#clip100)" />
<clipPath id="clip101"><path d="M591,1262 L604,1262 L604,1275 L591,1275 L591,1262 Z" /></clipPath>
<path d="M601.5,1268 C601.5,1265.515625 599.484375,1263.5 597,1263.5 C594.515625,1263.5 592.5,1265.515625 592.5,1268 C592.5,1270.484375 594.515625,1272.5 597,1272.5 C599.484375,1272.5 601.5,1270.484375 601.5,1268 Z M601.5,1268" style="fill:none;stroke:rgb(180,200,240)" clip-path="url(#clip101)" />
<clipPath id="clip102"><path d="M591,1262 L604,1262 L604,1275 L591,1275 L591,1262 Z" /></clipPath>
<path d="M595,1268 L599,1268" style="fill:none;stroke:rgb(150,160,200)" clip-path="url(#clip102)" />
<clipPath id="clip103"><path d="M14,14 L1181,14 L1181,1256 L14,1256 L14,14 Z" /></clipPath>
<path d="M596.5664063,1226 L596.6328125,1213" style="fill:none;stroke:rgb(128,128,128)" clip-path="url(#clip103)" />
<clipPath id="clip104"><path d="M14,14 L1181,14 L1181,1256 L14,1256 L14,14 Z" /></clipPath>
<path d="M596.6328125,1213 L596.5664063,1213 L596.5664063,1204" style="fill:none;stroke:rgb(128,128,128)" clip-path="url(#clip104)" />
<clipPath id="clip105"><path d="M465,1224 L729,1224 L729,1256 L465,1256 L465,1224 Z" /></clipPath>
<path d="M467,1226 L726,1226 L726,1253 L467,1253 Z M467,1226" style="fill:rgb(240,240,240);stroke:none" clip-path="url(#clip105)" />
<clipPath id="clip106"><path d="M465,1224 L729,1224 L729,1256 L465,1256 L465,1224 Z" /></clipPath>
<path d="M467,1226 L726,1226 L726,1253 L467,1253 Z M467,1226" style="fill:none;stroke:rgb(128,128,128)" clip-path="url(#clip106)" />
<text x="473" y="1238" style="font:10px Ubuntu">TrueCrypt v5.0a 2008-02-12</text>
<clipPath id="clip107"><path d="M591,1213 L604,1213 L604,1226 L591,1226 L591,1213 Z" /></clipPath>
<path d="M601.5,1219 C601.5,1216.515625 599.484375,1214.5 597,1214.5 C594.515625,1214.5 592.5,1216.515625 592.5,1219 C592.5,1221.484375 594.515625,1223.5 597,1223.5 C599.484375,1223.5 601.5,1221.484375 601.5,1219 Z M601.5,1219" style="fill:rgb(210,230,255);stroke:none" clip-path="url(#clip107)" />
<clipPath id="clip108"><path d="M591,1213 L604,1213 L604,1226 L591,1226 L591,1213 Z" /></clipPath>
<path d="M601.5,1219 C601.5,1216.515625 599.484375,1214.5 597,1214.5 C594.515625,1214.5 592.5,1216.515625 592.5,1219 C592.5,1221.484375 594.515625,1223.5 597,1223.5 C599.484375,1223.5 601.5,1221.484375 601.5,1219 Z M601.5,1219" style="fill:none;stroke:rgb(180,200,240)" clip-path="url(#clip108)" />
<clipPath id="clip109"><path d="M591,1213 L604,1213 L604,1226 L591,1226 L591,1213 Z" /></clipPath>
<path d="M595,1219 L599,1219" style="fill:none;stroke:rgb(150,160,200)" clip-path="url(#clip109)" />
<clipPath id="clip110"><path d="M14,14 L1181,14 L1181,1207 L14,1207 L14,14 Z" /></clipPath>
<path d="M596.5664063,1177 L596.6328125,1164" style="fill:none;stroke:rgb(128,128,128)" clip-path="url(#clip110)" />
<clipPath id="clip111"><path d="M14,14 L1181,14 L1181,1207 L14,1207 L14,14 Z" /></clipPath>
<path d="M596.6328125,1164 L596.5664063,1164 L596.5664063,1155" style="fill:none;stroke:rgb(128,128,128)" clip-path="url(#clip111)" />
<clipPath id="clip112"><path d="M470,1175 L724,1175 L724,1207 L470,1207 L470,1175 Z" /></clipPath>
<path d="M472,1177 L721,1177 L721,1204 L472,1204 Z M472,1177" style="fill:rgb(240,240,240);stroke:none" clip-path="url(#clip112)" />
<clipPath id="clip113"><path d="M470,1175 L724,1175 L724,1207 L470,1207 L470,1175 Z" /></clipPath>
<path d="M472,1177 L721,1177 L721,1204 L472,1204 Z M472,1177" style="fill:none;stroke:rgb(128,128,128)" clip-path="url(#clip113)" />
<text x="478" y="1189" style="font:10px Ubuntu">TrueCrypt v5.0 2008-02-05</text>
<clipPath id="clip114"><path d="M591,1164 L604,1164 L604,1177 L591,1177 L591,1164 Z" /></clipPath>
<path d="M601.5,1170 C601.5,1167.515625 599.484375,1165.5 597,1165.5 C594.515625,1165.5 592.5,1167.515625 592.5,1170 C592.5,1172.484375 594.515625,1174.5 597,1174.5 C599.484375,1174.5 601.5,1172.484375 601.5,1170 Z M601.5,1170" style="fill:rgb(210,230,255);stroke:none" clip-path="url(#clip114)" />
<clipPath id="clip115"><path d="M591,1164 L604,1164 L604,1177 L591,1177 L591,1164 Z" /></clipPath>
<path d="M601.5,1170 C601.5,1167.515625 599.484375,1165.5 597,1165.5 C594.515625,1165.5 592.5,1167.515625 592.5,1170 C592.5,1172.484375 594.515625,1174.5 597,1174.5 C599.484375,1174.5 601.5,1172.484375 601.5,1170 Z M601.5,1170" style="fill:none;stroke:rgb(180,200,240)" clip-path="url(#clip115)" />
<clipPath id="clip116"><path d="M591,1164 L604,1164 L604,1177 L591,1177 L591,1164 Z" /></clipPath>
<path d="M595,1170 L599,1170" style="fill:none;stroke:rgb(150,160,200)" clip-path="url(#clip116)" />
<clipPath id="clip117"><path d="M14,14 L1181,14 L1181,1158 L14,1158 L14,14 Z" /></clipPath>
<path d="M596.5664063,1128 L596.6328125,1115" style="fill:none;stroke:rgb(128,128,128)" clip-path="url(#clip117)" />
<clipPath id="clip118"><path d="M14,14 L1181,14 L1181,1158 L14,1158 L14,14 Z" /></clipPath>
<path d="M596.6328125,1115 L596.5664063,1115 L596.5664063,1106" style="fill:none;stroke:rgb(128,128,128)" clip-path="url(#clip118)" />
<clipPath id="clip119"><path d="M465,1126 L729,1126 L729,1158 L465,1158 L465,1126 Z" /></clipPath>
<path d="M467,1128 L726,1128 L726,1155 L467,1155 Z M467,1128" style="fill:rgb(240,240,240);stroke:none" clip-path="url(#clip119)" />
<clipPath id="clip120"><path d="M465,1126 L729,1126 L729,1158 L465,1158 L465,1126 Z" /></clipPath>
<path d="M467,1128 L726,1128 L726,1155 L467,1155 Z M467,1128" style="fill:none;stroke:rgb(128,128,128)" clip-path="url(#clip120)" />
<text x="473" y="1140" style="font:10px Ubuntu">TrueCrypt v4.3a 2007-05-03</text>
<clipPath id="clip121"><path d="M591,1115 L604,1115 L604,1128 L591,1128 L591,1115 Z" /></clipPath>
<path d="M601.5,1121 C601.5,1118.515625 599.484375,1116.5 597,1116.5 C594.515625,1116.5 592.5,1118.515625 592.5,1121 C592.5,1123.484375 594.515625,1125.5 597,1125.5 C599.484375,1125.5 601.5,1123.484375 601.5,1121 Z M601.5,1121" style="fill:rgb(210,230,255);stroke:none" clip-path="url(#clip121)" />
<clipPath id="clip122"><path d="M591,1115 L604,1115 L604,1128 L591,1128 L591,1115 Z" /></clipPath>
<path d="M601.5,1121 C601.5,1118.515625 599.484375,1116.5 597,1116.5 C594.515625,1116.5 592.5,1118.515625 592.5,1121 C592.5,1123.484375 594.515625,1125.5 597,1125.5 C599.484375,1125.5 601.5,1123.484375 601.5,1121 Z M601.5,1121" style="fill:none;stroke:rgb(180,200,240)" clip-path="url(#clip122)" />
<clipPath id="clip123"><path d="M591,1115 L604,1115 L604,1128 L591,1128 L591,1115 Z" /></clipPath>
<path d="M595,1121 L599,1121" style="fill:none;stroke:rgb(150,160,200)" clip-path="url(#clip123)" />
<clipPath id="clip124"><path d="M14,14 L1181,14 L1181,1109 L14,1109 L14,14 Z" /></clipPath>
<path d="M596.5664063,1079 L596.6328125,1066" style="fill:none;stroke:rgb(128,128,128)" clip-path="url(#clip124)" />
<clipPath id="clip125"><path d="M14,14 L1181,14 L1181,1109 L14,1109 L14,14 Z" /></clipPath>
<path d="M596.6328125,1066 L596.5664063,1066 L596.5664063,1057" style="fill:none;stroke:rgb(128,128,128)" clip-path="url(#clip125)" />
<clipPath id="clip126"><path d="M470,1077 L724,1077 L724,1109 L470,1109 L470,1077 Z" /></clipPath>
<path d="M472,1079 L721,1079 L721,1106 L472,1106 Z M472,1079" style="fill:rgb(240,240,240);stroke:none" clip-path="url(#clip126)" />
<clipPath id="clip127"><path d="M470,1077 L724,1077 L724,1109 L470,1109 L470,1077 Z" /></clipPath>
<path d="M472,1079 L721,1079 L721,1106 L472,1106 Z M472,1079" style="fill:none;stroke:rgb(128,128,128)" clip-path="url(#clip127)" />
<text x="478" y="1091" style="font:10px Ubuntu">TrueCrypt v4.3 2007-03-19</text>
<clipPath id="clip128"><path d="M591,1066 L604,1066 L604,1079 L591,1079 L591,1066 Z" /></clipPath>
<path d="M601.5,1072 C601.5,1069.515625 599.484375,1067.5 597,1067.5 C594.515625,1067.5 592.5,1069.515625 592.5,1072 C592.5,1074.484375 594.515625,1076.5 597,1076.5 C599.484375,1076.5 601.5,1074.484375 601.5,1072 Z M601.5,1072" style="fill:rgb(210,230,255);stroke:none" clip-path="url(#clip128)" />
<clipPath id="clip129"><path d="M591,1066 L604,1066 L604,1079 L591,1079 L591,1066 Z" /></clipPath>
<path d="M601.5,1072 C601.5,1069.515625 599.484375,1067.5 597,1067.5 C594.515625,1067.5 592.5,1069.515625 592.5,1072 C592.5,1074.484375 594.515625,1076.5 597,1076.5 C599.484375,1076.5 601.5,1074.484375 601.5,1072 Z M601.5,1072" style="fill:none;stroke:rgb(180,200,240)" clip-path="url(#clip129)" />
<clipPath id="clip130"><path d="M591,1066 L604,1066 L604,1079 L591,1079 L591,1066 Z" /></clipPath>
<path d="M595,1072 L599,1072" style="fill:none;stroke:rgb(150,160,200)" clip-path="url(#clip130)" />
<clipPath id="clip131"><path d="M14,14 L1181,14 L1181,1060 L14,1060 L14,14 Z" /></clipPath>
<path d="M596.5664063,1030 L596.6328125,1017" style="fill:none;stroke:rgb(128,128,128)" clip-path="url(#clip131)" />
<clipPath id="clip132"><path d="M14,14 L1181,14 L1181,1060 L14,1060 L14,14 Z" /></clipPath>
<path d="M596.6328125,1017 L596.5664063,1017 L596.5664063,1008" style="fill:none;stroke:rgb(128,128,128)" clip-path="url(#clip132)" />
<clipPath id="clip133"><path d="M465,1028 L729,1028 L729,1060 L465,1060 L465,1028 Z" /></clipPath>
<path d="M467,1030 L726,1030 L726,1057 L467,1057 Z M467,1030" style="fill:rgb(240,240,240);stroke:none" clip-path="url(#clip133)" />
<clipPath id="clip134"><path d="M465,1028 L729,1028 L729,1060 L465,1060 L465,1028 Z" /></clipPath>
<path d="M467,1030 L726,1030 L726,1057 L467,1057 Z M467,1030" style="fill:none;stroke:rgb(128,128,128)" clip-path="url(#clip134)" />
<text x="473" y="1042" style="font:10px Ubuntu">TrueCrypt v4.2a 2006-07-03</text>
<clipPath id="clip135"><path d="M591,1017 L604,1017 L604,1030 L591,1030 L591,1017 Z" /></clipPath>
<path d="M601.5,1023 C601.5,1020.515625 599.484375,1018.5 597,1018.5 C594.515625,1018.5 592.5,1020.515625 592.5,1023 C592.5,1025.484375 594.515625,1027.5 597,1027.5 C599.484375,1027.5 601.5,1025.484375 601.5,1023 Z M601.5,1023" style="fill:rgb(210,230,255);stroke:none" clip-path="url(#clip135)" />
<clipPath id="clip136"><path d="M591,1017 L604,1017 L604,1030 L591,1030 L591,1017 Z" /></clipPath>
<path d="M601.5,1023 C601.5,1020.515625 599.484375,1018.5 597,1018.5 C594.515625,1018.5 592.5,1020.515625 592.5,1023 C592.5,1025.484375 594.515625,1027.5 597,1027.5 C599.484375,1027.5 601.5,1025.484375 601.5,1023 Z M601.5,1023" style="fill:none;stroke:rgb(180,200,240)" clip-path="url(#clip136)" />
<clipPath id="clip137"><path d="M591,1017 L604,1017 L604,1030 L591,1030 L591,1017 Z" /></clipPath>
<path d="M595,1023 L599,1023" style="fill:none;stroke:rgb(150,160,200)" clip-path="url(#clip137)" />
<clipPath id="clip138"><path d="M14,14 L1181,14 L1181,1011 L14,1011 L14,14 Z" /></clipPath>
<path d="M596.5664063,981 L596.6328125,968" style="fill:none;stroke:rgb(128,128,128)" clip-path="url(#clip138)" />
<clipPath id="clip139"><path d="M14,14 L1181,14 L1181,1011 L14,1011 L14,14 Z" /></clipPath>
<path d="M596.6328125,968 L596.5664063,968 L596.5664063,959" style="fill:none;stroke:rgb(128,128,128)" clip-path="url(#clip139)" />
<clipPath id="clip140"><path d="M470,979 L724,979 L724,1011 L470,1011 L470,979 Z" /></clipPath>
<path d="M472,981 L721,981 L721,1008 L472,1008 Z M472,981" style="fill:rgb(240,240,240);stroke:none" clip-path="url(#clip140)" />
<clipPath id="clip141"><path d="M470,979 L724,979 L724,1011 L470,1011 L470,979 Z" /></clipPath>
<path d="M472,981 L721,981 L721,1008 L472,1008 Z M472,981" style="fill:none;stroke:rgb(128,128,128)" clip-path="url(#clip141)" />
<text x="478" y="993" style="font:10px Ubuntu">TrueCrypt v4.2 2006-04-17</text>
<clipPath id="clip142"><path d="M591,968 L604,968 L604,981 L591,981 L591,968 Z" /></clipPath>
<path d="M601.5,974 C601.5,971.515625 599.484375,969.5 597,969.5 C594.515625,969.5 592.5,971.515625 592.5,974 C592.5,976.484375 594.515625,978.5 597,978.5 C599.484375,978.5 601.5,976.484375 601.5,974 Z M601.5,974" style="fill:rgb(210,230,255);stroke:none" clip-path="url(#clip142)" />
<clipPath id="clip143"><path d="M591,968 L604,968 L604,981 L591,981 L591,968 Z" /></clipPath>
<path d="M601.5,974 C601.5,971.515625 599.484375,969.5 597,969.5 C594.515625,969.5 592.5,971.515625 592.5,974 C592.5,976.484375 594.515625,978.5 597,978.5 C599.484375,978.5 601.5,976.484375 601.5,974 Z M601.5,974" style="fill:none;stroke:rgb(180,200,240)" clip-path="url(#clip143)" />
<clipPath id="clip144"><path d="M591,968 L604,968 L604,981 L591,981 L591,968 Z" /></clipPath>
<path d="M595,974 L599,974" style="fill:none;stroke:rgb(150,160,200)" clip-path="url(#clip144)" />
<clipPath id="clip145"><path d="M14,14 L1181,14 L1181,962 L14,962 L14,14 Z" /></clipPath>
<path d="M596.5664063,932 L596.6328125,919" style="fill:none;stroke:rgb(128,128,128)" clip-path="url(#clip145)" />
<clipPath id="clip146"><path d="M14,14 L1181,14 L1181,962 L14,962 L14,14 Z" /></clipPath>
<path d="M596.6328125,919 L596.5664063,919 L596.5664063,910" style="fill:none;stroke:rgb(128,128,128)" clip-path="url(#clip146)" />
<clipPath id="clip147"><path d="M470,930 L724,930 L724,962 L470,962 L470,930 Z" /></clipPath>
<path d="M472,932 L721,932 L721,959 L472,959 Z M472,932" style="fill:rgb(240,240,240);stroke:none" clip-path="url(#clip147)" />
<clipPath id="clip148"><path d="M470,930 L724,930 L724,962 L470,962 L470,930 Z" /></clipPath>
<path d="M472,932 L721,932 L721,959 L472,959 Z M472,932" style="fill:none;stroke:rgb(128,128,128)" clip-path="url(#clip148)" />
<text x="478" y="944" style="font:10px Ubuntu">TrueCrypt v4.1 2005-11-25</text>
<clipPath id="clip149"><path d="M591,919 L604,919 L604,932 L591,932 L591,919 Z" /></clipPath>
<path d="M601.5,925 C601.5,922.515625 599.484375,920.5 597,920.5 C594.515625,920.5 592.5,922.515625 592.5,925 C592.5,927.484375 594.515625,929.5 597,929.5 C599.484375,929.5 601.5,927.484375 601.5,925 Z M601.5,925" style="fill:rgb(210,230,255);stroke:none" clip-path="url(#clip149)" />
<clipPath id="clip150"><path d="M591,919 L604,919 L604,932 L591,932 L591,919 Z" /></clipPath>
<path d="M601.5,925 C601.5,922.515625 599.484375,920.5 597,920.5 C594.515625,920.5 592.5,922.515625 592.5,925 C592.5,927.484375 594.515625,929.5 597,929.5 C599.484375,929.5 601.5,927.484375 601.5,925 Z M601.5,925" style="fill:none;stroke:rgb(180,200,240)" clip-path="url(#clip150)" />
<clipPath id="clip151"><path d="M591,919 L604,919 L604,932 L591,932 L591,919 Z" /></clipPath>
<path d="M595,925 L599,925" style="fill:none;stroke:rgb(150,160,200)" clip-path="url(#clip151)" />
<clipPath id="clip152"><path d="M14,14 L1181,14 L1181,913 L14,913 L14,14 Z" /></clipPath>
<path d="M596.5664063,883 L596.6328125,870" style="fill:none;stroke:rgb(128,128,128)" clip-path="url(#clip152)" />
<clipPath id="clip153"><path d="M14,14 L1181,14 L1181,913 L14,913 L14,14 Z" /></clipPath>
<path d="M596.6328125,870 L596.5664063,870 L596.5664063,861" style="fill:none;stroke:rgb(128,128,128)" clip-path="url(#clip153)" />
<clipPath id="clip154"><path d="M470,881 L724,881 L724,913 L470,913 L470,881 Z" /></clipPath>
<path d="M472,883 L721,883 L721,910 L472,910 Z M472,883" style="fill:rgb(240,240,240);stroke:none" clip-path="url(#clip154)" />
<clipPath id="clip155"><path d="M470,881 L724,881 L724,913 L470,913 L470,881 Z" /></clipPath>
<path d="M472,883 L721,883 L721,910 L472,910 Z M472,883" style="fill:none;stroke:rgb(128,128,128)" clip-path="url(#clip155)" />
<text x="478" y="895" style="font:10px Ubuntu">TrueCrypt v4.0 2005-11-01</text>
<clipPath id="clip156"><path d="M591,870 L604,870 L604,883 L591,883 L591,870 Z" /></clipPath>
<path d="M601.5,876 C601.5,873.515625 599.484375,871.5 597,871.5 C594.515625,871.5 592.5,873.515625 592.5,876 C592.5,878.484375 594.515625,880.5 597,880.5 C599.484375,880.5 601.5,878.484375 601.5,876 Z M601.5,876" style="fill:rgb(210,230,255);stroke:none" clip-path="url(#clip156)" />
<clipPath id="clip157"><path d="M591,870 L604,870 L604,883 L591,883 L591,870 Z" /></clipPath>
<path d="M601.5,876 C601.5,873.515625 599.484375,871.5 597,871.5 C594.515625,871.5 592.5,873.515625 592.5,876 C592.5,878.484375 594.515625,880.5 597,880.5 C599.484375,880.5 601.5,878.484375 601.5,876 Z M601.5,876" style="fill:none;stroke:rgb(180,200,240)" clip-path="url(#clip157)" />
<clipPath id="clip158"><path d="M591,870 L604,870 L604,883 L591,883 L591,870 Z" /></clipPath>
<path d="M595,876 L599,876" style="fill:none;stroke:rgb(150,160,200)" clip-path="url(#clip158)" />
<clipPath id="clip159"><path d="M14,14 L1181,14 L1181,864 L14,864 L14,14 Z" /></clipPath>
<path d="M596.5664063,834 L596.6328125,821" style="fill:none;stroke:rgb(128,128,128)" clip-path="url(#clip159)" />
<clipPath id="clip160"><path d="M14,14 L1181,14 L1181,864 L14,864 L14,14 Z" /></clipPath>
<path d="M596.6328125,821 L596.5664063,821 L596.5664063,812" style="fill:none;stroke:rgb(128,128,128)" clip-path="url(#clip160)" />
<clipPath id="clip161"><path d="M465,832 L729,832 L729,864 L465,864 L465,832 Z" /></clipPath>
<path d="M467,834 L726,834 L726,861 L467,861 Z M467,834" style="fill:rgb(240,240,240);stroke:none" clip-path="url(#clip161)" />
<clipPath id="clip162"><path d="M465,832 L729,832 L729,864 L465,864 L465,832 Z" /></clipPath>
<path d="M467,834 L726,834 L726,861 L467,861 Z M467,834" style="fill:none;stroke:rgb(128,128,128)" clip-path="url(#clip162)" />
<text x="473" y="846" style="font:10px Ubuntu">TrueCrypt v3.1a 2005-02-07</text>
<clipPath id="clip163"><path d="M591,821 L604,821 L604,834 L591,834 L591,821 Z" /></clipPath>
<path d="M601.5,827 C601.5,824.515625 599.484375,822.5 597,822.5 C594.515625,822.5 592.5,824.515625 592.5,827 C592.5,829.484375 594.515625,831.5 597,831.5 C599.484375,831.5 601.5,829.484375 601.5,827 Z M601.5,827" style="fill:rgb(210,230,255);stroke:none" clip-path="url(#clip163)" />
<clipPath id="clip164"><path d="M591,821 L604,821 L604,834 L591,834 L591,821 Z" /></clipPath>
<path d="M601.5,827 C601.5,824.515625 599.484375,822.5 597,822.5 C594.515625,822.5 592.5,824.515625 592.5,827 C592.5,829.484375 594.515625,831.5 597,831.5 C599.484375,831.5 601.5,829.484375 601.5,827 Z M601.5,827" style="fill:none;stroke:rgb(180,200,240)" clip-path="url(#clip164)" />
<clipPath id="clip165"><path d="M591,821 L604,821 L604,834 L591,834 L591,821 Z" /></clipPath>
<path d="M595,827 L599,827" style="fill:none;stroke:rgb(150,160,200)" clip-path="url(#clip165)" />
<clipPath id="clip166"><path d="M14,14 L1181,14 L1181,815 L14,815 L14,14 Z" /></clipPath>
<path d="M596.5664063,785 L596.6328125,772" style="fill:none;stroke:rgb(128,128,128)" clip-path="url(#clip166)" />
<clipPath id="clip167"><path d="M14,14 L1181,14 L1181,815 L14,815 L14,14 Z" /></clipPath>
<path d="M596.6328125,772 L596.5664063,772 L596.5664063,763" style="fill:none;stroke:rgb(128,128,128)" clip-path="url(#clip167)" />
<clipPath id="clip168"><path d="M470,783 L724,783 L724,815 L470,815 L470,783 Z" /></clipPath>
<path d="M472,785 L721,785 L721,812 L472,812 Z M472,785" style="fill:rgb(240,240,240);stroke:none" clip-path="url(#clip168)" />
<clipPath id="clip169"><path d="M470,783 L724,783 L724,815 L470,815 L470,783 Z" /></clipPath>
<path d="M472,785 L721,785 L721,812 L472,812 Z M472,785" style="fill:none;stroke:rgb(128,128,128)" clip-path="url(#clip169)" />
<text x="478" y="797" style="font:10px Ubuntu">TrueCrypt v3.1 2005-01-22</text>
<clipPath id="clip170"><path d="M591,772 L604,772 L604,785 L591,785 L591,772 Z" /></clipPath>
<path d="M601.5,778 C601.5,775.515625 599.484375,773.5 597,773.5 C594.515625,773.5 592.5,775.515625 592.5,778 C592.5,780.484375 594.515625,782.5 597,782.5 C599.484375,782.5 601.5,780.484375 601.5,778 Z M601.5,778" style="fill:rgb(210,230,255);stroke:none" clip-path="url(#clip170)" />
<clipPath id="clip171"><path d="M591,772 L604,772 L604,785 L591,785 L591,772 Z" /></clipPath>
<path d="M601.5,778 C601.5,775.515625 599.484375,773.5 597,773.5 C594.515625,773.5 592.5,775.515625 592.5,778 C592.5,780.484375 594.515625,782.5 597,782.5 C599.484375,782.5 601.5,780.484375 601.5,778 Z M601.5,778" style="fill:none;stroke:rgb(180,200,240)" clip-path="url(#clip171)" />
<clipPath id="clip172"><path d="M591,772 L604,772 L604,785 L591,785 L591,772 Z" /></clipPath>
<path d="M595,778 L599,778" style="fill:none;stroke:rgb(150,160,200)" clip-path="url(#clip172)" />
<clipPath id="clip173"><path d="M14,14 L1181,14 L1181,766 L14,766 L14,14 Z" /></clipPath>
<path d="M596.5664063,736 L596.6328125,723" style="fill:none;stroke:rgb(128,128,128)" clip-path="url(#clip173)" />
<clipPath id="clip174"><path d="M14,14 L1181,14 L1181,766 L14,766 L14,14 Z" /></clipPath>
<path d="M596.6328125,723 L584.5664063,723 L584.5664063,714" style="fill:none;stroke:rgb(128,128,128)" clip-path="url(#clip174)" />
<clipPath id="clip175"><path d="M465,734 L729,734 L729,766 L465,766 L465,734 Z" /></clipPath>
<path d="M467,736 L726,736 L726,763 L467,763 Z M467,736" style="fill:rgb(240,240,240);stroke:none" clip-path="url(#clip175)" />
<clipPath id="clip176"><path d="M465,734 L729,734 L729,766 L465,766 L465,734 Z" /></clipPath>
<path d="M467,736 L726,736 L726,763 L467,763 Z M467,736" style="fill:none;stroke:rgb(128,128,128)" clip-path="url(#clip176)" />
<text x="473" y="748" style="font:10px Ubuntu">TrueCrypt v3.0a 2004-12-11</text>
<clipPath id="clip177"><path d="M591,723 L604,723 L604,736 L591,736 L591,723 Z" /></clipPath>
<path d="M601.5,729 C601.5,726.515625 599.484375,724.5 597,724.5 C594.515625,724.5 592.5,726.515625 592.5,729 C592.5,731.484375 594.515625,733.5 597,733.5 C599.484375,733.5 601.5,731.484375 601.5,729 Z M601.5,729" style="fill:rgb(210,230,255);stroke:none" clip-path="url(#clip177)" />
<clipPath id="clip178"><path d="M591,723 L604,723 L604,736 L591,736 L591,723 Z" /></clipPath>
<path d="M601.5,729 C601.5,726.515625 599.484375,724.5 597,724.5 C594.515625,724.5 592.5,726.515625 592.5,729 C592.5,731.484375 594.515625,733.5 597,733.5 C599.484375,733.5 601.5,731.484375 601.5,729 Z M601.5,729" style="fill:none;stroke:rgb(180,200,240)" clip-path="url(#clip178)" />
<clipPath id="clip179"><path d="M591,723 L604,723 L604,736 L591,736 L591,723 Z" /></clipPath>
<path d="M595,729 L599,729" style="fill:none;stroke:rgb(150,160,200)" clip-path="url(#clip179)" />
<clipPath id="clip180"><path d="M14,14 L1181,14 L1181,717 L14,717 L14,14 Z" /></clipPath>
<path d="M584.5664063,687 L584.6328125,674" style="fill:none;stroke:rgb(128,128,128)" clip-path="url(#clip180)" />
<clipPath id="clip181"><path d="M14,14 L1181,14 L1181,717 L14,717 L14,14 Z" /></clipPath>
<path d="M584.6328125,674 L368.5664063,674 L368.5664063,665" style="fill:none;stroke:rgb(128,128,128)" clip-path="url(#clip181)" />
<clipPath id="clip182"><path d="M14,14 L1181,14 L1181,717 L14,717 L14,14 Z" /></clipPath>
<path d="M584.6328125,674 L845,674 L845,635" style="fill:none;stroke:rgb(128,128,128)" clip-path="url(#clip182)" />
<clipPath id="clip183"><path d="M14,14 L1181,14 L1181,717 L14,717 L14,14 Z" /></clipPath>
<path d="M584.6328125,674 L1061,674 L1061,635" style="fill:none;stroke:rgb(128,128,128)" clip-path="url(#clip183)" />
<clipPath id="clip184"><path d="M1020,553 L1181,553 L1181,585 L1020,585 L1020,553 Z" /></clipPath>
<path d="M731,569 C731,564.5820313 734.5820313,561 739,561 L1169,561 C1173.4179688,561 1177,564.5820313 1177,569 L1177,636 C1177,640.4179688 1173.4179688,644 1169,644 L739,644 C734.5820313,644 731,640.4179688 731,636 Z M731,569" style="fill:rgb(255,255,255);stroke:none" clip-path="url(#clip184)" />
<clipPath id="clip185"><path d="M723,583 L1181,583 L1181,648 L723,648 L723,583 Z" /></clipPath>
<path d="M731,569 C731,564.5820313 734.5820313,561 739,561 L1169,561 C1173.4179688,561 1177,564.5820313 1177,569 L1177,636 C1177,640.4179688 1173.4179688,644 1169,644 L739,644 C734.5820313,644 731,640.4179688 731,636 Z M731,569" style="fill:rgb(255,255,255);stroke:none" clip-path="url(#clip185)" />
<clipPath id="clip186"><path d="M1020,553 L1181,553 L1181,585 L1020,585 L1020,553 Z" /></clipPath>
<path d="M731,569 C731,564.5820313 734.5820313,561 739,561 L1169,561 C1173.4179688,561 1177,564.5820313 1177,569 L1177,636 C1177,640.4179688 1173.4179688,644 1169,644 L739,644 C734.5820313,644 731,640.4179688 731,636 Z M731,569" style="fill:none;stroke:rgb(175,175,175);stroke-width:3;stroke-dasharray:18,9;stroke-dashoffset:0" clip-path="url(#clip186)" />
<clipPath id="clip187"><path d="M723,583 L1181,583 L1181,648 L723,648 L723,583 Z" /></clipPath>
<path d="M731,569 C731,564.5820313 734.5820313,561 739,561 L1169,561 C1173.4179688,561 1177,564.5820313 1177,569 L1177,636 C1177,640.4179688 1173.4179688,644 1169,644 L739,644 C734.5820313,644 731,640.4179688 731,636 Z M731,569" style="fill:none;stroke:rgb(175,175,175);stroke-width:3;stroke-dasharray:18,9;stroke-dashoffset:0" clip-path="url(#clip187)" />
<clipPath id="clip188"><path d="M723,553 L1022,553 L1022,585 L723,585 L723,553 Z" /></clipPath>
<path d="M727,557 L1018,557 L1018,581 L727,581 Z M727,557" style="fill:rgb(255,255,255);stroke:none" clip-path="url(#clip188)" />
<text x="728" y="567" style="font:9px Ubuntu">AES competition round 2 algorithms</text>
<clipPath id="clip189"><path d="M723,553 L1022,553 L1022,585 L723,585 L723,553 Z" /></clipPath>
<rect x="725" y="555" width="294" height="27" style="fill:none;stroke:rgb(175,175,175);stroke-width:3" clip-path="url(#clip189)" />
<clipPath id="clip190"><path d="M458,685 L712,685 L712,717 L458,717 L458,685 Z" /></clipPath>
<path d="M460,687 L709,687 L709,714 L460,714 Z M460,687" style="fill:rgb(240,240,240);stroke:none" clip-path="url(#clip190)" />
<clipPath id="clip191"><path d="M458,685 L712,685 L712,717 L458,717 L458,685 Z" /></clipPath>
<path d="M460,687 L709,687 L709,714 L460,714 Z M460,687" style="fill:none;stroke:rgb(128,128,128)" clip-path="url(#clip191)" />
<text x="466" y="699" style="font:10px Ubuntu">TrueCrypt v3.0 2004-12-10</text>
<clipPath id="clip192"><path d="M579,674 L592,674 L592,687 L579,687 L579,674 Z" /></clipPath>
<path d="M589.5,680 C589.5,677.515625 587.484375,675.5 585,675.5 C582.515625,675.5 580.5,677.515625 580.5,680 C580.5,682.484375 582.515625,684.5 585,684.5 C587.484375,684.5 589.5,682.484375 589.5,680 Z M589.5,680" style="fill:rgb(210,230,255);stroke:none" clip-path="url(#clip192)" />
<clipPath id="clip193"><path d="M579,674 L592,674 L592,687 L579,687 L579,674 Z" /></clipPath>
<path d="M589.5,680 C589.5,677.515625 587.484375,675.5 585,675.5 C582.515625,675.5 580.5,677.515625 580.5,680 C580.5,682.484375 582.515625,684.5 585,684.5 C587.484375,684.5 589.5,682.484375 589.5,680 Z M589.5,680" style="fill:none;stroke:rgb(180,200,240)" clip-path="url(#clip193)" />
<clipPath id="clip194"><path d="M579,674 L592,674 L592,687 L579,687 L579,674 Z" /></clipPath>
<path d="M583,680 L587,680" style="fill:none;stroke:rgb(150,160,200)" clip-path="url(#clip194)" />
<clipPath id="clip195"><path d="M14,14 L724,14 L724,668 L14,668 L14,14 Z" /></clipPath>
<path d="M368.5664063,638 L368.6328125,625" style="fill:none;stroke:rgb(128,128,128)" clip-path="url(#clip195)" />
<clipPath id="clip196"><path d="M14,14 L724,14 L724,668 L14,668 L14,14 Z" /></clipPath>
<path d="M368.6328125,625 L368.5664063,625 L368.5664063,616" style="fill:none;stroke:rgb(128,128,128)" clip-path="url(#clip196)" />
<clipPath id="clip197"><path d="M237,636 L501,636 L501,668 L237,668 L237,636 Z" /></clipPath>
<path d="M239,638 L498,638 L498,665 L239,665 Z M239,638" style="fill:rgb(240,240,240);stroke:none" clip-path="url(#clip197)" />
<clipPath id="clip198"><path d="M237,636 L501,636 L501,668 L237,668 L237,636 Z" /></clipPath>
<path d="M239,638 L498,638 L498,665 L239,665 Z M239,638" style="fill:none;stroke:rgb(128,128,128)" clip-path="url(#clip198)" />
<text x="245" y="650" style="font:10px Ubuntu">TrueCrypt v2.1a 2004-10-01</text>
<clipPath id="clip199"><path d="M363,625 L376,625 L376,638 L363,638 L363,625 Z" /></clipPath>
<path d="M373.5,631 C373.5,628.515625 371.484375,626.5 369,626.5 C366.515625,626.5 364.5,628.515625 364.5,631 C364.5,633.484375 366.515625,635.5 369,635.5 C371.484375,635.5 373.5,633.484375 373.5,631 Z M373.5,631" style="fill:rgb(210,230,255);stroke:none" clip-path="url(#clip199)" />
<clipPath id="clip200"><path d="M363,625 L376,625 L376,638 L363,638 L363,625 Z" /></clipPath>
<path d="M373.5,631 C373.5,628.515625 371.484375,626.5 369,626.5 C366.515625,626.5 364.5,628.515625 364.5,631 C364.5,633.484375 366.515625,635.5 369,635.5 C371.484375,635.5 373.5,633.484375 373.5,631 Z M373.5,631" style="fill:none;stroke:rgb(180,200,240)" clip-path="url(#clip200)" />
<clipPath id="clip201"><path d="M363,625 L376,625 L376,638 L363,638 L363,625 Z" /></clipPath>
<path d="M367,631 L371,631" style="fill:none;stroke:rgb(150,160,200)" clip-path="url(#clip201)" />
<clipPath id="clip202"><path d="M14,14 L724,14 L724,619 L14,619 L14,14 Z" /></clipPath>
<path d="M368.5664063,589 L368.6328125,576" style="fill:none;stroke:rgb(128,128,128)" clip-path="url(#clip202)" />
<clipPath id="clip203"><path d="M14,14 L724,14 L724,619 L14,619 L14,14 Z" /></clipPath>
<path d="M368.6328125,576 L368.5664063,576 L368.5664063,567" style="fill:none;stroke:rgb(128,128,128)" clip-path="url(#clip203)" />
<clipPath id="clip204"><path d="M242,587 L496,587 L496,619 L242,619 L242,587 Z" /></clipPath>
<path d="M244,589 L493,589 L493,616 L244,616 Z M244,589" style="fill:rgb(240,240,240);stroke:none" clip-path="url(#clip204)" />
<clipPath id="clip205"><path d="M242,587 L496,587 L496,619 L242,619 L242,587 Z" /></clipPath>
<path d="M244,589 L493,589 L493,616 L244,616 Z M244,589" style="fill:none;stroke:rgb(128,128,128)" clip-path="url(#clip205)" />
<text x="250" y="601" style="font:10px Ubuntu">TrueCrypt v2.1 2004-06-21</text>
<clipPath id="clip206"><path d="M363,576 L376,576 L376,589 L363,589 L363,576 Z" /></clipPath>
<path d="M373.5,582 C373.5,579.515625 371.484375,577.5 369,577.5 C366.515625,577.5 364.5,579.515625 364.5,582 C364.5,584.484375 366.515625,586.5 369,586.5 C371.484375,586.5 373.5,584.484375 373.5,582 Z M373.5,582" style="fill:rgb(210,230,255);stroke:none" clip-path="url(#clip206)" />
<clipPath id="clip207"><path d="M363,576 L376,576 L376,589 L363,589 L363,576 Z" /></clipPath>
<path d="M373.5,582 C373.5,579.515625 371.484375,577.5 369,577.5 C366.515625,577.5 364.5,579.515625 364.5,582 C364.5,584.484375 366.515625,586.5 369,586.5 C371.484375,586.5 373.5,584.484375 373.5,582 Z M373.5,582" style="fill:none;stroke:rgb(180,200,240)" clip-path="url(#clip207)" />
<clipPath id="clip208"><path d="M363,576 L376,576 L376,589 L363,589 L363,576 Z" /></clipPath>
<path d="M367,582 L371,582" style="fill:none;stroke:rgb(150,160,200)" clip-path="url(#clip208)" />
<clipPath id="clip209"><path d="M14,14 L724,14 L724,570 L14,570 L14,14 Z" /></clipPath>
<path d="M368.5664063,540 L368.6328125,527" style="fill:none;stroke:rgb(128,128,128)" clip-path="url(#clip209)" />
<clipPath id="clip210"><path d="M14,14 L724,14 L724,570 L14,570 L14,14 Z" /></clipPath>
<path d="M368.6328125,527 L231.5664063,527 L231.5664063,518" style="fill:none;stroke:rgb(128,128,128)" clip-path="url(#clip210)" />
<clipPath id="clip211"><path d="M14,14 L724,14 L724,570 L14,570 L14,14 Z" /></clipPath>
<path d="M368.6328125,527 L586.625,527 L586.625,518" style="fill:none;stroke:rgb(128,128,128)" clip-path="url(#clip211)" />
<clipPath id="clip212"><path d="M242,538 L496,538 L496,570 L242,570 L242,538 Z" /></clipPath>
<path d="M244,540 L493,540 L493,567 L244,567 Z M244,540" style="fill:rgb(240,240,240);stroke:none" clip-path="url(#clip212)" />
<clipPath id="clip213"><path d="M242,538 L496,538 L496,570 L242,570 L242,538 Z" /></clipPath>
<path d="M244,540 L493,540 L493,567 L244,567 Z M244,540" style="fill:none;stroke:rgb(128,128,128)" clip-path="url(#clip213)" />
<text x="250" y="552" style="font:10px Ubuntu">TrueCrypt v2.0 2004-06-07</text>
<clipPath id="clip214"><path d="M363,527 L376,527 L376,540 L363,540 L363,527 Z" /></clipPath>
<path d="M373.5,533 C373.5,530.515625 371.484375,528.5 369,528.5 C366.515625,528.5 364.5,530.515625 364.5,533 C364.5,535.484375 366.515625,537.5 369,537.5 C371.484375,537.5 373.5,535.484375 373.5,533 Z M373.5,533" style="fill:rgb(210,230,255);stroke:none" clip-path="url(#clip214)" />
<clipPath id="clip215"><path d="M363,527 L376,527 L376,540 L363,540 L363,527 Z" /></clipPath>
<path d="M373.5,533 C373.5,530.515625 371.484375,528.5 369,528.5 C366.515625,528.5 364.5,530.515625 364.5,533 C364.5,535.484375 366.515625,537.5 369,537.5 C371.484375,537.5 373.5,535.484375 373.5,533 Z M373.5,533" style="fill:none;stroke:rgb(180,200,240)" clip-path="url(#clip215)" />
<clipPath id="clip216"><path d="M363,527 L376,527 L376,540 L363,540 L363,527 Z" /></clipPath>
<path d="M367,533 L371,533" style="fill:none;stroke:rgb(150,160,200)" clip-path="url(#clip216)" />
<clipPath id="clip217"><path d="M14,14 L451,14 L451,521 L14,521 L14,14 Z" /></clipPath>
<path d="M231.5664063,491 L231.6328125,478" style="fill:none;stroke:rgb(128,128,128)" clip-path="url(#clip217)" />
<clipPath id="clip218"><path d="M14,14 L451,14 L451,521 L14,521 L14,14 Z" /></clipPath>
<path d="M231.6328125,478 L231.5664063,478 L231.5664063,469" style="fill:none;stroke:rgb(128,128,128)" clip-path="url(#clip218)" />
<clipPath id="clip219"><path d="M100,489 L364,489 L364,521 L100,521 L100,489 Z" /></clipPath>
<path d="M102,491 L361,491 L361,518 L102,518 Z M102,491" style="fill:rgb(240,240,240);stroke:none" clip-path="url(#clip219)" />
<clipPath id="clip220"><path d="M100,489 L364,489 L364,521 L100,521 L100,489 Z" /></clipPath>
<path d="M102,491 L361,491 L361,518 L102,518 Z M102,491" style="fill:none;stroke:rgb(128,128,128)" clip-path="url(#clip220)" />
<text x="108" y="503" style="font:10px Ubuntu">TrueCrypt v1.0a 2004-02-03</text>
<clipPath id="clip221"><path d="M226,478 L239,478 L239,491 L226,491 L226,478 Z" /></clipPath>
<path d="M236.5,484 C236.5,481.515625 234.484375,479.5 232,479.5 C229.515625,479.5 227.5,481.515625 227.5,484 C227.5,486.484375 229.515625,488.5 232,488.5 C234.484375,488.5 236.5,486.484375 236.5,484 Z M236.5,484" style="fill:rgb(210,230,255);stroke:none" clip-path="url(#clip221)" />
<clipPath id="clip222"><path d="M226,478 L239,478 L239,491 L226,491 L226,478 Z" /></clipPath>
<path d="M236.5,484 C236.5,481.515625 234.484375,479.5 232,479.5 C229.515625,479.5 227.5,481.515625 227.5,484 C227.5,486.484375 229.515625,488.5 232,488.5 C234.484375,488.5 236.5,486.484375 236.5,484 Z M236.5,484" style="fill:none;stroke:rgb(180,200,240)" clip-path="url(#clip222)" />
<clipPath id="clip223"><path d="M226,478 L239,478 L239,491 L226,491 L226,478 Z" /></clipPath>
<path d="M230,484 L234,484" style="fill:none;stroke:rgb(150,160,200)" clip-path="url(#clip223)" />
<clipPath id="clip224"><path d="M14,14 L451,14 L451,472 L14,472 L14,14 Z" /></clipPath>
<path d="M231.5664063,442 L231.6328125,429" style="fill:none;stroke:rgb(128,128,128)" clip-path="url(#clip224)" />
<clipPath id="clip225"><path d="M14,14 L451,14 L451,472 L14,472 L14,14 Z" /></clipPath>
<path d="M231.6328125,429 L232,429 L232,420" style="fill:none;stroke:rgb(128,128,128)" clip-path="url(#clip225)" />
<clipPath id="clip226"><path d="M105,440 L359,440 L359,472 L105,472 L105,440 Z" /></clipPath>
<path d="M107,442 L356,442 L356,469 L107,469 Z M107,442" style="fill:rgb(240,240,240);stroke:none" clip-path="url(#clip226)" />
<clipPath id="clip227"><path d="M105,440 L359,440 L359,472 L105,472 L105,440 Z" /></clipPath>
<path d="M107,442 L356,442 L356,469 L107,469 Z M107,442" style="fill:none;stroke:rgb(128,128,128)" clip-path="url(#clip227)" />
<text x="113" y="454" style="font:10px Ubuntu">TrueCrypt v1.0 2004-02-02</text>
<clipPath id="clip228"><path d="M226,429 L239,429 L239,442 L226,442 L226,429 Z" /></clipPath>
<path d="M236.5,435 C236.5,432.515625 234.484375,430.5 232,430.5 C229.515625,430.5 227.5,432.515625 227.5,435 C227.5,437.484375 229.515625,439.5 232,439.5 C234.484375,439.5 236.5,437.484375 236.5,435 Z M236.5,435" style="fill:rgb(210,230,255);stroke:none" clip-path="url(#clip228)" />
<clipPath id="clip229"><path d="M226,429 L239,429 L239,442 L226,442 L226,429 Z" /></clipPath>
<path d="M236.5,435 C236.5,432.515625 234.484375,430.5 232,430.5 C229.515625,430.5 227.5,432.515625 227.5,435 C227.5,437.484375 229.515625,439.5 232,439.5 C234.484375,439.5 236.5,437.484375 236.5,435 Z M236.5,435" style="fill:none;stroke:rgb(180,200,240)" clip-path="url(#clip229)" />
<clipPath id="clip230"><path d="M226,429 L239,429 L239,442 L226,442 L226,429 Z" /></clipPath>
<path d="M230,435 L234,435" style="fill:none;stroke:rgb(150,160,200)" clip-path="url(#clip230)" />
<clipPath id="clip231"><path d="M14,14 L451,14 L451,423 L14,423 L14,14 Z" /></clipPath>
<path d="M232,393 L232,380" style="fill:none;stroke:rgb(128,128,128)" clip-path="url(#clip231)" />
<clipPath id="clip232"><path d="M14,14 L451,14 L451,423 L14,423 L14,14 Z" /></clipPath>
<path d="M232,380 L232,371" style="fill:none;stroke:rgb(128,128,128)" clip-path="url(#clip232)" />
<clipPath id="clip233"><path d="M117,391 L348,391 L348,423 L117,423 L117,391 Z" /></clipPath>
<path d="M119,393 L345,393 L345,420 L119,420 Z M119,393" style="fill:rgb(240,240,240);stroke:none" clip-path="url(#clip233)" />
<clipPath id="clip234"><path d="M117,391 L348,391 L348,423 L117,423 L117,391 Z" /></clipPath>
<path d="M119,393 L345,393 L345,420 L119,420 Z M119,393" style="fill:none;stroke:rgb(128,128,128)" clip-path="url(#clip234)" />
<text x="125" y="405" style="font:10px Ubuntu">E4M v2.0.2a 2000-11-18</text>
<clipPath id="clip235"><path d="M226,380 L239,380 L239,393 L226,393 L226,380 Z" /></clipPath>
<path d="M236.5,386 C236.5,383.515625 234.484375,381.5 232,381.5 C229.515625,381.5 227.5,383.515625 227.5,386 C227.5,388.484375 229.515625,390.5 232,390.5 C234.484375,390.5 236.5,388.484375 236.5,386 Z M236.5,386" style="fill:rgb(210,230,255);stroke:none" clip-path="url(#clip235)" />
<clipPath id="clip236"><path d="M226,380 L239,380 L239,393 L226,393 L226,380 Z" /></clipPath>
<path d="M236.5,386 C236.5,383.515625 234.484375,381.5 232,381.5 C229.515625,381.5 227.5,383.515625 227.5,386 C227.5,388.484375 229.515625,390.5 232,390.5 C234.484375,390.5 236.5,388.484375 236.5,386 Z M236.5,386" style="fill:none;stroke:rgb(180,200,240)" clip-path="url(#clip236)" />
<clipPath id="clip237"><path d="M226,380 L239,380 L239,393 L226,393 L226,380 Z" /></clipPath>
<path d="M230,386 L234,386" style="fill:none;stroke:rgb(150,160,200)" clip-path="url(#clip237)" />
<clipPath id="clip238"><path d="M14,14 L451,14 L451,374 L14,374 L14,14 Z" /></clipPath>
<path d="M232,344 L232,331" style="fill:none;stroke:rgb(128,128,128)" clip-path="url(#clip238)" />
<clipPath id="clip239"><path d="M14,14 L451,14 L451,374 L14,374 L14,14 Z" /></clipPath>
<path d="M232,331 L232,322" style="fill:none;stroke:rgb(128,128,128)" clip-path="url(#clip239)" />
<clipPath id="clip240"><path d="M122,342 L343,342 L343,374 L122,374 L122,342 Z" /></clipPath>
<path d="M124,344 L340,344 L340,371 L124,371 Z M124,344" style="fill:rgb(240,240,240);stroke:none" clip-path="url(#clip240)" />
<clipPath id="clip241"><path d="M122,342 L343,342 L343,374 L122,374 L122,342 Z" /></clipPath>
<path d="M124,344 L340,344 L340,371 L124,371 Z M124,344" style="fill:none;stroke:rgb(128,128,128)" clip-path="url(#clip241)" />
<text x="130" y="356" style="font:10px Ubuntu">E4M v2.0.2 2000-03-26</text>
<clipPath id="clip242"><path d="M226,331 L239,331 L239,344 L226,344 L226,331 Z" /></clipPath>
<path d="M236.5,337 C236.5,334.515625 234.484375,332.5 232,332.5 C229.515625,332.5 227.5,334.515625 227.5,337 C227.5,339.484375 229.515625,341.5 232,341.5 C234.484375,341.5 236.5,339.484375 236.5,337 Z M236.5,337" style="fill:rgb(210,230,255);stroke:none" clip-path="url(#clip242)" />
<clipPath id="clip243"><path d="M226,331 L239,331 L239,344 L226,344 L226,331 Z" /></clipPath>
<path d="M236.5,337 C236.5,334.515625 234.484375,332.5 232,332.5 C229.515625,332.5 227.5,334.515625 227.5,337 C227.5,339.484375 229.515625,341.5 232,341.5 C234.484375,341.5 236.5,339.484375 236.5,337 Z M236.5,337" style="fill:none;stroke:rgb(180,200,240)" clip-path="url(#clip243)" />
<clipPath id="clip244"><path d="M226,331 L239,331 L239,344 L226,344 L226,331 Z" /></clipPath>
<path d="M230,337 L234,337" style="fill:none;stroke:rgb(150,160,200)" clip-path="url(#clip244)" />
<clipPath id="clip245"><path d="M14,14 L451,14 L451,325 L14,325 L14,14 Z" /></clipPath>
<path d="M232,295 L232,282" style="fill:none;stroke:rgb(128,128,128)" clip-path="url(#clip245)" />
<clipPath id="clip246"><path d="M14,14 L451,14 L451,325 L14,325 L14,14 Z" /></clipPath>
<path d="M232,282 L232,273" style="fill:none;stroke:rgb(128,128,128)" clip-path="url(#clip246)" />
<clipPath id="clip247"><path d="M122,293 L343,293 L343,325 L122,325 L122,293 Z" /></clipPath>
<path d="M124,295 L340,295 L340,322 L124,322 Z M124,295" style="fill:rgb(240,240,240);stroke:none" clip-path="url(#clip247)" />
<clipPath id="clip248"><path d="M122,293 L343,293 L343,325 L122,325 L122,293 Z" /></clipPath>
<path d="M124,295 L340,295 L340,322 L124,322 Z M124,295" style="fill:none;stroke:rgb(128,128,128)" clip-path="url(#clip248)" />
<text x="130" y="307" style="font:10px Ubuntu">E4M v2.0.1 1999-09-19</text>
<clipPath id="clip249"><path d="M226,282 L239,282 L239,295 L226,295 L226,282 Z" /></clipPath>
<path d="M236.5,288 C236.5,285.515625 234.484375,283.5 232,283.5 C229.515625,283.5 227.5,285.515625 227.5,288 C227.5,290.484375 229.515625,292.5 232,292.5 C234.484375,292.5 236.5,290.484375 236.5,288 Z M236.5,288" style="fill:rgb(210,230,255);stroke:none" clip-path="url(#clip249)" />
<clipPath id="clip250"><path d="M226,282 L239,282 L239,295 L226,295 L226,282 Z" /></clipPath>
<path d="M236.5,288 C236.5,285.515625 234.484375,283.5 232,283.5 C229.515625,283.5 227.5,285.515625 227.5,288 C227.5,290.484375 229.515625,292.5 232,292.5 C234.484375,292.5 236.5,290.484375 236.5,288 Z M236.5,288" style="fill:none;stroke:rgb(180,200,240)" clip-path="url(#clip250)" />
<clipPath id="clip251"><path d="M226,282 L239,282 L239,295 L226,295 L226,282 Z" /></clipPath>
<path d="M230,288 L234,288" style="fill:none;stroke:rgb(150,160,200)" clip-path="url(#clip251)" />
<clipPath id="clip252"><path d="M14,14 L451,14 L451,276 L14,276 L14,14 Z" /></clipPath>
<path d="M232,246 L232,233" style="fill:none;stroke:rgb(128,128,128)" clip-path="url(#clip252)" />
<clipPath id="clip253"><path d="M14,14 L451,14 L451,276 L14,276 L14,14 Z" /></clipPath>
<path d="M232,233 L232,224" style="fill:none;stroke:rgb(128,128,128)" clip-path="url(#clip253)" />
<clipPath id="clip254"><path d="M122,244 L343,244 L343,276 L122,276 L122,244 Z" /></clipPath>
<path d="M124,246 L340,246 L340,273 L124,273 Z M124,246" style="fill:rgb(240,240,240);stroke:none" clip-path="url(#clip254)" />
<clipPath id="clip255"><path d="M122,244 L343,244 L343,276 L122,276 L122,244 Z" /></clipPath>
<path d="M124,246 L340,246 L340,273 L124,273 Z M124,246" style="fill:none;stroke:rgb(128,128,128)" clip-path="url(#clip255)" />
<text x="130" y="258" style="font:10px Ubuntu">E4M v2.0.0 1999-06-19</text>
<clipPath id="clip256"><path d="M226,233 L239,233 L239,246 L226,246 L226,233 Z" /></clipPath>
<path d="M236.5,239 C236.5,236.515625 234.484375,234.5 232,234.5 C229.515625,234.5 227.5,236.515625 227.5,239 C227.5,241.484375 229.515625,243.5 232,243.5 C234.484375,243.5 236.5,241.484375 236.5,239 Z M236.5,239" style="fill:rgb(210,230,255);stroke:none" clip-path="url(#clip256)" />
<clipPath id="clip257"><path d="M226,233 L239,233 L239,246 L226,246 L226,233 Z" /></clipPath>
<path d="M236.5,239 C236.5,236.515625 234.484375,234.5 232,234.5 C229.515625,234.5 227.5,236.515625 227.5,239 C227.5,241.484375 229.515625,243.5 232,243.5 C234.484375,243.5 236.5,241.484375 236.5,239 Z M236.5,239" style="fill:none;stroke:rgb(180,200,240)" clip-path="url(#clip257)" />
<clipPath id="clip258"><path d="M226,233 L239,233 L239,246 L226,246 L226,233 Z" /></clipPath>
<path d="M230,239 L234,239" style="fill:none;stroke:rgb(150,160,200)" clip-path="url(#clip258)" />
<clipPath id="clip259"><path d="M14,14 L451,14 L451,227 L14,227 L14,14 Z" /></clipPath>
<path d="M232,197 L232,184" style="fill:none;stroke:rgb(128,128,128)" clip-path="url(#clip259)" />
<clipPath id="clip260"><path d="M14,14 L451,14 L451,227 L14,227 L14,14 Z" /></clipPath>
<path d="M232,184 L220,184 L220,175" style="fill:none;stroke:rgb(128,128,128)" clip-path="url(#clip260)" />
<clipPath id="clip261"><path d="M122,195 L343,195 L343,227 L122,227 L122,195 Z" /></clipPath>
<path d="M124,197 L340,197 L340,224 L124,224 Z M124,197" style="fill:rgb(240,240,240);stroke:none" clip-path="url(#clip261)" />
<clipPath id="clip262"><path d="M122,195 L343,195 L343,227 L122,227 L122,195 Z" /></clipPath>
<path d="M124,197 L340,197 L340,224 L124,224 Z M124,197" style="fill:none;stroke:rgb(128,128,128)" clip-path="url(#clip262)" />
<text x="130" y="209" style="font:10px Ubuntu">E4M v1.3.6 1999-03-06</text>
<clipPath id="clip263"><path d="M226,184 L239,184 L239,197 L226,197 L226,184 Z" /></clipPath>
<path d="M236.5,190 C236.5,187.515625 234.484375,185.5 232,185.5 C229.515625,185.5 227.5,187.515625 227.5,190 C227.5,192.484375 229.515625,194.5 232,194.5 C234.484375,194.5 236.5,192.484375 236.5,190 Z M236.5,190" style="fill:rgb(210,230,255);stroke:none" clip-path="url(#clip263)" />
<clipPath id="clip264"><path d="M226,184 L239,184 L239,197 L226,197 L226,184 Z" /></clipPath>
<path d="M236.5,190 C236.5,187.515625 234.484375,185.5 232,185.5 C229.515625,185.5 227.5,187.515625 227.5,190 C227.5,192.484375 229.515625,194.5 232,194.5 C234.484375,194.5 236.5,192.484375 236.5,190 Z M236.5,190" style="fill:none;stroke:rgb(180,200,240)" clip-path="url(#clip264)" />
<clipPath id="clip265"><path d="M226,184 L239,184 L239,197 L226,197 L226,184 Z" /></clipPath>
<path d="M230,190 L234,190" style="fill:none;stroke:rgb(150,160,200)" clip-path="url(#clip265)" />
<clipPath id="clip266"><path d="M14,14 L451,14 L451,178 L14,178 L14,14 Z" /></clipPath>
<path d="M220,148 L220,135" style="fill:none;stroke:rgb(128,128,128)" clip-path="url(#clip266)" />
<clipPath id="clip267"><path d="M14,14 L451,14 L451,178 L14,178 L14,14 Z" /></clipPath>
<path d="M220,135 L102,135 L102,96" style="fill:none;stroke:rgb(128,128,128)" clip-path="url(#clip267)" />
<clipPath id="clip268"><path d="M14,14 L451,14 L451,178 L14,178 L14,14 Z" /></clipPath>
<path d="M220,135 L239.625,135 L239.625,96" style="fill:none;stroke:rgb(128,128,128)" clip-path="url(#clip268)" />
<clipPath id="clip269"><path d="M14,14 L451,14 L451,178 L14,178 L14,14 Z" /></clipPath>
<path d="M220,135 L372,135 L372,96" style="fill:none;stroke:rgb(128,128,128)" clip-path="url(#clip269)" />
<clipPath id="clip270"><path d="M80,14 L451,14 L451,46 L80,46 L80,14 Z" /></clipPath>
<path d="M22,30 C22,25.5820313 25.5820313,22 30,22 L439,22 C443.4179688,22 447,25.5820313 447,30 L447,97 C447,101.4179688 443.4179688,105 439,105 L30,105 C25.5820313,105 22,101.4179688 22,97 Z M22,30" style="fill:rgb(255,255,255);stroke:none" clip-path="url(#clip270)" />
<clipPath id="clip271"><path d="M14,44 L451,44 L451,109 L14,109 L14,44 Z" /></clipPath>
<path d="M22,30 C22,25.5820313 25.5820313,22 30,22 L439,22 C443.4179688,22 447,25.5820313 447,30 L447,97 C447,101.4179688 443.4179688,105 439,105 L30,105 C25.5820313,105 22,101.4179688 22,97 Z M22,30" style="fill:rgb(255,255,255);stroke:none" clip-path="url(#clip271)" />
<clipPath id="clip272"><path d="M80,14 L451,14 L451,46 L80,46 L80,14 Z" /></clipPath>
<path d="M22,30 C22,25.5820313 25.5820313,22 30,22 L439,22 C443.4179688,22 447,25.5820313 447,30 L447,97 C447,101.4179688 443.4179688,105 439,105 L30,105 C25.5820313,105 22,101.4179688 22,97 Z M22,30" style="fill:none;stroke:rgb(175,175,175);stroke-width:3;stroke-dasharray:18,9;stroke-dashoffset:0" clip-path="url(#clip272)" />
<clipPath id="clip273"><path d="M14,44 L451,44 L451,109 L14,109 L14,44 Z" /></clipPath>
<path d="M22,30 C22,25.5820313 25.5820313,22 30,22 L439,22 C443.4179688,22 447,25.5820313 447,30 L447,97 C447,101.4179688 443.4179688,105 439,105 L30,105 C25.5820313,105 22,101.4179688 22,97 Z M22,30" style="fill:none;stroke:rgb(175,175,175);stroke-width:3;stroke-dasharray:18,9;stroke-dashoffset:0" clip-path="url(#clip273)" />
<clipPath id="clip274"><path d="M14,14 L82,14 L82,46 L14,46 L14,14 Z" /></clipPath>
<path d="M18,18 L78,18 L78,42 L18,42 Z M18,18" style="fill:rgb(255,255,255);stroke:none" clip-path="url(#clip274)" />
<text x="20" y="28" style="font:9px Ubuntu">SSLeay</text>
<clipPath id="clip275"><path d="M14,14 L82,14 L82,46 L14,46 L14,14 Z" /></clipPath>
<rect x="16" y="16" width="63" height="27" style="fill:none;stroke:rgb(175,175,175);stroke-width:3" clip-path="url(#clip275)" />
<clipPath id="clip276"><path d="M110,146 L331,146 L331,178 L110,178 L110,146 Z" /></clipPath>
<path d="M112,148 L328,148 L328,175 L112,175 Z M112,148" style="fill:rgb(240,240,240);stroke:none" clip-path="url(#clip276)" />
<clipPath id="clip277"><path d="M110,146 L331,146 L331,178 L110,178 L110,146 Z" /></clipPath>
<path d="M112,148 L328,148 L328,175 L112,175 Z M112,148" style="fill:none;stroke:rgb(128,128,128)" clip-path="url(#clip277)" />
<text x="118" y="160" style="font:10px Ubuntu">E4M v1.0.0 1998-12-18</text>
<clipPath id="clip278"><path d="M214,135 L227,135 L227,148 L214,148 L214,135 Z" /></clipPath>
<path d="M224.5,141 C224.5,138.515625 222.484375,136.5 220,136.5 C217.515625,136.5 215.5,138.515625 215.5,141 C215.5,143.484375 217.515625,145.5 220,145.5 C222.484375,145.5 224.5,143.484375 224.5,141 Z M224.5,141" style="fill:rgb(210,230,255);stroke:none" clip-path="url(#clip278)" />
<clipPath id="clip279"><path d="M214,135 L227,135 L227,148 L214,148 L214,135 Z" /></clipPath>
<path d="M224.5,141 C224.5,138.515625 222.484375,136.5 220,136.5 C217.515625,136.5 215.5,138.515625 215.5,141 C215.5,143.484375 217.515625,145.5 220,145.5 C222.484375,145.5 224.5,143.484375 224.5,141 Z M224.5,141" style="fill:none;stroke:rgb(180,200,240)" clip-path="url(#clip279)" />
<clipPath id="clip280"><path d="M214,135 L227,135 L227,148 L214,148 L214,135 Z" /></clipPath>
<path d="M218,141 L222,141" style="fill:none;stroke:rgb(150,160,200)" clip-path="url(#clip280)" />
<clipPath id="clip281"><path d="M29,44 L176,44 L176,99 L29,99 L29,44 Z" /></clipPath>
<path d="M31,46 L173,46 L173,96 L31,96 Z M31,46" style="fill:rgb(240,240,240);stroke:none" clip-path="url(#clip281)" />
<clipPath id="clip282"><path d="M29,44 L176,44 L176,99 L29,99 L29,44 Z" /></clipPath>
<path d="M31,46 L173,46 L173,96 L31,96 Z M31,46" style="fill:none;stroke:rgb(128,128,128)" clip-path="url(#clip282)" />
<text x="37" y="58" style="font:10px Ubuntu">libcast v0.8.2b</text>
<text x="37" y="81" style="font:10px Ubuntu">1998-01-08</text>
<clipPath id="clip283"><path d="M175,44 L305,44 L305,99 L175,99 L175,44 Z" /></clipPath>
<path d="M177,46 L302,46 L302,96 L177,96 Z M177,46" style="fill:rgb(240,240,240);stroke:none" clip-path="url(#clip283)" />
<clipPath id="clip284"><path d="M175,44 L305,44 L305,99 L175,99 L175,44 Z" /></clipPath>
<path d="M177,46 L302,46 L302,96 L177,96 Z M177,46" style="fill:none;stroke:rgb(128,128,128)" clip-path="url(#clip284)" />
<text x="183" y="58" style="font:10px Ubuntu">libbf v0.8.2b</text>
<text x="183" y="81" style="font:10px Ubuntu">1998-01-08</text>
<clipPath id="clip285"><path d="M304,44 L441,44 L441,99 L304,99 L304,44 Z" /></clipPath>
<path d="M306,46 L438,46 L438,96 L306,96 Z M306,46" style="fill:rgb(240,240,240);stroke:none" clip-path="url(#clip285)" />
<clipPath id="clip286"><path d="M304,44 L441,44 L441,99 L304,99 L304,44 Z" /></clipPath>
<path d="M306,46 L438,46 L438,96 L306,96 Z M306,46" style="fill:none;stroke:rgb(128,128,128)" clip-path="url(#clip286)" />
<text x="312" y="58" style="font:10px Ubuntu">liddes v4.04b</text>
<text x="312" y="81" style="font:10px Ubuntu">1998-01-08</text>
<clipPath id="clip287"><path d="M450,466 L724,466 L724,521 L450,521 L450,466 Z" /></clipPath>
<path d="M452,468 L721,468 L721,518 L452,518 Z M452,468" style="fill:rgb(240,240,240);stroke:none" clip-path="url(#clip287)" />
<clipPath id="clip288"><path d="M450,466 L724,466 L724,521 L450,521 L450,466 Z" /></clipPath>
<path d="M452,468 L721,468 L721,518 L452,518 Z M452,468" style="fill:none;stroke:rgb(128,128,128)" clip-path="url(#clip288)" />
<text x="458" y="480" style="font:10px Ubuntu">AES (Rijndael) by B Gladman</text>
<text x="458" y="503" style="font:10px Ubuntu">2004-02-09</text>
<clipPath id="clip289"><path d="M738,583 L953,583 L953,638 L738,638 L738,583 Z" /></clipPath>
<path d="M740,585 L950,585 L950,635 L740,635 Z M740,585" style="fill:rgb(240,240,240);stroke:none" clip-path="url(#clip289)" />
<clipPath id="clip290"><path d="M738,583 L953,583 L953,638 L738,638 L738,583 Z" /></clipPath>
<path d="M740,585 L950,585 L950,635 L740,635 Z M740,585" style="fill:none;stroke:rgb(128,128,128)" clip-path="url(#clip290)" />
<text x="745" y="597" style="font:10px Ubuntu">Twofish by B Gladman</text>
<text x="745" y="620" style="font:10px Ubuntu">2004-01-27</text>
<clipPath id="clip291"><path d="M952,583 L1171,583 L1171,638 L952,638 L952,583 Z" /></clipPath>
<path d="M954,585 L1168,585 L1168,635 L954,635 Z M954,585" style="fill:rgb(240,240,240);stroke:none" clip-path="url(#clip291)" />
<clipPath id="clip292"><path d="M952,583 L1171,583 L1171,638 L952,638 L952,583 Z" /></clipPath>
<path d="M954,585 L1168,585 L1168,635 L954,635 Z M954,585" style="fill:none;stroke:rgb(128,128,128)" clip-path="url(#clip292)" />
<text x="959" y="597" style="font:10px Ubuntu">Serpent by B Gladman</text>
<text x="959" y="620" style="font:10px Ubuntu">2000-01-25</text>
</svg>
